<mxfile host="app.diagrams.net" agent="Mozilla/5.0 (Windows NT 10.0; Win64; x64) AppleWebKit/537.36 (KHTML, like Gecko) Chrome/131.0.0.0 Safari/537.36" version="26.0.1">
  <diagram name="PÃ¡gina-1" id="eXaeoIxX8gKpLkLDd1XQ">
    <mxGraphModel dx="1674" dy="778" grid="0" gridSize="10" guides="1" tooltips="1" connect="1" arrows="1" fold="1" page="1" pageScale="1" pageWidth="1500" pageHeight="800" math="0" shadow="0">
      <root>
        <mxCell id="0" />
        <mxCell id="1" parent="0" />
        <mxCell id="GJvj-thQ1zYraej0EQVl-4" value="" style="shape=image;verticalLabelPosition=bottom;labelBackgroundColor=default;verticalAlign=top;aspect=fixed;imageAspect=0;image=data:image/png,UklGRmY0AABXRUJQVlA4WAoAAAAYAAAA/wEA/wEAQUxQSAUTAAABt6A0kiQ1e3v4b1Gh+o+IoDKW+wS/z8iXwWzB4Cho20Zy+MO+pxQiYgKqtLIZwnCyFEsvbp8sxcvnrUdLuHXR9/aLtiRJYtvIAOkjoaCpOLl7//9bBXC3p2cWpt4i+i+LtpWwlZL0lbGh96a9RcFk8u/ttu2qsW3bMjhGIgiPYRtoTf//t4IkBCZarXXMR4/ovyRIkuS2KdCNxRDNlm/uLCD+b/Jvf/znj//83xTuw/gYx+HeaU43PFKx2XhX/Izca0XhofZg/bHlZc9tJPng93//53/Wpvey/iito8xx/7XuOvk2KOIGiQfLvsfAmNcnlTbtj7HxSrVBr++z2vp+Fm9A9c343eT1XbyYbRki1xoyksIZawut/6OPIe/zFgxVj8MGuhjSEsXAK4auz/gwxl7bV43moJYvSXeK0xprJ9igsFMrRdczpMRpPKsZnZpkYAydlpgxSpOUZGH0MuJ2qmXY2MlIBkY5B5UUeylaPrIM2x5lhoJkYVglQzoyDatmyEcJDPEogTH2+pGfg46diCSUoisFuytM+01KVmQIScqMtGUr0ppRC2PoFCelnZuUBKMeRq8gqTPSWYa2nHSvsrScdq+yrpx5r7JKlHPy7dCKVrSWJF2kJBgFS9ESURxj7GUk9SIlEcm9SElK0q5V1onKpWj9KHCRkkgUL0XLwgQYVnYhegXJv1ZZOOpcpKQblS5SEo8i1yoLRN0Z6UqG4qTk2QmWZyjM4U80umvAhMaz1oUYO8VJ6V37EmzoFKPOtcqFSSnqXqQkCpPNSKtE6YuUFGG+GWmJKH+Rkqqc+8GGWjDXjHQqM3jnTDCE5HOfaNQrTpqWVFuPHDvBSWk2q5kGwZmSz896ht7i69Hi1YxObabtqTnPSFnGIDbJWzLuWjNlL5dnWGVFmmHC2W0Zta/Fxo5nTkWAblbNEJrNXTHVM/glphOW51YtBj21BLRrzaCWuIpznmF5hsb4zmC/FU0soZ3w8spLprHnlJB2LRlW3qTEK9Fl1N6A3kWmMcPWoy1DYdpM9RVpaZnaW9F10yCt+OGM9bzNxCeRZpStaF3xwxlWyWCRqLbjGbZlkEiQu/YVaQ4l3sFrJ4PBg7AGJ2RYkaEp5gcHRSs6K9ig6il+5hz0rqrNT1iRTqWpV/WFjprqF6YNnaaYH/66rGoir+8Ud8bO1cmq9h391BVpVfvOfsbVyWUrWlTgLUWruu5E64w0Z6DIsOImJbIId2A6MY0uEJnu1BF8K9oqrWiyAJORigxNAS1ViDKDKXBl8ASgjEormiAADOLXKmsKwk47K9KsgWVFmjPQrEgzQ/AD50VKhAFoRZoZoJl2VqSZAV6GlRma0mjFoAh4rWjqCP8mpcLUswHAQfUTjaxoRbNH8Pcq5wM+QJxBCXDnoFyAM8O2g0oGOWBckSYCuBlWaUXTAO4MGzuqQHWTkqikc1ek8QPatJNBFqDuVdaUFr5IaYBBBMBb0TyB7F5l4IDP6DqJCqIY7YBhxQwENURk2IAcFuagI35gt6IrX8MoKwhnIJU+5AMtWIuet7T0wAoVg+dazB/C0hgyai8xQoWK4lx5DEAhY+CVDsQdJ6gHoc1SdtRpCwIY2xeUvwBOcBfjDgNKoA+iE5HWgwT8QMbLiyNSyMiYKy8IEkKK/spfJD0wQsnAKxaIcDDQmx6dyID6Gw4Q4aQ4e7FDCBGDxt1daJJ72w4gXAxavjmB9figZTCXJ+ODloFbcSg3trv+aL26GE5BGmQnLTmj3uwcWnoITPgMtE5vds132Umv4kRwMPTEqDuO0PgXOTw3wBm/feJGEJKW90SO0eCRbHmTY8THOpgn5cmvr/BJd8m3LYMVDCSkZDhSKTJEL1eLPsku1QzJyzumt+ayl6F2uWFbM0SX+hxU7nJThspy6Fd9krncXrT3JLB8pXxrz6CgjJTGOai60qfDm/mkbbnLnjlsmpSV209KpwyELd/Gs+7AmMALwsbDu4JRAvpEZUZaU/n1/dnaGuc37jLEJ2wYisq1WVdDayrBeWjKQSELxkMrBuIydLN4WhJgAdt6fCNK0RUwnmzHwCqgd4YZaaRluDtjKRqnoNwlYALMKEG5S8IAKXh35lI0vjJGll7xMaUKAVPwXX7wjjhVwFt6F0rRDpX1syUbE7wy5he0z0hjE5znvBsYNYCek40BS2h6pOQTsjLM7kMBDEgC9vFWYJQgfby8mJ6D4hHkj7wZaWxlgJeh1nCasAjY7f53N96EHBQ0v9bBXqkz0lAEbvGzVcEAU8YatpVwWtLyRiKITe8ARgno7VrEWHzCIZAzyuSgKMqgM6oYIIS7jAlCGXZGnRwUgBCYEX4ZekargoFEVG5F78Fghi0+xS0EmO5/y2CEXGZhUKcUHbSQYPrnViFOgLcV6fcUvjDYigZRJm9FOl6hMyP5FG2Z04y4hchWdKhlVjOm2EXeFekSXrZCpegghduMsMtUrkjjEC1vUjoBKlek0/IOVWhtRQdaprUVPU9hisqt6BNQd0Xa92A6I8Iyua3oxafIRcublI4gciva9+A7Y4qwzO+KdHzC7or0smYEXGbzJqXlHZyQvCIdTJneOag3diEiEmZb0R6KqQ6/Jj9UtPkdlZC6Iu2tc9AAysxl1NjsPUUk8q5I70FeRsZTY0YcQm8r2g98QdNvLrOb4SeR1ozfKwxm2BaPI+ME1F2R9j3ozfBTBz6FXKbz21f+OmHY5GebWjL8N5VJbUX72X9+mjI8EOH9XmW3X1JmtxXtH7pX2fPihYXjDC8en8nwC5r2YDQj4+mUy5IuLCxnWPJLzEH9t5TFWJHesfrVRZRWtF+vSDHL1lqZHHT/T5q7QHLZdm2gxrbYu74gqVH58mBjpWKRLbM3ZCojl0dfF6gSKOZ0rQGzLLfnSBNsVda5YeBuHxdWR6w6Y7A0DdQor7fny++8qtGWoYSs21MSQjmMywwYZd0oaeC0MLyAzYlmR1ozOalQvjxsgaUyxqeEzpHHqOj00TKLbQb7WtfwTwijo8md6C6vxxLjuRinC5MTzdNwcjfw5fWxLbPMK6dblUvR0GW5sbXn7XRSjQlL0bjLl+ex9vO4zGmdCwZmWR+HD/yw37aWjm2adb4YgFg29sRA8rZMUWY4t0a0cvv2Gn3qz0vhItNpGkjLl4PXYC2JsW5P93vPX4p2lLLKJ3hXw1hqlxkKG4awrPQFNTEuz8IWazsFJoX1UBRjq75HbQNbeX0FCRhVMB6D9zlXJ2yy3DjQQ2GM7fD4txgFaFxkVYyL83FepehmQeI6kEBVjEeruE54dnJjOfo2o/a5yiEiF+PSXOv5laKhyO1p7wqYinF7PcZpnObAKIi+zWg3doz0vU8eA4asWxt7cagMRjAKLedbhYBRXtQyI5pla9wxzuof4x9SHaejAqXNOOATuAYoB+P1/4/5tzgVQGkzCoxYB2PD8enEnY5I9G3GsRzw4odXGiyCcT88ztx4zQfKAV9VOIzN8d2LYKzt/Nd5BiCrL9ckRyxKYHy0ic32+beoU7gsGxP/176mOxkx1q+J2z6W9eM6GU0SdpuR1PpmBjrsfIz7PgaYs7+4H29seBlTSznsNiP6FKiJjR0uqIFxn7X12rmZxVWKc8iyek75GapLYZqPcS3/ovYxda+g68bLmQqCbDPSISEahNjSMZaP4yhmpt2ug5/fhTJ2JOJLS9QH5WGBDcPaiHl2W4Xjvo4p0PKqgLijd59dCYz7TE539caGFzIVEvdVhczSIls2xrrN0vjZ262qU3kQX5sxO3pjaJXAuH5UN4gDWuSORlcZzAWxtxnRFGGypWKchtPXfY4bG+blMNuMpDTFQG8X06fNAMbq+lC+qqNNcUejJf99eER5E/Ex0Ps2ZO5AG0bpHHQbHHdhjIIY24yMyIwNju5IlGwIw5qD1kcrjPEKjHXTJGL6lhGhhpIYRWeZ+t9PbYwN+zyBfWMHNgiKxMiVIQxvDloZzYCBSC7PoZdXa+M4k4vhzUGropXHiIlVAGFUXS6lMUCELYQxlRN9aC2taCgilRm1zdUivxnGNJiNsWxV0ZwYC47y1qjKS2mYZeL3Yc5Ba6G5MVDIdWAl9eYQKEALXGz0YcyTg47Q5sAIiFuoWIDwFyuILKosYWE2xnL/ym1dvtb83+wLgXzEtELAMgelM4fGBCOyEQxrDpqGZt/tIivSGxYLf6IKMIWPb1P6/hFgbRELvzGK56BzllbB+Alf/jCiBe5/pegxIPFKQwpQpEe1umHDuH/VLTac14r+hIyhOPvjQWryorL5PmOKdNg4Yqc3Pm+uDKAqmrUUfbrEwp3HyWUGAgQjvUPaoGSwhTG8OWjhYsOVVqRzhlheaF97AqGiFhiDCn3RiS4dsvkwviqcXjRHDro8M+63UJ7Yl0FRADHRoEuJWREFEo+Iwc2Wg35qlakSxpliXSyrDnzZOk6MRAovSIIAdeN5WwrkoDx8coloJuW/zpMxnovN2HOKjjBokhGNIjViWH/61sgLna34F3gKteNQDH84dOL42yOGepIIMvxsCGcBvvzG8GYAtvtTwMuH8zFCmxFjsfpVR+Hk9DIQQWOIC8clNTi4lMLAvvbTDc97Vi9FW3Ufo8k5mkcsnuA1HomKGvJNr0J8t/7d/3TtUb0UvTyrz8dp4lBBiIYO81tAkhrzT03sv8d53ntuu8401O9+Dh3Hds/JXcxA0JpBGE56dMgWB0OV8o7heunr63vb1/v9us6X5n21D57VcZgmBiIK8vIIXZfwkK58e9sZStGWHhVHiKbA9r3Q5uTh4uXGwre3naEUbY/aL1mgJl1fRIRTQ6gT4SG8ZDqptzQK8UaOV9NHcsKZgTDce3RoUaUH28E91rM0XlXG6ihQk7M/UMXTFVk0rqDBqXOeJ0b3Nb62pOWn/oHM4ZrcgQKyKE2qEsTIKEaQ9nXbOT9qkyqBAzFklBtHWia7FMcBKIYR8hawCYwKinGNwGibCbL5mgFkC28tQo4gEGMKqgksQC/LYHZbw2UoS7gJxizYFAkG2K0ZlJtqhBWvIMHQof1959jUENMRfMt+ACmSZJBo4Bmht6GgSAMSHfjDEXVZI8DXtwwBTFTjjDEgOQcnEuk1g+4ZCBWJgFKGQHXBmAn1aOZatwyiZyCadiBOKulRQ2YnydZr9GybyOYcVdj6DwQoe2iPHdszEMviIEiHwmg7kDWD4xlIVBAQyUhMaIwotMnQtwySTd2vmtLXvxND9CXqEhJlK2j2XcdYBnMR8RzUKBZbWPkZYCx/XpyiQoF3gkIiQZEdPOp0XzP4NnUp9OhAFBnyJPpzmIxYQhlIIBikaAsCC6WR9Yx14NRXQqIE4eu62GWGMAbdJllQaDBITFVQaEFc6mzfGDzPQKIaQKgx5gtVpOMAF8Sgewbi6mdodbCsUQyuTYFAIZOh7bWwchnFoHkGosYUR6udKPaDhHAs7zrGKjrN1K34MDg2WQx0lRbrjWCOWqQFQwMTTY1o9ErLFfF86BiegeQHiJBsDjUmxpUWxeB4BuIPDJqcDlQg9FaQtWzFoLgN1dMRxT5FJSNxCehpKMjRAkYx2J6BiCKwkSEHjKxaDjT4lsH2DCSwIKv7QGOUKQwYbN+iRJs0IMYhZoUtRjFIXpAucgO7Ji37X4UyB2pDix362LNt8j1o6DpwJKUJ2yr2LYNgE7u+zD6fDI6eBuOzUAwYbM9A5MFGwgSUm6gfzGDbxGwpwSdbGGX9d0/2DERcfK+xp6I6WvbtmgT+TWikLd5QXiCRHfA99HgOdJt8YcahGrxqR9MTB9I+9rPtbwLMQNiMq0+2tiMz9/5G8VVJYQ1A44WWK1Ga+Lp7t8L+gnRVBMOB+jYqhe61CFkqGKuFsfGkZWhhzV+/Zy73inBssgQCl01lV2rjjYN/yj2n+Cg6BUw86AYm1UB5hsjRsq/6SPWfssa4SQ8SuSMJjdpZVfZNaNCWfleVFY/8ULXedCTbFA0U8O3PlwZapem16j/VjyFl3kRquuEhFMVfOi4wO3k6VBViBtJYdCq69f0m76ZwdFDIMLQljjf5N8W0pPxTHKcwtZV6U1o/A7ySrDDeFMTUG2/mANrHmzKYotqBwAexB9RW85aqJCaqQQbWaUnfeFMUk7rRqC+NYOv7TZ1M1Fqtochr1apLG1PmmeiiV9P7TVVMlHQFZzdDmUrL+02FTPTHGMZbb5VNG9MIKd1JHW9qYqLmZH2w+ZJN1UwpXuLJJXKZqPYpGPZOxvGmUqaoAy2xSGlVzSQujjqj0qqlCcf92IzjTT1NpGpRTTbFNMUoiZMM0plGOWjSeFM/k/Q6reNNQU1kc4439TNlXVHwI1zvYgbSmne8+TN1ck4y/JydDsKMjTdlnIFEUs2mtP6cnaiMN3+cjR0npiSbgs5ADlSrLnVNx99vCm1qfL+psKlyvnlLVWLTofebMpuyUdNkU2LT/lZ1aW1qeb+ptanp/abkpu+b7Fv3NY7jd3eTf/vjP3/85/8F8QsAVlA4IHggAACwzwCdASoAAgACPm02l0ikIyKhIzPJ4IANiWdu/A/WjZ+wZO+4sHiv+Z+nvOe9P/a/vHgoaV87/b8Ie6j8t74noH/iP+V9DX9Kff56RvMJ53Hpz/8/qAf+30+vWh6Jj1UP7r/3OD36Q/0b+8/7fwf/zP+62vG+f8RudOw3gBfj39B3b0Af6N6IMyz9y1Av91wpn9bojO8N+8eoN02BuCo1rRaQWcSMF9OgXCfVxsNdAuE3NxWbiR/9hV/kIJzgvp0C4T6uNa0WkFnEi3fD+S7MAHeGpy8iy09FKWYPiOsCXEefwrhPq41rRaQWcSMF9Lpbh9lOEMQp1ukJSWYML4CBor4LPy9apaFCDWjWCziRgvp0C4T6uNaVienOge2yzhQESP6DBo7zil7kIyw9+woR7UbLnEjBfToFwn1ca0rE9OdOCaEsEt7Ra8zQyIEcxSR9b8T9yjggSXn1HPq41rRaQWcSCIQJ62NdCXb2Ec9JVrfumrShWvzZC/7A/Mzybrpk4eEkI1rRaQWcSMF8iKIgRpAri3uUZVHmIimKM5qbHSMkl5zU+GafZH+1dL0WtFpBZxIwX0uluIEaQK43dKqEJnx/D7k95FhmDFfjehdIcU8lxpS+ByTcLWL1gvp0C4NgsU3T5q1or9qwA/UxgML5X7rHchmkXBzsRPPMNjflv/roFwn1ca0rE9OdOBxIwNS9r+6LLqBTp2KzrOxyIKqPkyriD/ydywXCfVxrWS7k8nTgcSME4K+pWn7kcWp6ZJDxM/RWrc6vibu9mSUFwn1cametIRY1wuwUg0dC7ck60WkFAXDJ6MQkYVANTO93QjBJ0lBcJ9XGpr10vssZEVw3eNst5WKYlp8oFwat4TRxqZAIApvUYL6dAtr0o9x+Kn9VDrvdvJjCGHAcTS4JFtz5/G2kfkIE1mFYnQLhPqcgohs0c6KImGFc08HdNO6ndMnr2E+RukDfqNqc5KkLbSCziRguWAtXOdsyxOIPXU8esCPNezAEHAEQfOpIy2qSyW6SB0EvF6Q59XGtaLRJTtZqegxTJvSxeDqHXof0wG4RWmRStDafr1b0RflhBfM5ZQjWtFpBZxIuTrgJHTSB8VyRG/3lgkktewI89bD9Cfntz7loOmYnSxOgXCfVxrWVqmevQWPKsTdxjnonqqZCPdWFAdRR1e6eU3jkHo9ImpzkqQttILOJFsyGPAoiF9LW4B0g9reijpROtlLtAjCmXWOOuCaQQTnZ7T7o4MpJJekOfVxqWPCFw1pkjGJzMrOQzpiBp0GNUE2RKCe3VvTz/X9wtRQGSZiD196ndFEN4fWUI1rRYBUccnDA5jFDfzaEtAtcE+LipP2MBDERZNKLJiltDMJ3K+o3vhrAOPg5a5Y9TpCfD9YIyFUIA/4Ep8lZ4SZf0vrGSkAs4kFDag9pF1vc+2CB6N/hMPayK7Vu0rXjAZoszr9PEwgwvcCOwI4GsTT3v5sJ5Lx1XKhq3BJBSFAaza2jjrMGILP6HcSvhi+ID9dPri452wGNdMd5F9Rz6nZnAju3qYokTqyWDl88xOy7QsPutoWxIZjVKZ7bKS2bRAKKVifljP+kMRhwMmZiiq4Hm/OldYRxbSAY1Fa8hqnzgifM01LSc9yEi0bpf+G04Ib/weyWho2ANmco1WlZSgrzlVASijN04UaNzm+nP1GyulPPU4ppu1+b897m44phd+1i38g+pKVBOt+gbxamdFe/DcbuB+B3uk1OO4pIlTBAGsgDRh4WWzQ9SQha4Uy3H0RPDADh3A+4W9NnRlqtFolcNx91otILKSKRcA9kOTV89SVp+uTL23fLJkF3jOyN8APLx10WBcjAXyp/7u4VuRA66RegwGyfhm3R1KwGvUTNZhJVaT2iK0K/qe+W5tremP0a/3HICuNa0WkFnEjA9YwBc32OGmOXvdQZVL8fKbOeJwWIIR1FMKbAqRKR2DeidaC/dJ4KD/hkvAkjbOWOmiBAGrNT7UxTBaIZ8enNEo//lzKmNoLhPq41rRaQWTh11r7Ftv1uzXEaJUpNSUVztRbEyJ/WQF+2Cz0CwFE9ndzEBlOpiZdUg/a/BSB27jHMthgjONa0WkFnEjBfTn75gbyjyHiW9Tz6p2IVqnhDytiHHQcRj1ZsYecdaI5XXS/V2s2+JGC+nQLhPq41rRYjyfwQTw5qP+l5Lfwpf9jj66BcJ9XGtaLSCziRgvphKVZHPq41rRaFAAD+mLbllfHnR7bUz3xidgABEycG8aBiyuHtgq+uannSogjJZqlRBmNNNBUn6+i8l6Qn3P6LasgVg0cBx6j1YNWOW6tibr0DyiGq3CD9ptUOsPk28pfFYXOe7EeQC/UKqc9mK70lAL3bhZfpsady73CY1N7AAuqAdTjOZsQnjKLikl2wfX7w7D4idwxV/5dKacY78e2OPBPyPvdxK5etw901JbWuC5Oi8C9bUfdrIu9191pc9Ch+AR6yx6jbEXNpkcWsquoZn2u+w/eK4ZMOz/FybBbe7Lcrfismd2lCtTkzPEnBv0hvskAm1edWrx3984BVtGMTgl3YdAaXVthIM/wgZyf6KBy2MJvX1rBAIVtZW1d6K1bJUAACtRfmole0S6i/qWfF3EEQs+LuIO3WLr8NjUfLLtJV1NbXUyxujBvJhaP0papfoYEZgPGWc8l6/hGDUIvAYcNn8dTTCfi3HAY3vFt1V4yjMclbhuz1sMcpckWsS9mY4gl+D/khRs6+B/lJhQYJgwmm+22Eu7jMvxc41MftR3ZaoWizZ6ygq6WbcTW2beZDD3Bgwnh2uvFw6nGzKW4XwNmtOGVAAEIbsh2c/Vmc/YiyU2XezfrngKqj8R+Yk7dtOBoBSlquBJ4ZX5HCqlWlXA28K85cehhaKJ7tO+3Jl/Qhu8hiVLXFKjIksL67JEiHybJhljcOcTDae6M+TtjdDhuvtVBJnQCeqH6OEckGyhpkqI4AGYyZ/DptvZCzklZCvO3zShHQA4LFwyRhZygNShvF+Ij052G7Hl5XeMAbSF1fHyAA8VsP9QUYu/W4ReTb78gpHV1eGpXquRyPdnBugeod02aziZKVxg+SwlrQDt8I5Fz+A+eIuCRiPmq2e2yag1b2EPbC09/NsyjcJdV0DR6hclLAkjo0Y/rscQjYxZcQZrtTXCOALa6vX0jpxmLQya53lGQLdu1V+/jnZsy8aw1Q8vrpWrY1FyRLPTyVaMUm2GU9+pn+ZAARmuEsJMihh98acq8U1HbmsyWZcDAmbiodb/4/JGJ4sp+7AopgnUs4KoHAEasQEz/HDMJC1mz3j5TMdsqeCg0KoDvJnM+jF+VOEB2Lpion5Y2gyvlLc+7p3Oec+VTWFfD4KVeJN/7dnVPq3H1RV+rJerAMrwN2Kk2b/jNfBPDqbmYpljn71l4m5nRhLtrkYtKuYMwc+NmpQADNLJ6nJwBAwtuqYVURqBdtmFyW0SnGfpM06E4qLTBrpN9MFae+fwLslpmVd0Va/7dgqY3bqgVdZW0+wVEhVgi126qM45X58jwoGP8P41BRQlV1z9aYgX0Emys5QSvn/rxMGq3N0ycsl5Jjt6bLmFFAQOC6oKKDIbjb2owIZzi64vx4YTmBJV7lcdMApgEOpycJfSIVsE7s/+9WH5acMH9opgx3zc6tQ9lFxgpadMmqjw5TQYtX6qciYBo1e3MwXiCZtQxo8BGeNoEFIKPAnbDA8g2Ax6XWjX8RviXIXYlO5boQbLGPpYrprXrFsJ5OYTKuGED+ZRIFVLLkjgyQ857IPIhwiMTyoML0B9Xr7h8IABWgIdTk4rR5pzxmj+ssSj/fGbNL0qIOH572TQrCImphUGqXSZMnD2S7s99Xm/gymETfVcCQFrVcizaKT0jcvV+rMAlHSLT0WDPUNcQetnvLWg+N1vyDurdyO7T1SI7uP5qq5+x9WfKMkoDxGOf9dEnWYbjYXi3GJ/hjeh6ONbP/p+koZbU8q3ToMHgFLXAD9rhLCTJklSWPkYKb2DAVmNEtdDPxFTBOWKAsaEvtYKf2Z3MkbCZVzxuITYxxDhUGp6C8s/cifS8D8p+LvE7sPMQQW9hssFwKIyIdLRmghrA3H2tMza4FyVgeKAz3SKmIBW7pq6xKWSrcNxJqfwMcHeQN4AJfXCWEmQD5B/xX1A8xdjCZI5jaSHkMGlUBaixBYJ6RNY+6Rja3IBrHiTounmq2dzdYsLshNrUXOY9h11DXdGphobupaMDH2LpGwvrY3I7YQpjbDpkw7i1FkFpsx16EOHYj8+RWCtPV4Dh27nDTDs1shYfIW/Kz+gUyqrBLUhvwngxf5Ie5bmC7Ajvf8C7iMOuLLahBtVLtK6C4F3G+ei14Lhf0fLemCfcOZnM6DjBd0hMdDlRiHhgK/uOOyTXM6jkKHikTGiMYRivVTjYQ1trDeOC+Aj7iCRGHhXYKVB688xbGCQEwKYmjlSrizM8ZsQsZmoISKxSxkOdvtnVAfd9QAuxeiA2thvSHAyro/5hqwg1WSEIEsUWUtGayfs8ZNANIOlBdP6BkjcLiK3d2NkhW8FZBW14d+LfM8F5RZihEia1sUQmG9bYvcl65LaOwR9SGQ7KVJT4a2DnmcnVuaxyg4nk9fDcNWMtsi23Ael0JICiyc1HB6ceTFCJelL1B1sSY2zPga7DslLhSuAFUhuOnAYG7f4UTviBiNBnZSpsc2oNlRFHjmlfO7IStAvdfvGw8H7rYV+aYlz9hU0R5Rb2bAap1hYzTof2ah7yLYL1TmPwLEuXOCgAw7sk9NpfSZcBB8UZobVr810NeJltHBhA7aqaSas86I2f7qrAfVj3DJ/4lO1zcelhueuEUdQnmRGVlOTpgAWDlonqwdbUgZ6RoYe4uyALng+q4I8NAfVgJE1eb6mQKbXZIZvTyix0bUdWMPjeMYoCZoUloag8GjT1IxPLXhNjjzl/Y0Mr67VqkTygqpbJF348NW/oES3r/O8gO4ve/loKJ1VzrhlewtNJhMXxGpfA+SODNDUtOIKwRgK68qnMg+GYoLaj/WT6QYE1NCK3dxlKNjenOQiKxn8eC0PcSqC6oeJgECxadaia7EwyBhnEp6FacYyel73FyzcBZXfjtj4Gtm9RKG5dD9CAOypOaxZF94RqkwsN9Ii0cXcY25BZJpywLIiIgt8fxEgbRcBW/LYNUzcsN9ytoIr0DU4x8YrtlejKa1aPRzCQDr2LuAaIBGJJdv2OyhanFXx9iqgb+fbK5del8R2V/yA1uLR2WmShhM1EX4b4nE+2YW5QhMeGYAfQgP2Vr34hW5VwDJyIomGJ6tiqsBdAbQePoPJx2kY9KZ2LHfJm5MbiuYlyJhd5WamDbYdjOCQ4Mq4iKNkcBJ2/t1s681yRK7nBHhNdpUjGlmo77Ha+YSBVYVtU0GW9RjFlsvxQ86JbUuM4vs7/RjEf3muXAAmoHn0uq+kn+HFnG7F0xXJQNjt/+yM+jbgGDywGtkY5BZI34A1xs3//iQXdFMiXwdd700CbIgAIvULzggG0Ed32Q/bDOLedFCIhiGkJr2ckG1y3ZW+zZH8dGW4y4TZ/LHkNkm4HIrkusdrOegtwrYsYsyauXxvU+DBT8pCsCbI+NsQqJ914nHOUAbA3Kdc5jYTtNcNhY4xxWLlBJKDNnntF+hgN9vlx1s5fvHcSGbcpVDTxw8Po2Ohzf8HXS3Asx65z7liA8MwAIEry4I9KzPtzCtytGkxYV0ya1GYddzkcrDaQkMAQnhsncvjSfWlyufBE0I9LB+4IerNBxrguXFCVkrc5HggwfxVKodCnzig2y9Xm+AtlzAiwwxdYLrBJTKMCesVv47xnWti5k6A4hJW8rK529Hiq02ocrmXNUi6D0zxg/WrGmPRwRRhyeSDTCv2OqM80N7U9WOMSqCO9fQHEGviz+Ed7aPb7+J0AH4gWHnrZIrX4bNBYPseVlS96oPybeYup/R2wolKmN9+1DaTZZbTulqMoO4XCXDLHyoBa14EWmb7I0d9CCTjZ4fbO3LwuoDP/fzdJNjkCiNZWxGkMI0WmD1y8lB64hmMpgSd6rnZABtjeLQK7wsmo5jwzBLeVodzIQIA6WYLMD180vN9r9s+ddNLV6pWTWjjZx8f8QorDDFbGTSVNwPrI/GhjlZPiY8/XJrJCFbMPQKeEAw+nWz2dn5DRrJBYg0K1FzJmi8wwIyQzZFm5rAkKDC+bwEcOkoaYTY+Z/NJt95wpxS5YzJ4nDdR7anFjdmMuYX8b1DxOyzOUqQwkJNhf7YUnNMZ0btB1A0Ld7wo6nYqIgJdzTF/uTvQ5K5SttTnhS6gdVoJHAvvuIK+KdHlhOWdl6olvQK4FsGpps3PQmXMHdD+6/Vmekk77o8tMyLQuC4ZZFI5eqw7n7G0LrzBMTG9WZmP9/fe5GM3mlb5y5WCRB0Z8Z5J4A9xBk68s5dzRwkY26oQpD3YYrPk8TPC+L+5fVVrXKHxHNhuluGpL+82vQcefvcck9tjuejMEYdo+Jv6wwkgithOQMg/sU9ogPGCG7ABLcWCwLulxB5bsHI+HZ8I4nsTLued43VlcFrjcOh4zXIxTVfo30JWy14JtlsmiHRSPHTCUJ+K227wuRx1jwf45xr1QS8elRf2yej6Mj8OZWAQClTFUlecNNLOjEF2dKkBeoYS6XmKI6CzmC0YTH0dO6UGbbi8IIzFtnKxm8UmhqdC4M8yHRD5+UTacYmyWI5znhv6Kwe4FKMTgk4qhitau+cYVdARapOdiWHK4M5Rlh0BFVaoVNeRILmg668TQa05q64ArttsEVePZYIO7TH1Hn0HzdoWW/q/QYLLfrSutO4QaHY0av6bZCxYdmoRHlpgbAyRIHf5OM+Io7pcB8aUhOwvAGJbmNTxMI5vzLDxIRnGvb52IDgxMHAuQXSf71Pt6cHyF0YaC7DlrYxYkBeYt9xwPVA8W1Pe90uCYxrH9T/Aj1RTjjC04wyLCUbCkXRASTWr5HdVOq3NSTS9KrQJnQycTExcr4yyFubkIzJuOXoLKF1WAZyxCGZfI9TPkcjTU8KFzaxTdyTEszW7+IEJloeUFOlx9BWff9CM6SZeRZp5IGgWEtQ+OTkjiYdCKU6PIMFPypLd6W1s2CdGXpXhxezi7iHjk1lJy8rsMO2pxFCl/TMc/HPRq4zrRRC2RpLBp51JMRfzD0HccbdRGWAMFHxdEVW9IjFp5iyYtpXkJBHN6X+saYOKX+bv53D9ujiMxD/vHGUqxo+J0vxZa8K4XPWNSJqmScXcMX7UJJ8p+wfECKfzC27M3KXlW+zkapfwyRgi8peCCJg2O7q7jhBYovhd0cvuswQZPSmqAvTzrKPJhIjn8KhTag09Yq0tO1u03H/0Dif/+7af/bzP/925jBXcXQFgl6Ic8FVvf84zkHxBV64NBowuR6KWJkKNryHdmGamj5fUtOz25hUtUIYFaUJCIMgEFdIpIIEJwqI+x7KksWjMqtIsqlkjHl/f+yEJrN5kOEPA4zQ7GV3UjgDnKcwRTL8REr+Wve0sX8cs5AjvbTSXuPvsz7Z9AbJg7aNyK7ZxgUEF2js7LNkXMrnBwlzr94tFFUUd+ARUR0peCrkElOBqFyC12o5D4VLSQfXbISfOO1kV1GzTC8QLrypwLQit7Up25KVoe1dyBnEXhivm47ZFaMO38drEFV2vgRTggKvnUrnOKa0/Tk/qO8ucBuJiFnNsDsz5efPGXuCUojyZrR3DrqIywS1/CgYFi8zTxI7W7dymV0BmlnYETtwRXrDHjQxAvZDh5ndVN2tTUg0IRdqYGKlDq5Xxc3Keyq6pe5vx9hYXJzj77CYD2UVt4nnZ/Tvs/lYAQhLzlkBTUEv8A9/pLECgRdlf2ovd8ud2C9OEKoPKbIeCFzK0HcBDSVpiGbvMz8VHMq10kuAqG8mSR9Uu8sq0c12+PnWkd1VATfJj8zOQkdA4EdM6SICFOfMHA1qnPzSC37dNWxhePka811+W3wryOi7UYANSTnQK4xBc27sr+OXlKuScubJ32gwtvENn52lkmVhtr9VfUzIhDf4jKIAW28iVlDaiCQHa+Pcr/fFvYyYb6re2DKjG4B6/y18V+c2MoVPIEe5Uucnrk73RrthVZuy9Xc1BTZNJhE1kYroq94d6qdU08CYqL2V4azftVU0l4CXNpp3LGd5AbrVngD1Cz6Do+JVvViwqrw7MsjcNiSl4fNmOCBOn/TrZksV3e/w30k//6hOOvPujyEslIf9qdhaDEJOJQAi9Ce2p95NdSdZDXGJl5PZcySABB/udA/jFXt3UgHjEcrZHHfOIzDU766Gr2h0QvLwV/BGaLABjg5KQZY2k2SBl2wKdWz+4SWk9qY9aU1HB4JKkuARCTDoMfMN6MUexVJvrSs+HcNpVXo0qhte0LgzRNUTHPajl/vsszHrrwwdllE2s0lefvIig7QgQ5ihu87E3VLYUCT1+hIEVEzFo/iaeOHRiC7Qd/k18hS2Ld7SkNe+vGV9aHg5eDQd+VmT4CenLrO0oAU+XNGGdE15TVoHMiGlRrpwvcPSx90aW4WH8s4YOeR7Gb0D87fDaXwHl3r9cyYRdV0u7zp9Unas0EUryV1Fzp8X7xzBBKDxjWXe6GC7ypqrcobHitZj8jRea0NXX9/3g+MsofbWuiX4dCVFM6hE19Q732yEQtHURh2lS58iswJ/MpwJpCUDGwLQ+5qcxAlIVKe6b47zchg4Kc961W9PpSHFdUdnkksIhaOKuuTpU6UlnLk+WtxHEFol7v7B3qN8FmeoTUtYdmY+DaJkID5i8sVq3GprJ4OrkQT3Ounz2uN++WD5YeROs6b2XZXXtKxYt73GDpSO66HGL0GNcaBPfvsdzbQQC+tSVbA8tI8WaJFzY6ZvLmMfxPv71bX6TWmD69h6BGgHNPnJtEMIccgf8GCH91FUAdjNY+j9BMOmOYervHU/C2Fu9M8k6XnYS2ngI9P+3MUyg9ELvgpfa/Gg2OEfKu/xW7f7RBRsP+ZmGNrlf+Ngp9YhfdpEkiJW0ehGiaYzSroi7hQfvq5AjMUrevM2mboytJhBj7INST38B2x4SjPiwemjuMeOAAAE227Zi9KSsBj5pQkCNABY57pcZ+nElol7hH3gxyeO+XIBPEipsbZLdOJwhnDaVnjv+HqCII/+UaD2kitLFRBD1JL9jBhwpqIpSwCDC/YC6BpRJKj8n50dUly3KjhHUIOmfEdL5JznX0ADBCeJdmx0SsUCi1iNO9VxqG0+V5Ert4vUMT4MOUFSEPmyMiI5lxYUP2jFdA2E/2xzgpBmOZSX8MZ4VoSaqq6hGjjDNb0mGsW4MrWO+7f2OGFvEHqC1q7OcO3FYsfKeeGUKEN6bP5WH+4L0fb37dm4D8bz1FSgxmf26KseiShiDD2zZQ9Wf7HdsO/2bE70COgkzOY/Z1QTJC2FGEEl/ufJW92QobMs9kQfY77NvmbrRJ7U0vDlDMoi5VoOI3N7Q16dtEO0AhEgeHCbkHibWAkoq4qAVurx3o4p4b0np7xAO+s+33ZJ0ugkpPGNoqxo5hprlXIZw6ts9wDs6DCBhpY+WqIKdAf0oRnvq78h2My6Ty8tv9tYs3rAoglZX4wBVeRQSmSxIHaP92EWLoBkn0DKbx0vC5HFa4UqNjhppZ0YgdF5zZ7i6rlVK/7dYARpdxK3VwnWegkzbwC6YACpjtO8m+YNfZs0dbRYlDM9jwWfMo8Mx+Y9v89VgQZ3RNDX99kHPkim5nKZmvalO36Syb8UU6eh9cbvbxsO+gsucDiIfs8qNvkNF/Q4Fe1K1lioKl/zmfL3LaxV2ksSioQUw3yQr13dP/a+JYLZLRMxKB/YH8kc283dvOUJNDROiXWwUZjPtslcdfcBOW5hwZsiY3fB581Wfv7eOav7+0tTztLAmPxzrj8Dh0w02kiGs3c3wg0DRmCMPKUrjfw34gomtSqijVqQBLfJLQ6Dg0r6eWXV8SkPK1jI544q1OB4xASjwt6yzmSXqtgIQEotZJjCrXPukAOc00osaalOSHq1e9CKM22ABMj8LKHiGhBeBcLDefJFGFbksucqJLa6NsknY0mV9GihKKoX+liwptTlGF1WnFOY4J/CbrCHfEl5jqOnQ9r9RO0C6BCxCnRcKZ65niCSpIkulsDoEaCKU/Pfs6XsLr+LH8sp2tkzYNO4O9enNOyMQrptbUN99vnPQgoQMBowW6qd4zdPq1EKX+xlBwnwog5aGKlXGg8NQcSbdjMikghVXBpuARHMhLJtYIUkY9CDDpPT8PArIl0UI648jP/2yH4AHdxcoks/dGU5NpG1ALiDdlN7f0hinj7ayucmg3Jq8sKszjNJiK3342JPfN0elCxPDm5xfXNuKUDTJYW+Or1tB2DTuof3TdIi5GOzwYr+JbauAjhRVlsflJp9YYhuCTDGvMGk+jPJR6/Npez3/qQtZCrZKCQNT6Ii4haDTpT15hutFx0QXVBYWouG2165NhTmmQjC4r2oKMUCq0J/lTQJoCD5keFFUxdKM2TmqfHuOn+l0gmAdckWifoSqwz3UL7pb7pxMiP+ODtioE+SdlJ5IkGQenxAeC0cjqoPSVL6eFJp3gfRYpr+D6I41COtKjolHkZmKzwHbx9FCR6Z4lqQgBiT2iX+MNQyEpSEm7wlI+gSMM1oRfKT5MwzWN4iIded2UrsfC3zhntpI60vqY/R/TR8UFa7YKjAi3koXeGS9AMgjMhItHgACAbH4ZjA0Z2iPlqx2XQGqQ5wIEpBFGkJYKtoRfIblH0WMDjob9uiEklF3t3lwr7sJhe+5l1Bljgz7h8ZVKlwSt+ABT3urhv+EtHRluYlj5lEmWEXOmkQH/s/Ry6RniHcOlJdlh4x9eSYJgllU0+l56n9393ktpNoNf+AnAKxUt7/Wr0tz8VpwynqaiI9nSFdIZEpIww1ZrEsiQuXSZH1UzHsxadk50IiigAAAbxaQwhMqEJ/xU++hnP8UeCz5lHiF1BdqwPMD8idwDmJju553kOqOxyCyJFNjTbw4crjGxiaMjRCyhQUv9uFJ+GUEPiuRrirmd7PeSqw2MDuammuiBzbRIAAAAAAAAAAEVYSUa6AAAARXhpZgAASUkqAAgAAAAGABIBAwABAAAAAQAAABoBBQABAAAAVgAAABsBBQABAAAAXgAAACgBAwABAAAAAgAAABMCAwABAAAAAQAAAGmHBAABAAAAZgAAAAAAAABIAAAAAQAAAEgAAAABAAAABgAAkAcABAAAADAyMTABkQcABAAAAAECAwAAoAcABAAAADAxMDABoAMAAQAAAP//AAACoAQAAQAAAAACAAADoAQAAQAAAAACAAAAAAAA;" parent="1" vertex="1">
          <mxGeometry x="70" y="241" width="77" height="77" as="geometry" />
        </mxCell>
        <mxCell id="GJvj-thQ1zYraej0EQVl-5" value="" style="endArrow=classic;html=1;rounded=0;" parent="1" edge="1">
          <mxGeometry width="50" height="50" relative="1" as="geometry">
            <mxPoint x="147" y="272.00058823529406" as="sourcePoint" />
            <mxPoint x="321" y="272.41" as="targetPoint" />
          </mxGeometry>
        </mxCell>
        <mxCell id="GJvj-thQ1zYraej0EQVl-7" value="" style="endArrow=classic;html=1;rounded=0;" parent="1" edge="1">
          <mxGeometry width="50" height="50" relative="1" as="geometry">
            <mxPoint x="319" y="290" as="sourcePoint" />
            <mxPoint x="147" y="290" as="targetPoint" />
          </mxGeometry>
        </mxCell>
        <mxCell id="GJvj-thQ1zYraej0EQVl-8" value="users-service" style="rounded=0;whiteSpace=wrap;html=1;" parent="1" vertex="1">
          <mxGeometry x="318" y="249.5" width="120" height="60" as="geometry" />
        </mxCell>
        <mxCell id="GJvj-thQ1zYraej0EQVl-9" value="" style="shape=image;verticalLabelPosition=bottom;labelBackgroundColor=default;verticalAlign=top;aspect=fixed;imageAspect=0;image=data:image/png,UklGRuYkAABXRUJQVlA4WAoAAAAYAAAAPwEAPwEAQUxQSLYXAAAB8Mf//yol/v89zhQzhIBICoONLSYm2N2du7aOnRtv+7XqqtsGYe2+XDtfa7fY62IXNiAWnTMwdR5/cJ7Pc2bUOc9PviJiAuC//pflHPPR12I9YbEVGY/byVUKtgO/ZLdgPNPwdzXbGYmZzdhOWyOuYDsNsjHJj+nUeIdF0Uyn+lvE+UynTgbiFqbTshDxoifLGWRDfBHKcgyImKZnOWtYj/YU66n8gvX0NiPi02CGsxYR8YyO3YQ8LLMR2O0IS5m57MbjGCKisS276Vlc5mEws/E8imU3K5jNqJIy5gHAasPvYNm7QaxGvRYFlwGrHVookF6X1dRPRsHfFIwm+BQKpkcCm/VIQOFVHJvRLrcIPagCTFbzrQkFS8cCk1XPK0bh3Z5MRjO/GIWfNQAWq11oRGHjl8BiPVeUIPFXNxYTEG9B4ukgYLDVDvNIfFgPGGyza0h+3x3Yq3LQSyTnfck5Rq1jEZ7zcpBcPEMJDtTWHzEgkEEEbzYjuXSxBiR3bzT3xMkvfYE9Nj3PI9nyvQ4k1tSZdSova004sEfVoOdIaV7tAZJyIcP2vuPNR1opgT16Lc5HypLl7iClttmqhxbEx+O8gEFW2WVByqKvtSChT9/92YhYEFcNGCTX5jrS5hjUID5k8uUSROT/7q0BBqke/QZp341QgujQOfdsiIg5q0KARfquLETaR105EBs8+4EdEdF+pbMKWKR+pw1pExuAWO+xt2xYNv/HYGCSTa8greXPcBCp7nLKjIJ3+qqASXZ5grSFS7xAZLX1eShY+u+qwCSVI98gbcpwNdBrRz1C4fez3IFJambnIe3tNiCy8mYTCt/uwAGT1C4wIiV/NALoFV1vorBtXzVgk9olJqS0bw8Cet2MTBQ2/VIe2KTbohKktG3yA3q/daUonDdLC2xSNd+IlLZ4H6AP3mlH4czRSmCUXxYgpX2jD9BXPITEjGEcMMoO6UjJ/1ke6IMOIjFrOAeMMuIu0h4PAnrf7UgsGMcBoyy3C2nv1wF69Ro7wbpIBaxyhoUmsyuI/KIIiTu9gVXWT0VK67eciHrPkZhcC1ilKg5pj/sCvXYbEi2TgFk2/kCT2QZE9i4mJZZnF98h7a9KEZ7HkGifAMzS+zpNWl0Q2a2Y9LIKu2iaR7OWE6HYhOQjGnYxwEqR1xpEhj2jWAbsciFSnvMS06uUwsAw1tEsA7FfIRPZQFHaRYxyJ80ChrGc4l0tMboLNAdU7OJLnnTDW1QizaMQdhFjJCXqHFHaj12EP3MO3KlhFur90rmdospuzSxgIk+45C4G1lLhDi2zqPaK8LSiqCl0RX2YhWIdobCFqNYFVHgthFVAVKaQfbQo/9t0/Aolq1AlCOFmTgz8TIc53VgFNHwtlFxRVLsCOkwKZxWwkBewDBHleVIExmtZReBlAdzrJgZGmEUYx7AK6JItkNNalM95EfiyIatQLrOVwS0qMdCvSAQe8WEUUP6oQHYbUdptYqyzWAXUfVwG93mIgXovROCz6qwC+maVMQ0TBRNKROBCZqGYXoKImBQmyn2LmKQKrAK0P9sQEdcoxYD+qojitswCfLfxiJjTVRS0ekmH89gFBP2FiHi1oigYkEO3gWFA5URE5H9Qi1LMN1PFsQyom4SIBf1EgcdOZgKN7iLivWqiIDKNZh3bgGb3EXGruyj4nmYK44Co+4im8eIaZZDyW7AOaHYX8UUDUbpTpMvezAMa30Lc5yUGFhP4OcBA619Ds0HUJMKjSiwEapzC53XEfMELWKcBGw07hJvdRIxFwaM+jASCduX3FDFV4GUjYKZ+W094020okzsUnFOhYAHgvbI/le8/iFg0TeEwVXD0hG9jd2xfN3904/IySeHm4aXjJAHPpiqaTsWIxV+pwcEhY3a9MKIwn/PP91EaWaMNqdVj4uyfd+6NnRCpkAY4oFRtRcyfpQHHqobeK3p759yVp1l2FM7+o6lCnqiDW09af+JFps327syiTqEacMLW2fhhjBIc3OHf33QM99V6BjeYfKRAAPHtvHKyg/NrNfvAo2I7ouXFHyNrasE5y/0H73ZVgIMV/log6zodMQug9fcAWaEI6vnbrXxEROuzjf1DleCs3Hzjvghwcq+vcgSQ31lBPnh3/O1BKZbN+c8ovRKcuNed+V7g9IohHwSQX+smD5Q15l4pRsH035prwambrmnOwcc4wSiAxuFywK1VbJodBYsS6inBub2becPHqYkVwhtBLp+28+5cJL4bqQFnV3DgWE4b0CRCJwnUThWyjXf16m8vRMqF8AlV+OobDZ+ZcG7PtHCFNNxvQnhE59p1fYbUa9SfAIXWu3rrbrPXbk9KzbFjypKqHEjdo0TodVWXrvw1pC/eHO3LfSya8mFVWgw1LNh27sabYjOPZd+vrs6B9JVfC5X2cOkC74lALLgRN6ldHV+d2gmUbjqdV1D1qJi2faes3LDx8O2U9AIbUpfsj1KAIwMeCuEklw6GpIpBRHvJh1uJh+MWTDFMGtG7Y+tmjerXrVOrdp16kU2at+nUa/CYyQbD1K+/j99zKjHxevLbApPJilLmP94xyhMc6/0PweDacZEbUm1iqO2W0uL83KyMjA8fMjKz8wqNpRYbj47mS9IvJ0xuEagERwc8JEx27QCU1cfveFokldObPzw7tmFa+xoeCnDGSq+FzL1dPQBQhcQY4i88KSjlPxLebMq6f/Hgd4Y+NYPdwHk7GYXe1pABZRW6kKgu037deORe6uvsUrsT8NbijLTUh2f/iP1hSvfoBv46FTj7UhQ+7ykTyJoK+kqRnUdONsxc+usf+49fSBR79sjezT8vmWUwjO3bpk64PkDHwcfqd4PwNchYTqXR6sRqNUr4RA4uFXpdW8580n3PovCPHKOZZhFKrg5sttFLFDSOBtmq0n7S/I+iIL9BK1cq9Jsc+Clz38ALHQwAWcpV/erWwyj4hKsXmFHwVDjI0vAlL3jrBPiEq+cUY1n+SCWQo5qh93nE5IqfMN23RVjW+u8gkKO6pcWIiMlhH5PKjXOI7y+lWDZ3oTfI0lmlWNa+yuvj0FVsMOKb/UdjHBG+04Zlb/VSgiwNe4zC5iMDQzXOpPHQt+zxTfzpF1k2REz5wk0qLvoGls39NRxkatN8AqL56bEVhhExEfoQL5V0Cl2Avka70dN/Onr5ZZEZKYvXV5bGY8YbRETzyY5qkKu+FykE7cXv055dO7gxdu3S6SP7dIwhd+g3etaKDbHbzj1KfWfkUUL+ocFfgtq7ShHRcv0Lb5CxnV+LoLdbSkzkEiuPjrbenBUmwmvic0QsvTK2AshaLvqSTTInt3649K/6VMoWh8yIuYcG+YLs9Z9x2/KxWd9dXjusrjsHtJVWZaL5wermWpDFgcP3vLZ+LLbCR8eWDokoByIDZj21vfx9QBAHslldfXhcUobNyUxv7u/+cViLIA2IVg4+d2/T4HAVyGyufJ2hCw5cTS028w7iS40fbl/YvXBi56r+SpDWf1yXAAXIdLVnlVZdp/4U9+fZu6/S0tI/ZOcVFBYW5Ga9e52W9uruhT3xG/41pnOb2uV1SnCkggP5r9D6her1lWtFNo1q0SKqcf2ISnp9aAV3Jfy/DrlyKqbjGb10sIbhBIw9U/yHJzBbzcDrVrT2B2Zbbk0RIuI6T2fTebACbokNy5qPDKiodhKNd532U9efPNrNjQ1EpCHR/OSvReM6RegDtJxUqvJhdfoaVh+78aGER8SCbVEqFhBtJJXlTe9TH57aGvvj7KGdYmLaNIusW69+45YxMR2GzP45bu+tlAwLUmfENlHLv9AHdLS2UpPJmJ+dmZmVW2QyldhQ4ozN0Tq5BxOMEjlv/qGBQQp5p5mf+3EhZn/vJ+9A1eNv20dkfbqugzfI/qDZd60fhzVl+4gwBTDB4C8PZ/JOxhff2zS8sgrYoTZy9l9pZqcpeLr362h/JchwjX/TLoY1cfEJ6wwtvUQAgFvlfouP3s+3OMZcmHxu3cRWwWqQ4W7hfRYfu59vQTR/eHggdkV7haiyGv9mPb/ZsDcp5XWWyUphNxe+T3t++c/1X/VoHqLlwLk5hTzQRc48lGJGRMvzfbM7V/FTAnDgQJVvWKX67QaMMwhPHtmjRYQ+xFMBH6WqYy3XT1l96oksOyJansb306vhcxtzrbeLp2sbn2pHRMw/MipUAZ9hr+vvWrlyuu4HC7Bs0a52Ovg8hybjz66bImpPEQo+GqyFz7RygQ1/ddl8/+c9Cj9rAp9r97n5mNPRVdPvsSFxE3ymNa33lmDxPKWLFnIcKW/V+RwpggfszkFMGasB11zxC1I/nllF+Vnh3GsPS3hUili0oyG46lVS6ND2ctPAcPXnQRPSdMzPF99bEbHgP9114LLXfCMCEc2v9n3dTq/lPl0KbfkG7Set/etZLo+IaEuJa6cDeo8gl0q9jheFiLzp+dlfJneuGqD+tGj89LW6jJ+75dytrBI7Cto/HJ5UVQkitd/2cqmgwi+5Egib3jw8FPfdiHYtqvnq3BQfCafW6Xz0DaPbD/1mbcLhu6kfSnikNL/ab6irBdEh6+6Hu1agjtn0yiqNsK2kMP1W4pntq2YaJg3p0LRmuF4fFujrqdOolAqOglMo1Rqtp49/iF6vD49o0rbPaINh5vLNhy8kJr3KMZbYUKz13cUf+1ZWg3i3nldxBbjcykpDfklMNdkkoreV5L1PS0t79ejm1fPHD+7Z/semhPjY2Nj4jZt/37730LGzV5LuP0tNS0t7n2ey8Ci53fj89MqhEV4gpbrltgK8HuZ6AQDnXjV6xOqtV1IyLA75+O25L09tMMTo3TiQ1KvTtmzE1Ghw4blyYXX6GZbuS7yXabJ8WuwleQ8S/5w/qnGoDqRWVZt8tggRn3UDGajSVagX3Wv2rwl/3U5Jz7N8VPbid6l3D8Wv+rJ9kwCdEqRXhQ/9d6oNEe3nG4OsVJcPq9yk1wTDV2sPnE+89jg9x2gyldocw1tKTKb8d0+uJ57b+8scw6iYGno/NTiWc683bvtLC5bN+C4Q5KpKq/MKrNqwTUxMl8HjZi1evS5WOC4hISEuVvjXld9M/aJ3u5iYZhHB5XRaJTije5W+yy9k2FAwf0cLJTBUlU/DQT+eem1GYT7zz/ZuwEpVgbUGzt+TlG1Fcsmd7xprQHYqFZ8ehda3Xrvxv+57/MGCtCUP43oHcCBD/XuPH9JAX171SVB6h1ZvP3bOxrM3M0vsSG37kPh9lyAFyFT/AVv/fn7vYMKqiV1jGuu9dVqVc3EanbtfteYx3Savjtv996u3Rh5F8iWvE38eWdsLZK2qysC11zJsaLMUpPyTeG7f+kVTDZNGdG/TKKKSXq/Xh4UE+lfwK+sfGByq1+v14dXqN+80cJzBMGfV70cTL91NLzSZeRTPF6Re2ji/Y3V3DuSwV/W+c3ZcfmmyIdFuLs55/zotLS0t5fnjB/fu3Llz5+6DR09fpZV9m1VYakPpraac+4k7vxnTMtyLA1mtdNe37D533dZzT9MyTHZ0fkvem9RHp7euXzCwbUN/nRLkO+ceHF6n/SjD1EXrd59KTLx860na++wCo0l8Ue6H9Od3ryYmnjuwcfkMw/jeTavqA7QcMEWlm07n4RsUHhHZvE2M+JaNalcJ8fPU6bQq+C+pVRqygtFMOXlM+Hh3RhOLZMN//fe/JnQhlRt1HjRq5IB2tUI9Ph0KX31Eq17DRg3vGVUlQClfVMFtpsedep6eW2rjeavxw6szP/YK5KgqfvuvZYL/+jZEikqLlgl/N1xJw+lq9V7xZ1LquyKLnbdb8tMf7prbWEuoMml69/7NuF5N5YAmYuyOR8U8ii29+00YTcBdJFqHSjHAisQfgOwTs+TcOwuK5bMP9dQK+M3d1/jQlojzs10+LmjonnQ7SsvfHaAkcetJuImTYAmSJwqpIxdeK0SJi3+vWgY6/uQW+9sPv0x2+aLvWtCBeTPVBBhgJj0OliCeVBQjoFqZyaMDr0eW6fCD26+jDg4zuHwt8tChRZM4gv4FydRDnPY4KUUvAOvRsX/XAICA+orIChGBVV2+wEeOwXetCcrtJPxRXMgz0lkPoTG8Y3CnB7jokii2C9mNaVfPH9iycduJq+9tNHhAJwRj7aR/fEXV/kBaB8INsoQseQ8untyxcdO+c/eKqUyDZQTMR+RzbsSNj67qqVUBcBrP2hMvWykK2hFqvyUVthE1yErgxxH8biNaUg8v79MkQOemAFBq/WN+ekuBx9xlRNvUYzOb+HBAX2GliYSrCdpjJFwsag4Si1oRuPinsQMruwG9IuoKRVZjGVGuthYk1P5McdFDCOZQnPMUodhGehBIgCqhCpCw7mMSTpIRUld6TEqvTmiWQ8pqJMLzCuk/apLUU+2k9bIHfiQZ2xC8L5Fwhoiab0nfgKMrvSCddpM9I+0EUwwBVlD85UbXpZRQ0sNhbqdIiTrZ07KQ1JbUwUhKr0m3AIkp4Q6DBBlVJ4NQ0o4UcIdkH02l2E467Oa4FTKq5nsJuA0k3KakCXhIWgqOXybvYKCF9DyMpkkOoaQT8wh/QTL3p5mIxKdhDIBz0/lUrFanXv26fbKlUO4g4XqOxG0i7VNLptR6+IdH1K1fv068rNFV7jHtt5MXbz5/k5GVlZVrlwLG2Ul3/Em+/5Cmg5ScX+Sob3acv/Ig9X1mVlamUb64N1tw4nUJSkpX5x3J2JHULI+QGyWOC+4feyvbjpLKjXKDj+byKDWd9jgJV5IMPOG6rxiuxtIHZpRcXig7nixFB9LBXIor3kKKbUj8CURW+Poljw6UFd6Ls9GhIqJySbnNhUKSCaU9RTQ+ZUOHygm/LTaktRgzX9y7mZT0zwOLNN6XSThfqIuRkBxK1zYZafmSgjfJt5OSkv55K0M8E+xI5DOOLe/bpm5oBV8fn3LNMqSBlRQndQJLkbhVQRX1BMnmR1und2heLai8j4+P1yoZMsOMxPTl9bVAWfO9RB2NpPf1ynhcINhGAG3AeSTaLgwLVgDlUvlRJwWJ11twQC1ZwF0SP6lMwyxCSmWqb3mCaZUf0MuQNUh8VA9ESsbFknC3CgCmIXG7iqbSExTmf3IDmVMxmWAdB04CgyykpyEAmoME2yigncgT7oeC3OlnJiSHOk34S1JBK4Aa6YQXVWjU+5G4AmTPAiSecHMa1U4SGgDG2glblTT+9wn24bJHuZe0BZwGxttJWxWq3ShsHgC0jXMJxW1kj+4CKc6J6rwj/e1ZPZVwP4gqxkQobCF/EkkHVc6jPUHKrjfaTvgRpLH0llE3fES1yJEM5pGso/agcEG0RDhblOI3uaE+QipoJ6blNZSueS4BT74hnPWka1FIOuYuwuOrXLkBq0i4y5PKa1oaOsD7CqnULsRPBXr9c1LRQLo6O0tRdozmSeZlHiRd56Ol6Aj4nkR+WU2E9gwJk1tzBK7ivBdIKxtqvyOheW97PwWAR7VRfxUgtRSdTKLWcSJgMQW+/ibCHUBZofnSBzaUFZOENDspEAvvbI/ddCHdiiKlCLwnJr8tiG2SQYH2N2c2xu66n4diXbUEkn24EHTIpRH7IF06Lk7MUXdR6jgascVXzS6dcg/J3I2gWmWXyLa/1i7pYLCFzjwMxEfclypjSqscl879AimvCQH8dvGSZCzwhf9xQKVXdEn+EkCXNEnsVzpwFe65dEHJpPQqJPD/rVic6a/WSoAJDlDtouJng6TtbvDiXi8OBtCdd+kqp5NehlKAduAFI13u4QGeAACdTNLBBJ4mOVwa0K94ZaeyPVtTTwEAim0uXScj6YIHDYB3158uphabTCZTQfLxb5vrQLD8aEPZCRWlCJlgIE/topAIFFUn7rmdbTKVmEwZN34fFa4AwagpBoPBMKWPyiWbh+QEEMu5V2kd07ZtTFSwG3xKVeUjY2LaxsTU9VaCLHQ/QeINohhpTC4puzGTcd+D5NMeTGZyKck2AVhsp3Qk3whkMdFPkWwaCeyV6/oMKbfo2IvHrA9IeakSsFZl4z2lSHmrPjDXyKdIe6MhsFftcgvJfrImsFivrYT81QHAZiueLmO91EMNrLbWLbTemVYBGG7MnrFBwHQ5NfzX/wwVVlA4IEgMAADwRQCdASpAAUABPm00lkgkIyIhJ9HZyIANiU3cLTHLn8A/BD1PfAfgB+gHoD+ofxj8AP0A6v/T6G7OID/F7RTl3jP7z+4vtSV1/Df0/9ef3D3Td8nTfnW87/8b7pfe3/t/6v7g/0L/1/7f/SPkA/Vn/g/4L/D9gz+s/9X1Bf1X/A/r970X/F/aT3Pf4f8gPgA/pP+36yL0Fv47/xfTY/cn4O/63/zv3G9q////9L3AP/h6gHVX9AP4B+AH4Afv73+FKtY3x1kcNGCtJuzlEvnRMZLWN8ZxFQB1kjTVqzatV4fLJa/ZuUGDrcrdSdbiYyWsOMV1iS6yEbqenSz+AqzAMXsqSOl2O18xbMBpC5jEiaEOgMXsqSNuxNWbVpny4h86q1jfHWSNNVFi16AxzgeNPznMhggUS+dExktYoIH4pDU/SJcMBwaG7IXzcIv36yRpq1XDow4bhDOGHfd1ORaFHa+dEv7OQ+vES2qstSi44FGcw/J0Uah5ZtWrMsMfgicYPJFe2NvnJgsIRTjlEvnQ/+y+Sg//Gojd+JW9mEqbbeoZszjSPKYyFpBFEYv+tzEg9Ye0rKsPWqWqTFGpDOzgGDFnOkuwakFBjxmL2VOW9erMuWp390s2sR5XG186Ji36LZq0r/1NHIPsjhANDW2KdnKJVWO+oi7TkS+JmpQycNORRMZLWNqIrNAL+HAofCViHAEFwzomMlqJTFIMB35RvhIDmC0O4ryRWvnRMZDVzHKRpq1ZtU4AAP4sPCYeasmGhwFWnEgCXZQAnTxeSyEcvxdqHxvfPst/hEZnjNSL+y7HZxlH0Sybf0uE+AACLqhVLixfAoZ8phvGgFj6bXHQ5y/GWxEfqF0HdJ7bBnLIowf2iZ4KeTopw23+wvxPv7m+AC0w6rFeuK9cVkL7wekAZnG6CTpdUTenI3QuZsBKrAYweNnm0GfaHcrN9Dw4ZPEeTd67gm8KWqqcClAhI8SWZyW/1+tm7LgL4scW6tQ6JRaA89XAiMf4TEzC+Z4skU4lAcjFt87G65iTr+SvVpSTHa0it1vKdVPb9M0YFr/6/IKYVwJnoVSWKLMwl9FhuPHBvwv1uksAouBImhESrg/f85KC1snAwYY/kWCNuV/daWwLn5aQP2dgsgEcRuMab64LHisbsZgeQ7OLi/2/wTjzGgs/4GN6abyCd0JB4qmkG0EnmrPH8xzb31/UbV/p1M+s4No74Iye3L0cl1zBBAxmGCNqmIyYo15i0K20onbr70Od87fCBkHhnnnZLuaWtU4Z1xHobWyoGJr0uJy3XgcDIOT97MVscqLNy/rqfiHz7Xqb9hS816bp4d/ao/FfX8RWk3W+ahfbBtmSfqGP2qb2DcTGMtbEeOoWQ4pS4AASSuXCoL5j29TNw7ua+LttfQKtTXRFNMeMxXpqjaujTBu//Da9/xy19K1RvxDJhBstHFone4CaEYbmi5qWe0gM0fZT0xpqeYgRR2/e+FXE5t21iUAFU9xNLKw9Cbf/2Wnclb2bIVKDUeAD8p9fbzhcuIdPAKhgIxHlRry70C03PjMqgyVCB76NumY2RcoiDDCmJ8DfJ1YKCPEAVE4pSOZxLTtoCTj6Msm5DcasPPznCRGI/5x1ISETl1n0G3jAOfrmPiYXpxM+Mnn9Esppe6Qu5hRRoRAtsjZli27ftKVkM83CvEw09ICnSxxZYYDdf3cHXaYnZS0Nm9Ndw46zbY2eVJCBe44+4BshMc3C0fpLSgkpV++6YjRk7OsXTQDaaWL/X9yQVFnmUbqvCNW4+nRWtanEF8BPIv7rsBQgwuQmLYlfwo2CCc4BuR2EFRZC514if2vAHIBlDaL0sP7J6/9ZDIAtJBxkjD5n1u2QXPcXh9d31ItYJB3r9tpIR34mGJ3vUcFoZKINE//yyTEQUFgfct+9MsU1+c9kG0P4K+C29b9qyzKzZ+fiKEkphuJoTpjbttNOlf8zA9zNsGYmlAEYD0VgYU72WAASTG9dPytV/5JA9/yMmi94eoQ3Hv6pgjXi8WISOWkBgpvnIPfsKeXHJKzE7we6QY624CYCIFupfvnTv2hnqddC0L8aTGGVnUmbXnDOrXxTBZSY+N36OCNciJ+DpxEcV/lTBKMx5RBY/2nSiaFXeAjkrxVcYtauwvMkasfo/HApEk2wbwmp8m8C9WNKoe7z+fwd6y59LQR0FhZ5SOLi9YXqe1NnEOchNFvUX8VFjKdW9NcRUikFCb+U2EDeI8uYTFpf3B6uKl7/v5vkyxP1IzlyHVAX6r2EGTGmAZ+FEkpgnFP7+zJLUT8ETsvgYl7ode6MbP/XQcq5AERW5JPDcEDzPFJE1Tl2v5Rlau2PYm1tEHohYKiAWWq85RbGKUMmd5tR6pfLTQx5wBMPk59y5h3uEAF0b042zwAAAAlbfBGGI6hf8RUV2LujGJOA/ddbtgl/HV74EuWcMhC4c3fqbTbypPwk0sBemQ1E9pE9fhef6eWqlCCM7qnt2eE7va1V4h1eC5JWkIlsj0NxYO8jCZl1f60cBszgtgzQYbcWG/AtVYmHNMkm+kKE3ekoujkOgIvjfxMVwCUFrWPPDv9jIWwWvtCp1Vc+J5xYnVyzwnLDLnAiMbVX0bu5Ewrm6/lQI9/t7LgauMZGe6q37FpvuExL3JoBaovs/8VDlt9aLGxu8VfAW/2ZxNSR5s16ZsiNMw0SWWtILZEJIktmnlYI57F3d7FwFQk3aulg+y+zKRTETwc8Rql4s4od9NmlWXCoPOCrUmCrnWMvUXOXT8GcL+ZcXh5zQyBrwrZP5LzzUZiP9wQGhsROmzNBhTfXyQppIqBkuox757fa4zxsZHgQwqM3aK+erb5LOpZBdb976jquvTnuiStoNdhwTyGPNKbzLjkxmklqY2oOWjwYKK8jc62JNHAinWCj28F8HmEd4/Nv5ZYGQ3O76FjoeYEc3cUu/+LfuQM3JQEN6cWOGkEjkzowH3dHKRLx5PSnJHWiZBQAhVyLeYACAwE4+SHiufjvtsw5F7YfNQiG2inCFQHj/aUfjHGay3BKTLRUwk/EXCxM94JVLTzC4gjy+ichDORujn8J4DjVT/HXTnqcDn653WMWHOVufa84DuBfu0WyZDvOUIHN4AAAACNj07QV3Xhnrr8Dc2PIBdq72a0gZTgFz6nzIoSzLdlE8Px1qCYc/yMHKJEcIkmGj1t49+znjH5b0cc+clFSKMIh/COI43hxufKWNLAfNPi31gRwYEZUKYObv48Cf8ew9xqQbgvY01f2B/h4hf3LKGmQQQlk4Nkm1XSNz9m1JwMX92KKU4di7o5cJdXMyu10/+TUcyP0JANzohQfI/BHf5EshVZHXjkYYMjAZ7tuZeU8B0BSeBtF5m6N8NRX2jPW539/SxV0ELm9oRklINlTfdMpsrCnKWuaGSo0EeWFoyVxtO3VypF/prdWI1Jnpx6iQQ/odgb5ytVEGDHdoXS6hljVFD7sh8hA39ls7C4iiF2BzyjTRm3bFske9UzhBbsQOhBgcWeiLpvWfeF6rrj9VdYQgLftKdfyhrhZweu7Luba+oy6aBk6Gup3Ipwu7iR5sEmDz0INyJgdKRP+SbR+lVlwxCTDmdAIehQvxEcQYSBBA0y2895SzT5tvs4y3XdlC/loZHIYrbCScUDSeB6XXojZOTXCoIsfpM5LbJFfF6Zqqi2UGZJM2I7+NuSiQ7KALscepU/zm4iQrlAKS8CMIv73if7W/+rCCkwrBi+7m1p9u5pEi6YMBz999W6zru2MJ1q21Cb3mxlZrsFsiKhEPNJZngXZWGRf78Kk+FEObleRRcCPblU6zxg9H73whQmXawPJXMHiwM8OyPdywDtVk2RvjNytZYVLr+eqXH5ReJic/NT5UpHovBrgHc0IMZXY8qd8XrvXFWIF6cBpMoDYc5o4yKzvYudN71PIC6OyyyXtN+rgaP4b5M/+gaW8481RpHqR5c035sBgnLly1t177hBZ1Gk8RJaIyKsVlmXXmSgFUVRdskO7QYTz7c+Pw+WRjE9lJ/AEERTxdMk4qFvi/3hqbxUkOjFkKyTeaV1SnGrhRuBEk4X/2YjJAfQ5PseoKx87s8UpadXRZUO2x58+rtFgGUUlyD4pzdCn74f+OVfhB7m7pa2TaAm7GBBoAbr6o8e7oGlaWVGGEvYhfGJ7K7DjJ/+5Km4AAAAAAABFWElGugAAAEV4aWYAAElJKgAIAAAABgASAQMAAQAAAAEAAAAaAQUAAQAAAFYAAAAbAQUAAQAAAF4AAAAoAQMAAQAAAAIAAAATAgMAAQAAAAEAAABphwQAAQAAAGYAAAAAAAAASAAAAAEAAABIAAAAAQAAAAYAAJAHAAQAAAAwMjEwAZEHAAQAAAABAgMAAKAHAAQAAAAwMTAwAaADAAEAAAD//wAAAqAEAAEAAABAAQAAA6AEAAEAAABAAQAAAAAAAA==;" parent="1" vertex="1">
          <mxGeometry x="259" y="309" width="56" height="56" as="geometry" />
        </mxCell>
        <mxCell id="GJvj-thQ1zYraej0EQVl-10" value="" style="endArrow=classic;html=1;rounded=0;" parent="1" edge="1">
          <mxGeometry width="50" height="50" relative="1" as="geometry">
            <mxPoint x="360" y="248" as="sourcePoint" />
            <mxPoint x="410" y="198" as="targetPoint" />
          </mxGeometry>
        </mxCell>
        <mxCell id="GJvj-thQ1zYraej0EQVl-11" value="" style="shape=datastore;whiteSpace=wrap;html=1;" parent="1" vertex="1">
          <mxGeometry x="413" y="142" width="60" height="60" as="geometry" />
        </mxCell>
        <mxCell id="GJvj-thQ1zYraej0EQVl-13" value="" style="shape=image;verticalLabelPosition=bottom;labelBackgroundColor=default;verticalAlign=top;aspect=fixed;imageAspect=0;image=data:image/png,UklGRo4zAABXRUJQVlA4WAoAAAAYAAAAWwMAPAIAQUxQSKQMAAABsIZt2/Im0pPUXbEWGS8UJ7hLi1uXCR2jeHC3Y5cWdxvBOSju7u7uuri7ay21vCtISfNm7vfJjy8iJoA0/2v+1/yv+V/zv+Z/zf+a/zX/a/7X/K/5X/O/5n/N/5r/Nf9r/tf8r/kfqs55itaMMpq6DPhwH5PJ2KRqkVBPh46Qqm2GTF114PJLkeUptw8sHte9aSFXhwr/6qZxa84nCetNv75+XExhJ8eHfI0GrbktsmnioT9bfMvoXPNViIhoYDQa25tMPxkjahiKfpPb9Qu4VRqw4YXI9vfmtyzAery/NRiqR9Q1Go3GhhE1DYawYL3N8S5nGjVv28XnImvfXju8bvbIns1KBXySe+TogynCZt6aHOHCbYIqthk9b/PJ+8kiK19dP7p53tB2dcK9st83UYNX3cgUVvrm9KrxHSv7UVjPLUnC1r5eZPRhMp7V+88+9FJY6auTi2KbF/fIJjl+jr8vsuNTYaNTVjZ05i65oiYdSxPWb7m9dnDTr6zLJXLsGYuwO59MLMpXnCNnXBfZ+s3esVEhVlJu8gthr55u685RXOvHvxQ28f7KXganL/RV3FVh1z4flpuZODda8EbY0neb+pVzyip90/0WYfemzi/JSEIG3BU2+NUKU94scIm5JOzknQYmUnZVhrDVlrOjq7l8kk+fh8J+tqwIZyC19wgb/251m6APuQ14LezrzIXfMY/ye4UMMw71yEPU6Kawv9P+9GUc4RuENDP27RX2+aOfdUzDe3yaQOjeIiyj2QMB0vQJ7uwiaLkA6iUDs2j4REA1Lc6ZUbhOEXA9FsYmQo8IwCa1YxLVngnMznLjEMYUgdrTBfhDj0yB2xe1mIN+uoBueg/WoJsm0DtZzxd00wR+V7uzhZkCwTu8mcJQgeGTOVlCe4HiawUYQoN0GIlboezg+7cCyFdzMQOviwLK54N4wRIB5pN+nMAk4HzIiw98m4Ansc2ZCzgdFIiezAX6C0x35gFfJ4MqPZIFbBCoflOQATQUuL4RpPzcbwFLbFZ+PQW02yg+72fYeptX7cUJcO/UqbzAt+gSzVVerID3Rb26c3uCL9FM3bUVAD+rU3W6iwgTDVRdTQHxlapuEcZS/NWcfzLGRFs111mAfK+aO4myDH8V942AeWMV1xdnf6i4Izi7oOBCM3FmCVJvnQTQa6i3NUjrptyc3iBtpnIrL5B+RLnFQe2VctsLNeGl2JwSsBam2IoLrNdSbO3B1lKxzQZbH8V2HmxD1JpzKtgmqbWCAuyz1VoztK1Qa3FoW6fWlqJtvVo7gbaNau052jYpNQ8L2rYqtTCB9vVKLRJuy5VaG7jNVWoD4DZNqU2A2wSlNg9uQ5TaZrh1U2rH4ParUrsGt3pK7QHcyii1l3D7VqmlwM1DpektaHtFKt1LoP2cUguA2xalFgi3mQ4tcQ4tvyi1ILiVdWgJVmqBaHtLSt0TbafUmt4CtsVqjcxg66/Y3oCtjmJ7DLYQxXYLa89JsZ/A2i7VtgFrE1TbTKzFqLYhWCup2jpALd1NtTWG2gVS7WWgtlC55YNaL+XmZEZaGeVGl4CW5Kre1gBtN6n30UAbpuBaA622gquIswxfBReIszOk4l/C7C8ldwRm0UpuLszyKrn+KLtDSr4uyhapuTwoa6Xm6BnGLCGKbifGzpKiH4+x0aquBcaqqbqiEHvvouqczQhbQ8r+LMJM6m4ewgqou14Au0TqvibAJiq8QAu+IhUeXYdXkrvKWwiv1aTyu8PrF6VXHl1mX6XnZgbXelL7J8EVo/imYis1QPG1xNZmUvyFsNVG9eneICs9WPXRLmRtJ+U/Clkm9RcFrIyc6i8EWHuIAd7GVScOsABWqUEcoD2sVhIHLASrBixA9wxUT51ZAK0F1XjigX1AVYwJlMXUKWKCzgmQ6soFaBeiUoPZwBBErSI2WAtRjfiAZyqenrnwATqOp4nECCfgqTAnaAKnvcQJ/dPR1IwV0FEwPXLhBcPBFEu8sDqWUnMzA9cEKC0mbrgFSpXYQR8knSV2WAxJ7fiB7gmO3njxA1qCownEENvAyPIDR8gPo83EEq+hqC5PmAqiCzqeEAWiFsQT/TMg9MCFKdARCPUlrhiHoHd+bKEUgsYRW9Q9xo85hC9QPH5mEGNsBp/0bziDbyp6FhBr3A2ezHDe0Ac8q4k3fgee0syBLkFnM3HHUdApyx7KIWc9sUfdQ9xYyvAHmomb1cQg68MmsxiHcHuPmhXEIpeDJiOcRxhBE0880jMRMin5mQSthMwE4pLRiHkXzCa8kwETR3xyNV6e+zCKn/HSmRilTzJaLjlzClqOlvrEKpuAZQfxStdXUMkoyixoJlRmEbesipSEPOxCfw8oAyhLgw21Ghjb/lwprzNHoDE4ueb6Of7Vus3Y90J8POPSzFL8oChO6tHH3QoZR2y4K7LyTL8AZkCnUbKevAqUrvvbwPh99zPFF0wY5sELuqDELKz1SBgrCEwBiRW/i+IEtAxNIqM1J6gNJ5HRiBHo78NJvA3hAzQcT2ITI/jGgifxDz5A2wF1SccHmgBK1OQDTvcANZQP0EBA7WYEuVLxZPbiA7QET6IKI6gMKBMjoHN4iuUEMXgaxQlcH8IplhNQfzhFswK/d2gKYQU0EUwviBfmT8PSTmZAi7DUjxsUzURS5lfcgFYiaS2xwyKZOEovyA9oOY5mEUMsnImipBCOQEtR1I9YYngmhjboeAItgNCdAGKKeZMAlFia2OIw/JgjiS96PUJPehRxxtbgSfuZWKP+DHQS6hJzrI6c52WJPS7GzflviT/meIGapV7EIX/FTGovYpKbEXOpBHHJ/O/hYvnTg/hkF7RcrUacUr8bKuYhbsQrcz8BypaCxC5rZKDkfG3imLEYud/OiVimfhtA7nV0Ja6Z4yE6rptciXGWTUBG2soIHfHOyFRYXB2Ym/hn80xInBoYTjy0IxyeLO+Un/hoLBAyry7uUJCY6XgIvDgW37WSN3HUAZa/Ucnpn5Fw7eCqyf+KNvgTY22d/veprS5nQYPBYKhW2fBd/gBXYrHVn1nViUR7LpI4bt7jVjTf3Zhmx4WxHHIbnW4lb9sQUVSq/ebJc4jKXrKKHfno/xua7bUXxHbd+r3+Yg9a6+jDhpt22mW+QxQwLuWLvOjtTp/ot8I+O8l5iHL+826WXe7jS5/54wN7bB/vIXJqNP9ZFryYXZGy0HtMov21mfsQkb5M7Irz5o8kX1vRtYiOsjho0HN7awUD+qBTfoOhfESJYPrCHp1vWl/GujkSm8eFrNep7synVvVweD5qKbGp3IqI9FUm3bKSc8NK64ioucTGMaz/z9N01J73X8RybUGnAvThxhIbzLT+3ymsQfc/N102f07m/X1zB9YNoE+tLbF+jOujutBiVRu1MJlMppgmNUoVcKXPryqxzvzLCstJLIbBFZfYjwwuTGI1GFwBiRVhcLkllovB+cvL4sLg3OX1mhi8ziKtaxyOkqV1mMW9ltY6FvdAWrNZ3BVpjWJxJ6TVm8XtllYLFrdOWjVZ3CJpfc3ipssq3YXFjZPVHWLxcbLazeN6yiqex7WVVSyPi5bVLzwuUlYVeFwJWeXmcSGSStbxOBeLnE4Tk38tp3gud01O3bncQTlV5XKrpWTx43IzpHSbuPwwKa1hc92kNIjNRUupMZurIKX8bC6PjJ4Qm9clSWgZn6MrEurC6LZIqCij+0s+L/WMrqN8lhCjrySflpzOXzqW3JyOHsjmDLH6LbIZzOsGy6Ywr4uQzFXi9T4ZchnO7OiMXMK53WSpHCduX18qndid2zuJpASwO1omkfnE76MlUpLh+ZilsY84/gZpRLG8FrL4t57l+ZklEU08f50cLumZnlEOzYjpu7+VwUEd16O5Esg0ENuPkMAs4vtOj2ze4wDGR0NsXhRx/jypNm4p8f7Ftu1eEPMrZbFlqWWI+6+1Zd2I/RfJtF2zyQFwmc3a5uwIkD/BRp3xJYfAPrbpfDA5BjqfsUVXcpOjYJlU23MsBzkOdrM5O3zIkXCpjfnLmRwKvS7ZkuRW5Gj4/WPbcT6cHA9/eGwjMsa4kSNi+DObcKQMOSgWfZ79bjfXkcNi3iPZLGGIOzkyuk7JTi9HB5Oj4y8J2eWsyZMcIL9bkx3MK6qQo2T5w1Zm3hjjRw6Uul/uWs+b1S38yNFSH7EgyQrST42JcCHHzICOR77I600Dq3mSQ2euRsO2vfq81IsrhkaH68gx9LuGMT2HTVmybWX8H8P7mZqGOZPmf83/mv81/2v+1/yv+V/zv+Z/zf+a/zX/a/7X/K/5X/O/5n/N/5r/Nf/b8VZQOCACJgAAkO8AnQEqXAM9Aj5tNppJJCMioSITqIiADYlnbvxsGeGNx2L5ngOzwux7D/AelnYX8d/UP3/7Jup/tXzqPMP3L7//fN/ef1J9yP6h9gj+q+nP0D/9P0Aeb3/0fWl/eN9r9B7psv8XkjHi7/Tf3bxM/pH+L/tHpX1nfZvl5xHfjn3X/kf4H2z/zXeX839QX8h/p3+13kW1f/S9QLut/xv736s30XmP9e/997gHfleEX+I/63sAfy3+5fsB7Cv1n6DPqX9sfgZ/nv+B/7vri+wb9zf//7sP7lhoA75teB3za8Dvm14HfNrwO+bXgd82vA75teB3za8Dvm14HfNrwO+bXgd82vA75teB3za8Dvm14HfNrwO+bXgd82vA75teB3za8Dvm14HfNrwO+bXgd82vA75teB3za8Dvm14HfNrwO+bXgd82vA75teB3za8Dvm14HfNrwO+bXgd82vA75teB3za8Dvm14HfNrwO+bXgd82vA75cEtsdv2vX0b/evF5xaxhrkgLCrMowII0NMtG4COyfiNJGLmrWMXNWsYuatYxZ22i/5fA7+URH1coSmQwbqrRSWRjeMBT/wUnPP9Z9kJ4XT/2h9XcoI9tBCzRa9xMXdp8lClDkVPrFCUoOcf6K3j9VoOHtbFC238k0fXHZbV9ZXmrWMXNWsYuatYxc1aQHL+RAOIfhq3td3KY+X+7GuQ8A4DYX/DwUqMwrffXjDw9PTwiXRSweetzAT7oBuIqu5V0AQbj1jsQZDvm14HfNrwO+bXgd82DD1qii5to3WdJ3ugtBdK+/9cgfiNLfAlH70CkldXsDHP4rSBkA+LhQmqEOfvVg9RNJGLmrWMXNWsYuaCRWz5phH5qny29VqRLJBOeLIxc0DrUeLZSHiqbelA3QrhUznWz8b314HfNrwO+bXgd82CTiQfRzrObvYokVN2/0cGgr4HqI+sd9nu8rCVPpHidby6Wnmvm14HfNrwO+bXgd82uulUTFGOgy7+Es4b28cHIv78sVp2c5gSWQ8unpRSjDW/64VUdepM/LMprThCCabmmxlih2fqT8RpIxc1axi5q1jFzVo26fpJm4bJ5a5q/0BD4kjmRsGJH6uqVTnrdbqFsOWr7NPvae8C5vMFUMC0AO+5TZ476i/FA5RSmXEvWK/+JmdnWZ1TQPUTSRi5q1jFzVrGLmgsPStpQDp1mjRwaMZ0po6vgLQ5UGYKUGHRl1buyDaALprIKYmsIAvAljJFyMaiVcf6VvfXgd82vA75teB3s8OUPCZz/jfsVQclk0Yo5mrwli/xRawJSptjAFOGq0Eqx0GQZ82kT3VwRa+/tPxGkjFzVrGLmrWMXNVGcry/ZkGoqwwPMDZFMPDaCL2gRCNmBShtgoZjUJFlpF/wk3vPv/ehq3YB5GvgeomkjFzVrGLmrWMXNCr+BbEoBfLR0QbUjJyq1bdR64WjQZpe3swPrmAI2prQcxxAkoVeb+JEIDYjI1Uc1EvA9RNJGLmrWMXNWsYuap8pLbBtQT4lf0AkMxR2HYDrfZ4Rp7DNOljtDvYjCkBS3DxJq61yLM8Xu1IMJFDEVA9RNJGLmrWMXNWsYuatXcGSTOYxxvXYKgpo/4KF83/syJ/lRGUBs3gjCtVccMI9/Ce+LlnzZx3w68F50vc1TXHuMnm14HfNrwO+bXgd82vA7RWpCKRnHrnppR9JIRv0AqEn2syqLR+TAlo1LHVCJTowxWJkL+3h5jKqxbZJ2//TTFv0k3HAdWvyVfqGb5OnWYzkQbBli8Dvm14HfNrwO+bXgd82B2Nt5/+2eUqotNH13M4GB25lltgYMceF332XmuxQkKYWX75pK93VRSoqPltVGHI7P8XDXwuKlG7rYJB+e/5wEs9Xzcwc4BB3XKwsMXNWsYuatYxc1axi5q1dqkKbKhGFVRIdfYZnVdkBceMAu8K/3qyVNCv+o7Elf6yVVpLSO5nVoShZTPw9Oq5143+G6Y72QeZ88Zs0b+HHIDvm14HfNrwO+bXgd82vA+PO4dDG7vM+MPnOl7OjOflAcx3UMC4uubQP9lf/lRGkjFzVrGLmrWMXNWsYuatYxd1xci1kVLVqiTPd//F4bpisl2vA75teB3za8Dvm14HfNrwO+bXfucMNjoSv4QGbeinPF81axi5q1jFzVrGLmrWMXNWsYuatXbmXZPNaPEdKMmnLQC6bMnAHfNrwO+bXgd82vA75teB3za8DvlywP9BH9JmAledZLnbnYoXvcGMzteB3za8Dvm14HfNrwO+bXgd82vA72NAfpo/PESijPwqvAMg4v8RMLv72EjeoJkYuatYxc1axi5q1jFzVrGLmrWMXNWkW9xsz21/VSRMXgd82vA75teB3za8Dvm14HfNrwO+bYJejeomkjFzVrGLmrWMXNWsYuatYxc1axi5q1jFzVrGLmrWMXNWsYuatYxc1axi5q1jFzVrGLmrWMXNWsYuatYxc1axi5q1jFzVrGLmrWMXNWsYuatYxc1axi5q1jFzVrGLmrWMXNWsYuatYxc1axi5q1jFzVrGLmrWMXNWsYuatYxc1axi5IAA/v/ZeAAAAAAAAAAAAAAANZJXE+LKamxgbzUWfG5BeNlBQzXt/67A0otzw3B+MygYfzD9UFEfpgCFOkwpHbY2Vp8uNm0frc2uyid3eaPT9I5CgQ649HQEVGLC7HUCOgSxzeUZBOMFYXmK1wAFGZEv1kk3Xy7IwNS7jVCLpcJS0Jvt7RZ5izhWW4MRqxIno8ITK7DF2KGh19ky0pcyg7Vd1UVgEXQR0zEQPeZYpRb9fSQE6at7m8yDmcMrg3g36jC8p8ql/zCeD6Wwr73NAqczFoEEPU8u2tvE2uzzkz/8AOo661wbn8lJ/8kygZSKlxw3hAjBBEbtbB37HwXhRFQJPVq+U9g48WC9zPOozMLpnMNKHt1m1bDIEnbbc6ovpnUR8WSSm5j6XSlWrDC4HVMZmK+crwLpQTmCcFmf/n7TnphWPdOGNGGiYYmfMAraYajEuIhN5aly4OS34C09sNLn1TBlvG89Es5Sx5l0WK4QABzdXlgUIdxvbZx2i0QQdvBIW0XeMM31M3pg12mDN9NdpgP2ir5M0a9+93WTWUjB6Mgm4Fl1H/wr4n+LYxYuV4Cp7iV18NXCUOibdD4DJflY1aH1VkNK2evgFLRUvuYiqzniUu28IYFlfuptaq9aLnBUwhbSOw39jVO+zZVW5BovmR2ZvvYmt+Jx46F61GlpfagS1Ms5PJYotN6CmdBgDRfIVn7N0g6S30PtCYzHcba/ndnBE6anBJJvqZiZM65vYSc/jTz+uB1+SJi+dgnQXNZZHM8cBxMg7Z3xehJdpsYN8DlVaaObYf41njm7S6clfbsjh5wASIlkVaBDQloFpuiZKAH2ickU4IYryfGFQp3ZeQ74ycaGOPl6HsOpp2tI+ZFt6wQcP4WDlPfo6flkYXiii1lmgxBnvKhJAcB/OgM3VJi1TnAxL6KB7shA8Yl3+V5Nz7bPQlo+/Nrz6Xb6gtMbo4issdJ+6BYM37yzrglK91XmlcA5gJsgBl32ogY5ui98cpmJ5gnJ498VAQ3LR+OBJghhWErDX53q509WBq9riQ1tRLZlb5o+M751FiTJojVOrreo3JHJi3kSUoUXamOBDqoP3HsTQhlnKngD/x6wtlU58aYa1I8yuv4+7wXF6dSU1cfHm9TAQosU+6CXf6+3WSCURpLd/gl61x4nB5xMseCbUHMc6Q3Py7ZEp/bY0lJGeL/z55tcg2YSJKqAlVXGCzHDauJ/gCFu9uCtNhvEGloTMFV5AdXGI2i2jBvFaB/onuVrbJJfE5eXuhx+vMf12Qp4NvC/XLQQVXBl6GNjhIwsbOCi9rlBK4wBUnmNXtUCFMtG099+5ztVlM4FbyvRBP3SKgHlKsIwA2LNLwJdk+12BP5dF9ToqTcfqw2VRZeOQtenTt2ZBfb9xqGuPWgTcxtwDwALdJ/NBXW9axr5MNdle8sVzHkMh44Fict4aZkSJEfrjBjhOLERfBapWtKAyTtDmD2AAI9DDpmubwqY66lP4Ol7hxJ7L2fi5mz/ca1Oup5GjEDplRzBgBElB3oEm+EX4X80L1lmHPXu62apwC2wgKhjL+oBuX9TfGt1Tq7kYrrwLLguE9aMnfS3xn3ga8xv8KdVe5ectvgqZYbnyX0oiHhBqiP1r31jX2lJCtngn843MtpF6vYRhqhjToNFtjfA30DgpwsurGu8pTBVuxUoOWsAHNx5Lli4+LQyDuHMUA/rnz8hw3ta0ep/Cn2cj/lxYsg6Mld+L4bljs8vzg0Cr6SNlKG4JcKdOf4tahbc8gf6+2Evpvl/aO0qHnJ1dTrs+liY5KMY72BcldH4wDQuyqKj4P0C0DfTX2UxCsNNNX8oG2hOLap3x3BdKEJWuQ5z2Xhuzp9aC1uMr4oWGm9cKIGVCGo30I+gFlSqj2OJn3M5NrgxGwhfMnuHCXGaCYwcBL7VQyAsE8vXFUGpyjvL0vGLdI1ijuhCDNWtfEqxQauWihqpAEcAj6NEDC3Jbz+tK3jefIqEXPiYlMrEraYPrJfiABjO6kPOamd8cxFeneo1W/JstQ82y19K0BQGyqoQoZo6th9NJ+/VGvipEptFM1lY8wFmE1KmXWWNvxSaWPPvYoAhYlLkUjI5JShe4h1jqF1EFVOqPYKGhVgvNr2WcrR9QPB6Q7PT3J13fc1GyvJv3uUn/q+mPMZaA6V2rjRlmDRwxSE9gxYolr+uH6RFHMLERd1i51sIPuMkI8Ql4TvOpHBoNjgllfM61IlPg2S+W6R5SwAFtM564/h0EDuFhAHOadLwXmhba8F0ORnWExoesTqd/EnAAZ+TSOwaToCI74x+5IMSRChYsJEIM8v4eG/70Z3AFr+kvlsxIrn6uRKIj6Bh0PBfNUjdIxDCvSznhNfADgvmMNy8T25BEKT740DD+3FtMuht8NwaigOEEFwrCyrCra/kWNRr0tZ03npQrky+Q8MgqGK7zNVpmCGEXlyKPKu7zPCCzmABLPW1iMfW+nnpDSkw9efr5OctasM70KFrPL2NE8nuH47+hna2uBFxp71c7Jz6RlIzoo6c78e8SNLKcb7aC1Ot60ew+MsS9wRDCtnhSdciyfoKUi2Q6jEtZzhtBREcKccb/NDr3RBH7WbbU6auRgAfEaqUZem99QNAPYMd7smq7t/kLVys/TKMBNybK8Iw8q6HChnk/zL+RfSC0jsuM4MaJmF+vIEAPjfMhEzaEjCGxMiFqBvzpymqx7q0g0riXGLwLIlQ43Mnae5rg9UJZ+ZmLpdv9jpV0gYSt1WApOKO9l1obyyGqeobyyOK9aBz88Hc+KRbR/beQRl2kVkHZToOSoj4q6wnf84wA/DP9KPWUXpdj8+9S16lG4UPQoVVbhoP355w0IHnH9GVIszkFCDaBbcpXg0WjrT5Erz2K0jyAF2Xhtj0hRCm3281Ysn7Yt+n3YewfMudo7Z5hslE+HRb53Y1G8GTQ36WfPZawyWRn1t3yiHaFBD/GICEfD9cU/YBR2pZTiHX66+Q3OioFJgUuDqtsr7KSzR5zX8y5OxZkI23AweA3eddTE5I224yhXBgGLNFGkg1L2Usqk97fiCP3sOgAl1p5FvI4PTEHVZh2gqpJfSTIvGNmEUmC/mhMob/2D1u2oPN4xRE9hZQmUaIi7Itx378Ih1Um16VpVviysj+6wtH3ljMxHuAf3IrvgPNHrnTmj7AOWXfMdjlgsMLnuAdCx2oO/6U5yKxnUfu8ee43l3dDOMJhj4knmc4uYJzBR35AF3XCV4F1fCMGbScIY9bgazmd0Em9kbwOIGoyADZAhrHQQKxBcLPIjF4uxCh22uhWmQ0nkbVaiAzdlY2HJh6BptYkMh2OooCR3rjtPYCEeyUGCEW5TqBIwDlbIra/KOGCnUn3oLLD9wbya1We93mbOwDjuASKgJPBL/1D6NdKlnS1RX7AOfSL+1Jq2UP3VfPmgzP4Hs2AEjOZHa/gIgN7DX4U78d8JkOnkuq3luy5daEMsehVYAZkxT3L4qxFAaxTO91ntD5nVWX8sU+P1gPDZOwgY50GMvct1ClPTMYk4uoyvaeq9B5umJ1FplTNf+SyoOUfw9WY7ZUC7tKhzGfEL560XshXmxG0xPz92mnYZNomHLRpYyyUa98I8+IxXJvJNth+szdzgVLHNaWC0Y4vvDOiG1vvBbUpLR4DCFBhPgJqT9ZGlxtLWeHEZ5jbq3V/bYu+2ttY3tVjet/M/wWBHqeDkCb7VVlCmznVdC8CU5Z1QtFolRBjXfTdAJtC50REgNdWUdXCPJHhX5hO6ElEl5TYVnDHw84mYjcAD/JOu6N5Ki2nRyPybcp8Y4KU/CdkvRd7vrZFvIMYjJit/7LO/nb9DUXkGFXwjxVJMIUOZ7JzYDNrS4QAW+pMWk4K0lbKk092ly0mf9H0ZoaySRGb3S3YDSORonAg9ya5T3foso5py+aMQ/wrnxdUDNljUKPxPXd/0JHSFD6k/UYh/iiPZzdf154ycyUfC6lF0DAXZeTznkjySiOisZ7gdnsm7fGIaLrvpGItNu9reSCqBQLivNTSEWYgM7GsSDTy0GwNB0ZN9J2rcLYsXYElwO+bXZjrNaUk7/vOqn5K9KYBt3zc0QThPRI2HJamHLZOZYddKCZEjHC+6eeV1ol97zew/1Kb+cvi2n0G1pREmonC90TnoWNJe7+wHQe0G6w75eTn2b7dUtJgXbrI4oB/wwm+D12y6rlij+Hf1vzGpaKpG51KAYAP3ZRz2+taIEVoWLS//gClD6nZg68AVFnwZVqtOXiKuHeh+4a9n8B7fP6Fx+K/TkvN2whT0YxonsLBITd08b1VLeUJOW6CS/iG5h80bEYb6HUn3bSwuNDt9l4gqy2WoDxjt1zrCBplP7DqnXPxCe1Mig1eiR3VUcmdvAHvjFYSPnh5vyfn+moBw8oKb10C3byblev0ye3pYEeiFq+M2UtNR90/hI9U3c41McoRU3t9FmBqEkGT702bnfmkSreS0rzIYEDa5U4XF0OyesRNum6qduj9lnfAGPJlJPy7uG8R9s5XkxEiIuuL5kyzhTYKUboBQMJelRauQMnSxeCwXco7BdhS8y1kTrjNpDt+LhbRL8N4kLqjgqePXsAmNtyd5Dl1myKqMiJqgC1qqnZxsEMSdTEkDQehoZjWvlVMLjvFdJiDD06W0S1B6dz0v0e7vTfyuoWtcwmg4muUC0S3DfUMy96rGakH2JEACwoKleAlnZq8oyR2c9kMSxVdETsi0QKD583ozd2kzR35ZNZjc/cyytcyxkPkLhZEZ4DW/hfhZevnZIdreB3Rp2oP/nCSPgXKt5viTxhCJqC5tB46VuFE7mqri971LJgUiYMFUrQ5asapkuWx3XGU4+9igD787LzRQp2UeOb7onmAZGkHUxABOWEzFf+3y8fmHa14pRHKh/RXJ6gENK46NR8CszpnqB1BBd+Xr04cOY78c7r4T7wuorD4Ehj7VfrdhUnuuiQDY/hF1J5h+MN/tjS8nAiwZR/cxkre2VYbyYsCvDbxrGmYwj3xcljrebJF6cOKDJZrhdY95xFcw3vnbf1DmkOLmc932xBtyNM3mQ6fT5tEtT2wyA/xPBXeu6qoj5fH7nLDk6S8Ap26Ofsla+xdszsXyuYCd435NzAVF3JX5pT0MHaYOtzeLY5/50zL6RQAnKEDhRytRRafxBbVx+4x4/EJq9rZ4ebapD4hU/Pls1ax+mC8GaapMOhXEhejfGN7hXLj/mZI30pmttrHgKnhV3CuQGBYNGlEc2uKkBzsrM9/cKYkTEf60reuNOrIeS4FFUEQQadXOXC0C4+IDgTjMSHtmt5rwsQXvUW6Fcx3UwrudHyzulVVupnersxd9Z2Nac0eqDL2UogOqdpRgNEb4k6KPRus/JW+DGm0pL3h/vwXtHeNhHY5hnDGed0EMjyOJ0oduICJCZ3ML/3cZe8rMJ+Mk5IOHK2v/8QpEFkxtfkIT4Fh4FXno17t9FBF/asskqjjsWDSAbkR2Qa426ouHaCC4VdOOPSVtfyZWX0BljkMAjlacn9luP8pZpetdt0LFw741IACWuGWc+9eKTBAOVV5h+nOi15gvwo/UPtG35vaTldysfXaTWFAZiumSnGhipMrQXLICZAsZYYB9tUQlg7JhMgIm9UfMJHYhvtoF58w0kdAEzCOAKJYzHsI9e2SKJGb9tbkF6N/zeMGEQEDyKieuO/pUZddCT9wrmP78NvT3rmHL9T6crOqUrtXZWOAPT8htdDBQMwBBJYXUrv9hmiDP31FOXfxjH5qkRPmYJAeoakOkg2PueUblFrdvroEQisiQd3p5WAoL50aQcvU/wORo2WzorU/SFZfaz2OryMAEMzMqHhHGXe7LU6uqwG7uEGsjnZrhEt5BVWC25AOUZET7RnFIMRxaQyvd4FkZWv/OFvkhEvqaMzL/3g3xpUJ69RTZJ5jJxuxd2ZFMdUW86IJQM+V3UIjLCylEpP/4K2LcXHgs9owLx8UK5nAzonWDnZY9e9AcHUyLNGPVEzFVTBdiITsthY+v9eyzq7bWgAA/Kv/9b7xNfugWj7/R5St1lZm+hLBASo0nq7Kehrch6mKcRdPgwL/ap2ernOvFDpRH9P98EjqfF8AmpQ20Lc1PCFJcQdYaS6rI9lA2iJiw/JjbzdLQBMdMYPTWtWW+sx0K/0TNgbC/CCc6gG77SV/PRNluAraGgBJwmTxulT+WY1WPqYFHskY9C9sI3ZwYc4OpoxVotUVOK42nw7xLmAywPDSGOnUv5iNjshO3ZJWwwe3Y2c9IUAlBX5UohkzVqB/SOqCbyyP6WTeyDXiHxHgllmRjQzGAlKwzq5QOP/7JtI1oIpWsNP1Ht18ec4ehyWkj7MKS6Jdr1T9Ly81KZy16NFGJQhxRvndW0qKR+4GBQ7CN3duJvn8WUe26jerpLzkqp01b3/ArTt9fbJcfef9hJwBwGS2y+vFB1TBuXbigZYaaa5tOz8Q3WIZfvX/YHsNeqRXrh0DvSb7lsByLsvsVnoz+xDbR0mC8Wd7JApo89/HFzLizHkr1PF6OHiH55p3/Q22/MGslW6/xZ3FGSKBh7KClEHJAW94ICk1rc8lWMrB+tk99KLzIidHWK74RAbS2rbnB7SLeENCe8SULPxiHTdKiguI8tHHz9LeohUcb3YqoVzS/A0mXCobBcTak38kuvgfbHDm1Ex/vPrfezOoViLhVnzZWag7xcIqPaxYi8u6ltQstJwfmsaAsX5ah2A9Y1kfLKEaycOqfUbrmk2G4n5q8P6GUMbmDKJfdE5E7LK1nNfpNvQg8KbT+UFWCXdBGqn0VSnJyhrEeNNFkLq6GouCoDn8BBD8r0FcujW0QqKYqbU1/M54tODLC5sikcaMAXBqPAKF7h1fEpNjTF3CotITrOeo+yoti5zoPDcM0LGv0pRrUnVWvOtEAzc7pb6Bu8dOqztREE1EmSdJ9JU0Y4fvX8c5IIDixN1uhspI6Mf3wM+3mm4hOfQUPOmVdKxRdAynaS/myc9eLgu6BHJjnLpDUUIOJ2Sn6jKoAA9HF0BBzoRzwSeK+92SjHYimHYxtqzUoyUWTEN34w5MrVmG6Tyzi/MG2cirlfOcy5806Wg/G/JBEOWPQ6D99EgSV6gqB26JWItB9v++p/aRhNoGxhfstfa+sFNqG30Xbv8DQjHqt4RgzaTOBQymMNNO6WUH+pPvJF1d47SteZ0urZinVozZZZLLGGEeV1VpmJiI5rGiQuIogPRJfDiacXeGwfjg/6C+CBujUumrT8u84ZgIO+8JLgFxktQmlg7US3eP9Iz1iqVHnGsH/AMpqpke3Jh2sXJIa8dm1DAmMFY5XP9xeGFGOPDBFof41uy9fpKZiwL6yVqFvrZVGMMG4uo3XrW2x1z/NhgmgHK9KdSh8M3LjwI4gPySl1ERi0zcDqKqDsdif2VbGKbuN6jc4oupSPBzaOzgmC+IHhiifGDzgdWP9L+7XuO9nMgS2G/HqrCWuBHHp4OV4Qwpf6qbX2f8MqvCZZXwiUb4b7RBV67pc2tng5eIhIdHHSJ1KUfnT5XkL4h3Ep0PsnXGKPhn4QtErwet0OGnhdpSNIYlazDtUe0nYunaR7nDpXIh+mtooeD1AWuMLUUaxaTQJrrxVzLsvBhrnzEKvCnF5+e+sFq7AlisGCQaQh0XD8NP3janCK27Uacrl4oLy1miUpFO8JE5SBJciaLSmFq/eoBLP/PlzG7X1FGhMhEJ16s6w1XMAfkOk3NJTZMU1r2ubSOgZEYQt2AI24ZSKc9Es/H5joawLwX0EyqAp53RDkRijkQa4ZCLsOomvA9KPoe4RUWBUoURGvDn86g9KrDrk/XiNFpLYH8IOK3Sy4v23MHgR2D8Gkl/W85HRwCfbgcHVCk0FYrzr+sB/jxncjyskjswRxsLuaX5H41z1Gspo88+tgCU19Qke4Fl0se8K1S+NGm7AzMPARxnVU1stNdAPGW7fNOQvJGG7a+UsL7hG/7TlL/Wn0VizU250G1M72+OgL2mT2CjZ6Wind1GcUfoUiCgsZWhExNuD/+b2nofIEl2w4u27YqkCaS7GMzHbHj+M/AAV51U+WNnXo8YsYbx4couNzApzUhTjhioL2X1XPK4DPHN/Tb70LjNKHVTgNrEfeo/XzPZdhrNw//N/eiPfgG6fQK1PhUoxrtD2IQXymDz4mf5iPN2qoTmAkN0ImitgL3R/qqSJ0igyskH0LCcWc15U6O3f5DHSdMWHJPnUAeiYpOzgwsJaAyE+5sb92HVUoo5rEXtA1unKJsE/J9m4fd3kFCAsRLqdlnXI6iyoqNAkDaX6Vvq/JYNsgWIzIeZmrg/QJ0rVvxpTQ2ppkKUKhreKTp4q4aSvaV/KU0Njl9DAblRihnxxFMD9J1Tx9g0o/59EDk869Q6y/yDNgf3676yDqA7eBjG9plhuVie50nR1eS7f21bvFSZQms/niDo2rnHCNWnNu3hh93vYqBCU3qs6cC3dN8PpYl7KQblB6GK10ABC7gxs/e3QxywKMeDb7/Brcx/oCUADf6JQn9q/OKM2k70GGjnh+1i5vhFDtq0h1aoHeUY7XdXkkSKb1bNibWq9T9QdwtmsliJDcZw8Di4NyeOG6+nP7iI8zTTh1aCWr2euFJ3ZYRYOhPv76vgP641F6qeloZ8FGKz3sx3zPc2+HcVOQL1QnOZwM6J1h9jXEUpIcfF6ClyAoT3hEzBo0p8BiRS7FvNXc9FMQazlz3pd+hw0CG7IV223zGvGyINwV4vOw5uivbRrnyw3w0qQFrZZu4Nmhro9DZ7NX5bnng9JgfDU1a5hty5gq/N2tF/EZcxwN09tqPDQB/Llsf6dqt26z20UurjHxE6IN+U7r5+z7MF14rIxe6+ZzaWK4ArntW2nUnOOZh7Ozw5lfQLlBFYlsRgSB0x86pwvhPGKM/F2t0muqko9455IgO8RimxEGRdMe34rzohTweS3rrkIK5hxsiB2Tx1Q8J7J/Cnao/55WHFsbdAbO4TLuCvIqjxj+JDmutds4Yx2Jn8/3z2mAW0i3pvvJ4+EJB1PQFR2zIEznnCvD6Urv1Vkiz6oQbVhK1GkelBcxhTsv6SG5JGLU2Q9f0bWPXqRyuZvw7ypW4UfsbsTQtqK0JdhoL90+v6RaZKPZ0kpvGRy8xEbxl5gABOD/+NwKiMAMyjlHI674fCYDEuBDqKmY9NyXzUUgvNkAvNSJvmdK/u9KLvfXdOjlBjPs64i+qPFlF+qsgMMUIxZT2UFd0oIJMku8EZjflWhKL326TTjsFQimrmxU2XHuUA9R5+rFYCneZkLG5Fd5mQUWAzjjeLZwXOT+Vov58wB1Hz8IMHyT7r9otOyfJV3Wnvt4/uOLaNnX05dH8t5csFAxUCL8plmUokbRwotRNTJjeHG41mEFczgdtFMYzih1kXzvNpysCQr/0StRsYrzYGGo+U3lMT+or19J/UG3RQDZLuDV8xRsNjmzYkP0UHd6sFQfpcOKezWhZg+9AfuNisJOyxMIbEx0fzBxf7swm/xV233326iM1vCKi0fZQJxHiuNQCj6rVTgCwHbhP2Ja79zxJVGVOkaN0qpM4EwJkH+zzAxHhAH5b7oqHsKXDW8R7jRffRA3lN7u1z9/SLScfP8RQiv2iDS7cXk53U7eHPyKpwGXVOxRYKFQLPS18kdRk4ABkBvSSk9dwmY+2Y37fH+vmX/uXAFdbp/aj7INecbJ+GUC2st/35lBUGXdERKiNirskcYcUt7iq3jJr1ztd0CECQ5TOK1T3hpjbay755xFIrWaUgVf+9eYf36mfs/yZQhj6AtF6bUJoDaVcTAAPS5sD5iTvrXNCrp6LZovuNU/85WUjdNjD0uemyzSwXzkdsRINEwt1jjFg6qNf622qM9L4Z19nQjcID8gKPl3YtF5UgyKFL/INkrV+ZExSOjRRUG3bCfja+Y9tovwQYEQ9+OZsGStd4Vulj3VqKLBoMeyt5P0PAFsUY2Am+YvCCJMBnkNxBoyK/iWWsB6N5JFwsQAASuvxglN63VvNKZJqdPqAifnmqvCw3STF1WuNdUR05//Hxky73xYIHSH0ctmL2Kvy9+ogTagHC0yhkLTmNoSPtXJ8gQo/eMTSrF/zQU1rhbgirUYJ8asYrpPV4jUQZ7w/oSkTt6GqNMFC7ydUP4+9EHNwhcAa6lq/yIsiSOC9HujDCFhSLMvC/FG6b/H5v9YQTcUTJQxH2geTwybuQNx0qE39YEvTdMQKT8qxKu2FpgCId0cnRS2POv5Wz/gwybAh78tGh1VsK8NhBaTnApRFX/gj4ZpCAAE2zlVvzlC03lTYSUl3sofyNsuh4bmHhvJn6tJ6Av5xoxsK/Uaf+HT/jUEAVmrxu5GCedEnkxvBmDtUEQKAAAAAAAAAAAAAAAAAAEVYSUa6AAAARXhpZgAASUkqAAgAAAAGABIBAwABAAAAAQAAABoBBQABAAAAVgAAABsBBQABAAAAXgAAACgBAwABAAAAAgAAABMCAwABAAAAAQAAAGmHBAABAAAAZgAAAAAAAABIAAAAAQAAAEgAAAABAAAABgAAkAcABAAAADAyMTABkQcABAAAAAECAwAAoAcABAAAADAxMDABoAMAAQAAAP//AAACoAQAAQAAAFwDAAADoAQAAQAAAD0CAAAAAAAA;" parent="1" vertex="1">
          <mxGeometry x="334.95" y="108" width="78.05" height="52" as="geometry" />
        </mxCell>
        <mxCell id="GJvj-thQ1zYraej0EQVl-14" value="" style="shape=image;verticalLabelPosition=bottom;labelBackgroundColor=default;verticalAlign=top;aspect=fixed;imageAspect=0;image=data:image/png,UklGRpAuAABXRUJQVlA4WAoAAAAYAAAA/wEA/wEAQUxQSG4VAAABwIBtm/K2sUayzOwwsynMzCoEVHa5KjspuuxytU7B5ars7VJUVrkOMznM4DAztGGjrG/POUn8zzfzzzdzyBFBiY0kR5JEX3V6xO10VVRkxJ8Zf+r8V+e/Ov/V+a/Of3X++9+B4idMiDd5jpw9AAdzncaux0K4ICsGmbkmRSG4KOFgK/MWmXcaLpnzhQmGzV0KtWa/12HQMiaDpSzrb8pSCyvBYsKBxibM6T0GHDnnizFew9cBZ/Z5zVaLACBkbleDLTL7ygElNYFGplpk3gtoOZkfbaB6lQBqtuWYpqZFNYCdWZ1NUlTeGRCQ6qIGxsizEwTlz/woI5Q1DQRmy2jzk+YPgdjMzDY7rtzjIDxV/mSDM3IDSJETeRGGpkMQpEnpFWZWZK4AmVLc1ryeLh8ByVLpTzIqfZaAhDmUa07/jRbfhgFPWRkgZvkAMxKbfxb1eqJN80AY9c1sbUJF5t349xND12K+pWWFiYaj+wJAzB8X1xOc3qOAmANG059eD7XIXF1Un10iKYWVJvjfiMw7BYiZXWtbQfpkQEw42NJMjhJtAsRszxH9dp83kP709EmAmHO+GOtHETliJsfU+K8bBJwuqo/7kHppXxMg5L5hBedVY89FcEHMqj99GGLdAGXIiCNnD+4LWLQBwK0bVvpRqkZxvnLcC1i9Jd3/JMVtEU+nod7AdtFbUr1IbL4S9aVsHe5/o6HWkuci8c88F/rpdPPpT29SVCP3GZJU3FL01rF6S4Ii0ZwugqbTTMHtT++o20+XdwBi9nnt8d5VFdXXaJlTkB8R2Oar2x95Lk2W6q/GfURop6sb2DxKj48Sod4RrBxou4EFxe2014j1uJ3CTmkGlpjDMbX2Qdz/A5KkGlhkBsfU4n3lMr4CSFmKXj1EU4vM3sO4AwPs/YIHxW00VO/FyIVg21/wVvp1sz+9aSCM+yBIATe8F6wz0fW5UXO7SF3wmor6D60YqI08u3D7QVUww0o315lkTUPuB1fM18DzhQlaPTcqHGxlmxmW+tyfHok7N2rVIAXcA2nnOhM36tyo43kRCqiB6OY6kw7YRWYFjDXSzXUmCbif2JnZqnsGAvu8Wjs3ausYJY41nNNVq/RdCog5mR9l67GmenpMrTl2kVkBY411c51JHO7cqHldFTvWfFuOFs2NUm9Rx7NLJ9eZ9Fig5KJubP4ZXVxnUs8fUvUMwGaBMPIxNR2cG7V6MFNMei/Rv3Um7k2K7+10eI/o3TqTjMkE9HbH+yr0rT89tbCShiOeHYKA3J+uZ3OjtinuiLd7I/I6Ew2bG3XWF63Ai2fdWmfSIoBcuifn5rnSn6RTc6OW9VPm8PP52rTOxJGzF3ngO1HFc1g5mGy9FuEufEhQ7/IT7Vln0qSohrbPTLNAWG/WmUThTnRZM0TZzTMas87EsxN5P4zKlx9qyjqTzKlkzvNKKazQkXUmabjHd2d1Uv4+jGJQ+zoT2x/f355D7fNU2Efff2PEeinH+tNSip7XjTTtg0Qf16rnD9mvP52AB/PL+5PTT6mqdSbKOqt5kKDXX88eIH6dSe/F5E9tivOVUb7OpBnydu82hJ2nonqdSWz+GV3oxhm6FkjuT/fsQi4y09diR+46k+7zAXkZOHlJKaxEXmdC6y33bCIP5aVPBuR1JqovuenJDkd3KRC5zsS9kbjZPKL32RC4zqRDMe4z1xb0dl2FkNeZUPfIfcUAordmIh9To6zl5mCuk+yua7qOqQ1dg3z0QpNOXcCqITTVV4vb0n/qipyCfFz+WeRl4ORn+Dogpj/dswd7GThRwV9xTsg1WmoJapH5ozSmCUn7qBows1RthcgM5GXgRMUGK847q42+DWL27KCCdA32xJaiaSDPARuqD+ISaaXG7GPrVUIA6ZeBx2QOcbv7NiatFK18cu+H6VW4suqi8VPL3hLzxSsha6h7RGaM8nZrK57Mz0+vWwG1ZONNDuTruiv/WnrR6/qagtaKK0WrnbzjdtPngIUsbIfZ+fzE/lqauic2U9zZTJWTto36eouN66dHoRm9y0Kb04suxZ3NVjdZj1E8FLZcus5B+jS+Ze3NnpmmutkMxJgreD/MfWGO69iRKCOOfrDc55qputkspChgYjOokqsrF6Ff0RHkWFujul7HAkrcJfhWjHNG1XQHt1eAIxtS1OYubfAmcOZ67ulvfP29k4xIo/Pc51Q5f3LytvXcYUJ8wJ1hfG7i7uZtaD6ce/h9xWcl8OZd89ET+JUn8+gC3E4nG49nACFX8v1b+POU8fgewys8FmAsMDQe6zBM5qk5ncNogmpoOlCa8g9waAkYucV0lGOodlrXH8WbpgNQkmrdZSgmmiCOSwcPiukmqIl1V+EMOK7zX52lEh/dZf0DlRNhwCJzj/ANcMlxmK4Bm4A3U1saLdcbGAMoT99osOpjLep8P8JUtdsGWPk51ky1wtzbMSPGRDXB3UX2a4R5il0KuHnHPP0dsHOTaboB0J1sZZaSD+GDaWbpMxCR60xS+yohtrkMUgDE5E5z1KRSkA3m6GUQlUHGqFSYIlPUFYQ54TJE+eLAAEM0Q6CXzJDjT4EmmaFWINABM+QWCRKN0N1CZRuhZ4UaaYQKhPIYobeEusn4f7jKCD0t1DAjdL9QPYzQSKFSjVBTkQ4x8rW07joAhS4eOyHQLPr1te5Rpf6u/UmgF1UiJddi0mX3snVTACUZqjBeoH5MgZHd8UZWDQ7j+EoVWoeFOe6iH6xuac3Ao4CUCU6mhswVxs80AJT93XuFu5aMGfdrDaBlyyvXu3kytGd6y9QoO/CKqzpQRxWp2Tv37y/ckuWQ+8z5YUGWMuooJienvnJlEpM2TwoyijwKSmhRXjNJxR0WYjkjj5oSXvqUnOvK7xDyejiAPspKZdAt40XILAE+Z/RRWTY9GC3fzLlT6Pakaj2A/XkxNh88UzWQaT6AvbmyVf3eQ/YI038AmwZLdvwogOotZgQgHKjPZErUdEQTHYYA4Ngdcn37Hs3HTmYMAH6V6vo/4mOkgsPzjJkE2CvXw//bz2E8bB7FDANU5Ut1FZC9lH/cZHNmHAC+kurZtPPBk1wO3sSYiYA5yXLtHcu3/otjviRmKGCDZK8GaY9vsKTk/jjGjAXsSmeSpefLi6ov3V01/an/esdMBhxoI2EzQo/bCj74R/CLd1+8odN/Nb+ZDtjRhEkdEwIb6pk+WJpg+uBnh+mDx41f9RDqRXe96eX3vwj+48OCO3rFkwyONKNcx+dmlV/692DJX/oQDKaTLX78MmudWU+mkQu8NEvIs35w5qy/EbVONCKY4w6+Y96nHnbSCr6hV6s5wJtl2bSC0dQa+wfwp+xeWm100soXRuqUjaAU3EapCLyFub/EUGq7i07OLwEv06IIBfcqjY3Pyn3nJNSeSCo9Bbh5l1BwHZH6oW9Lv55Q02hU/wBgO9WOTuH2JPon4Geeg0zwOoUGh4XckdPpCIF/s2MNiHA4jkwwnD5Xg5g8Rqd36LNCkEMxkjo28dk7R3lyX5lUhub0Dy/dM3bM3S9+dxLJmZ9eus8z6s5nJx7Ds5k8fcTV5GUUmtjvEiWtuKtKUEx2X6IIGjn8V9w309k/gDbTuh11PhO3KUVCUzqyWuLZym3F4FrLJ4t5x7sOYrWk01QkjxIn8qQwNS1lE37Zwr1sUjGnf0Rb+CB+ivxmOpAetf5G3b8ZxCVXMqEbmZU4P+ZicWhPHvZmn5tCKIMphUrPtZgUpXQbCBSUzFPMWpzFHP7JLMZvWYBZzDOAkYYi3WV5TZJKzBHouFy+ZlaTvN2yxVFWueZatMr6bdJ3GC6nzVEQmEYyOdcYfe1gmGNPXaca5OpRk/MIniFNmj1WJYut7juWWfQT48iXlsxmHClE8C1pegl1n0RCDRhHbrSoP4+ulozh0RDhH1lOmhFCPSmRhYxHUqUlR/lan3ZbaZfme0qyGGEeJWmuEeovEslnXJlpyd8Zl4+t1BsZl+f5VTgoc5NQb0rEzafAkof43GbBq3yGAX8SKXO1UD6JdML/3F3Ppz/2boeWGDdYlLlMqGckUg//pXEAnywLbuCThKA1ZToLdYdEUvh4rG2p5yz2YncPxyPIpkyqUCMkkol9GQFwNfa99IN8mmB8WHSl7tgUT1hwBesFS8ZhL/4q4LxMweg8IM0sgY4xPBX8HuTzM/6e9jcs+JHPwwhakaZQoMmIziB0nPBNwDpjyU4+G63MTInmMh1BKmkuF+gJmV7byuPxPzDZPFpjFzYSKhA6bJykiT0nTidEpcCfR3j8bnX8AY+3rR2W5/E4ygN20rDvhClliBZgnO5IsG6A5ZXRba1rXob8mDrxGIJNxLlamOcwoWzhe80yl/Xu4x9wHzsDLHSJvO6aRJyI3YJUNMI0AUM4x6oPwXqexr6LeN9yUbMGw4fEYc8I8neG6TacAyHdrRnP1atwlcWr1CrkNtkeZ3Eaz6kTf0TMir628jW3nL2OYfeFh/KtyK3k+cpW6LQyae00oBhKHfaoEB8yVAlIB5vDbybVpt0U4M2XTWptIfo7b6Gkba09rW+HAUcaeSJWizh2jN05vx+QcvyJ5EuWDz7FGIZy/o3Gl9KggP9FpOqTVpf81ZMnACm7GXlY7yp81zJkvyG+nM1+fFi71AaZo19bC0ipWfbiZen10jq4n1scApSsfW1UZoPUdsOemI34sf6KQOwFdJ8KeGVTenIp5CxGVhKDv8hA7TIoxBLX4O7la8jQOQ6p3E5GItZgI6K9QvZyfq1y7xOJNV6FZlNLJsLdKuemEkvA+gdmpTIhksvU7YiLTMzxTDWC0CsRTFC+V7d3GZ0Y67KEfyGvwP1jo9WtO6mY806+h5BHHohk4rgOqdpiRivGom5fYf3+6yHB+yffUfbmEftQ4EmUu5jgtKtWs8PR+oh9qWZPMY2UVaPk1ZOJOokFVexZppW6htXrQJxeYl+r191MMzU+qVorInQTe0SxQj2YdopYpdonDvqJ9Qqp1OZYHcVeU6jqPkxLueartOSgp1ijw6pU7NBV7HJFlp+3pzBtxV5Roj8zmcZyfKFAVW6ms1jEj8pTcyvTWyxmvuKExzHdxVLWqO37Q0x/sRSV/TJ0D9NhLPZXZSm/gekxFlGkqkazwUyXMYevRkXWt2X6jLERh9Xj63im1VizBYpxbhxjmo25Xq9RiaUdmH5jrO9qdfzZp1xMy7GIR0+rwW+tGNMeBUzWNP02bH+rRzBpU0AJmNuVyZpuP9bYW+mtTiarzGlACqgJNGSypuPXIftaeaO8v0rzVwMxAE7mRzFZk/7+UVuq+Lo/kzau3OMA9ADYMppJm0jPjxV2e8BYMi6VyZsR6wFoAjAzi8mbtPu+O2obZVPHN2MSp10QgC5Q5U9iEsfR5fFi+evRh6e8PDha7kUOvnIgDcChXCeTO8l97nz9p5KtJ8okc+pY6fwf3h7vbswkjyNnHwB1AFYOZNqSXiUAFIJwsKWeaFJUA0QCOO+L0Q9ReacB6ASwz6sbPDsBaAUwp4tOyJwCQIP6S3FPZ3+UpgvSPqpG3duSypQWR84e3CN6eS4d4PQeA8Qc9DqY6hLnK8Md0DGKfsPXoRY8CxOZCtM8gNsMUNyWdi0CuJ+iNkyV6bsEMFPpT6JbnK8cEK0ZotbXUtz6/6FcJ80cOXsBMX/kRTC1Jt6H+yB4xQCK9VwEiKnypzD1pn0Q9zl+sAXFRWZEMzsyNWfEOtzmbVpL0ZF5qB3T28YSeUsNO3Lo5C4FxJz1RTOVJ7WwEjAzuzONMiYDYmoCjdT/UZ6EW4ouqk+fFNzfiUv70vBVdiPg3l+5aOP0ojZH7vc6yLjKOoVbir6CMsPWAmLOFyYwOlLPH5K/FE1PQb64FaMlWdOQS9GJQtDyQG7VIJo6a5Cfr9LzYUd9IH8iL4KszjrMLO9Pix4LcYvMyXpQbA0HGhN92TUzm7aHLQuRS9HRNN122eBsJiWNadtJKEW7N6E24uVHUdhskX8WMDOrk+qlWym7os5mIOz+m8xSdEphhaY04vdZAsgtN+ouMh8BbTmI40BuTFszRM36LgUAjTmIF+8rR265Va9mF7642ukgLnWNaWWqfQoTm38Wt+tSi85cwAGllqI9u1FL7Nxd1xrxGB6W9VOl7gtkOnVBYhsOchcWOUXm4raM/qQXA3IXJilF5s1XMj2IeyPQ0YXt3ojdYqcLicw9DjScwugQJLDFVuI5uyECHswn4B61m9WZ6UaypoLiG3Oc3iN2e55KfWPa6sHqeZJiu34KDWhMK26tmCKz3fqpCGtMCym5MT82/4zNi2fkNGiq92COZ5cai+dE1exhXjcFXC9Pt93DMxob0xTaq5XmDxHy8Fxtl3G8+2zsy4VbL1s9hOlUei8GzGwdY1cjN9jtKBG9jWmqO6vRPmi7o0QUN6Yp7RMb76uwydwo6odyYpeilfVVcetYpm8ZvhZwz2qr6aroZL4URWbiG9PUM6uhaSCs4LlRZB7dOe+LtcPDkTPIZTEdTHoQuRQt/8NR7LlRmhj3BsDM3K5S74eZaruvgTrRmKaEUnSavxr1KFErRnUk/pzb/vi+Kxd1iO7KQUw/kzkF7D2+Y8R63EUKEUxL49mBW4rOkncZOM5ubV1NZN5p5E+/TUvgxe2Yzqa+P2TDfTaOnL3Ic6N0Nz0uPtRpnxXnvUpsNzdKLxvTwsGWdhqVWBNowKiLkvt8z/tiBF/o2G2Rsp42pu3zirzRQX7v9Dq9S0D+rwgZU7C3ZulU5LkbkPuKIBW5yNyC6XjifeUSrzh3eo/ZbW6UDjembb4SdyAWMXOjiFvkI+OQnxYB7BUpeh+n9wjykC+kZeB2mxul141pB3OdUl3Oll7BzCAdgiDPRWLPRdjzsI0hIzcA7k0iV5EZeW6UScSVewy5SGS5yGy3fRg635i2PUf0MvBtOcxEkjlF6IrzjMnYc6MMJe5SEHXdkFJYqU1HiRQ49VfIfYPTe1Sb5kYpcuo3ft1g6FrsuVHGkx7zAXcUUPNAGHlulAnFcRNq6bCsDLNg8a0UT5eNozENe9KtSaUp1oZru82NMo/GNOy5USYS4U8QkVfBm0hEdxBgjzUkKdRvuMYea2p0GbrGEtutgjeOxjTsGTa6FSXug7Lb3CjzaEzDXgVvkBm5/kJ2mxtlHI1p2AMLzDOp/mrcgSVGmozJiHOjjDXuTXaZG2VyjWmbRzHTTT1/iPd0ugGn+3yOVuQGzJDj2WX5KII5JyrvjJyr4E2rMa32uVHGnV6LZFsFb2SNaXsutLw/M/XEv3oeYP9tDmbwafTuhHhm/KnzX53/6vxX5786/9X5738FYlZQOCA6GAAAkJUAnQEqAAIAAj5tNphIpD+ioSSx2TPwDYljbvx2XDK+ZA0ojh30Ocj/w38Df0O+RzAP0A/gE+JEA/AD9AP4BNf+WK+JA3/Xv5//cf9//ff/////T4rZ1D+wfsR/ZP3N9CLDPzf+k/nD+o/uD8ae/3w3/Xeer4P+ef9D/FfmX7lP5X7B/4N/m/9F+f//t+wD+N/xX/Mf07/Z/tJ9f/QB/E/QB/Mf65+9HvD/1P/h/x73Af1f1AP7z/0v/j/4fcf/+XsAf5b/2+wB/Kv7N/3vZX/3f7m//f5EP3G/cP/7fIr/Qf8z///33+AD/5eoB/0f/////jK/gHqv9o/4N+Bv7J/cLlx+BfIAae2yCtB9g1AJUE+tc//mqe+N+wNQ/uWU1d/cspq7+5ZTV39yymrv7llNXf3LKau/uWU1d/cspq7+5ZTV39yymrv7llNXf3LKatRJkC+SFsHiQyugGb+5ZTV39yymrv7lbAqawstWiQvbnaW9k+3LqHEICaYe3cE0w9u4Bho7UpZRaJOmbLPkB116/1v3LKau/uWU1aEL3AWDvJfntoxZkb/Qc/PJ1++sVuzJf6GHt3BNMK22SKAvCKEH5pD7L0+pJSOxaKo1Eg0B7FNLap4iLMqGQUdI9u4Jph4/91nGjVX7td05VizPDf3LJQ6UnX/mrZrvyZSuEQy9KkLEICaYVtsmaDPonqcuhuuEdwTTDy0VTFj5IraAbuDiu8XOspq79JMdrrWF6eicS73xEf8Yl7jmMdx6t4KoAXdUp+1d/XjfthDSQ//7et+5ZStV01X5Wu7IdlgCsmy0B4CZ9nS1xYJphcH72P4i3JenAER75uCaWX/zX3QDHJ5waqcsuzdIawYhnaMW48ZEDvnZTV29Di7CXuCaWUCKJpB3fKUAdGhxzcllwHDOxbzXwobdIptllFWDWRJRgELgmfQw9u4JQuCzPobtO05/1TVr7Iu9ScUxbEUC9rrUyv9yyMnfetfs5uU53mpavz5u4JphPj6x6GjsJBETTD2ifpeAWs+rwA2EBVZavQziAJsHFBMrDtZnpJxA9BtaCpl3hbe1E3cElJuu8yyeEpOafYWnyCTnA1TNR90jGZ5ztGkqr9u4Czg//ucmjkMoxXyn8aHKqWM9kf+ww3KUgYawYapiDvWa8UkatqvT43b0dx3g5ZjNnDrLElLjsBymrv0k7Pk1SsBsw1ksrCoUcZY/oYeGutSpsAqYL/ymdgOU1d+ZfUtenK0FKtavHkvJMI1DFIpFIpCeTIMmpzcNXKxwHAxPv7llJ6l4nJKjZSRahEtY9eMZxfCUIQFmfQw/NcwJXYl2aR4WU70TTD27baTwhlwEy0k0q1gxFnvWeFfD+ZTVqJNs/MeL7ZhdSeOlkrx3AmmHt3BKHW7Son7LKg6RlpkiIe2P3xWqH56Qw4uddljzIICaYe3cEoqMw5/0nt0eVFJ5hbC3THxTEHgJph7dwTTC5yaAh0YfqXdDaxAiZr+d487pGZ9DD27gmmHt3BNLV/9VytWBuCLjp5DNTgmmHt3BNMPbuCaYe3SW5EEZuYB4CaYe3cE0w9u4Jph7dwTTD27gmmHt3BNMPbuCaYe3cE0w8IAA/cb4AAAAAAAAAAADMFjHIfbvN4K0R51c0vAk1bj6mDTxfJsW/J9h9IouF0P+A8v9GpT3WV/3I/K3rdw40jfJoHMnX25ptvcn3dObaeFvqjtURaaAViC5L3sAfp3OUtqmhKw3TZLGfxNjcnub7YKInrt0j2in5s84xupwcoABl5xtPIcYyRPfBkl/aCayjwsxJ8Fk++6ju6ZOusdyvSE47H8aE3n//sJt1d2zbf0iEGHTy+jZmX13SrUPrZZfUOXYEI1Kf84Zsr2V+kO7MNCG7QlwUYKrxCp+/CmDLM46Ed5y/O3QVPjoKDMsbmqqeay19HuNRjQ1B+a1N8PwljfvDqZW20QTMMS7Z/+RqkW+BIK9tLQAvWFRmK4APM6M+qGw+G8eTMp3HhDggoqWfHPMirBQe+7bxiS/yQU+RYGgYlV/trTY5FXilsPMrTZm6MZp1uTB80+mf629LIMC04ft8KwY2E90AjrR5lUrCioWu+C8rpTlqpQH4Wv+lW9euJh3j1qhD7cvm9Ykx0WhBGItLlgwgP9vJ8dHlT7+E/hj3UuZX3zUftgxJ80e5oBxfP+dCIFNEwTU8dn3nP1XXGN2A/Pbyzn/jy7LJn/dVmZTVyRDWB9VGzSs2axC2qp8eBWJm6o/Q16K0sV0X/KE/9gdNfvdHiwBEAP5jRP/9/od5t2xVhYf4nJAGKv4MkXMCTGedxB23Ro7UqMYtZNfXq2fnfREwWEZXeGVVIA7zLzOY4ti1cQBgAZ5KABm++/FQzSzYa5IlQ50ZXUuB2MsfavS3uf7H6YnqeBICLVz1Y+AG5WzH1NS5AfS8/lbyXOfvOhiLBYtKvcpOzYrWkUWzGw379groLIxYOW9BNyLboLO83M1VY6Dx4v4MrV+G4TSUwoWCb7GeIIRM0RrF/kyQ8ObVRk6s9R2NCnXtBMdp322DeSVC9w/CfQkjI8gqO5yAemrG/TLU4Ic/PpZ7oWhOoCWpEXUTVEXAorbaIJy8aHBQAKRudgSHjcFJiwfnnipbf9jm+olzIzrgd3hRlGrsGefOiQvDIQOfHlwVE0q35uxtv7m3Gyu9aQjksS71eS2sJ8UGsDTfwEvHn7QvD/VVWZAPf9v+3dPrFQXxjxwdnzY8FasKemX4lxQfi36dlc0dO//CUWbw58WvUPe5TpTpuzEh4E4UiwOijco3U9SR0NEuQGHa/cB7ZZmY4H4P1bz7okUhF46R8iLjH2jJPavu/1pXtaNaJMmMLyzEfjtVKio1k1VnguoJOgVrHp+vBwYBG8aj6+yBYVr5g8NW6IpRdQpzYE2j3MYSG9ucS675QHile40Ccs5SJbbJaWyKkPN6YAbtltfPVLkYDySMAOlkigFlj6li+Sm5rXpWiQk8+OHid9gToxvtzs+z+IScAm612y+kTA/mZMMJaoBq+5fwplQnlqs7vSRbmsMoEEIeT4bNvUW7pHsdo7XFg9NPERTOwVyJSASvKZqu65E5VuUh5TgCXU5tpCT/5hwJCyvZSr9+rIXVgACAi5wvKqKLc7Vr1KtM1adH/L3WRiC9iyxJUizuzQqXvs1a7kiaeJrrpWEIzXbrPRGP72GDI7dhYKRwSg40iL9n1ebJEBf/ayotCWCZLfphh4KsOwmLVig9J/TSJlnd9x62OrqQ7UyFH0N+/ToroKATaxsNcK9Jg4UfE05mTBpge4a5aRQdoo6/2gzAuvsXJN9PTZsEWIiKQLyBZrU4TAaRtM9ZSsg8MsJG4EvJc7QPkJPYUhftL6n9yPj3SMWO1hm74sGwNplPOayPtR/8aRG8OEleKADD2h1cMI6TU3OfcNl9Z3TItKtwaVVAoAVtq/YFjULDBZOCpW/g0GojBk9r6bhyExNX9/ifuIEjgtYu+62CyC3Vq+aNJavUDDkTEleXs0js8Ep+MaQiaDWaIbvtu/h71QAMK+TdcdGFJPVKZi41PCAJbdowjbsPXPLtVBGz0YQUrAWUnFsUtIxSocXAXIJIgG4BkhsEjV4DDIKZilgl6YXWJvELTRAOGNdkp30INZRSghhsyS9Sk0pUXtbkP51xMFY2FCc8KkFyGcZaI8JKZsK3w2kqGJoLBNXXYUGcyws0cHL//d66EiGITU5sEE5fob37wVMu+n/BzKm2qp57t1tlrhTzEByJMGwI9ppl6wrUSdtvC8m4taI+UASXeJe0ww3REMeFVVGMoDkdOHKIFd1OoTsrPlqVHCbkB89fqFnnAKOeZc4XMQVGxyebHtgOQPWGJKmNo2XkkUyaT58MlOIbMvLYByU1W/Tylyhq9KCRkqi0sd7s1n1tvNP2WbzT/1Eyxwwih/OGo+YYJcZ5zEYl9EPLBWXQOTlUDcCs0JtQH86AKhA4G/G0UM9FT544OPv8xgGRMAqBtB4yK8daszwYIT917XNKXK5J+Ewu5QbHEvoz9taa+Ym/m7UjMAopN0YwKSuLh+tx7epNAhRCnwycY8iC6kOqdgRY/6ZNOgcGjHcsf+paO/0sNpbo4z/heVi1x5b2Wj/ewB6CUJELg/uZKzGwnUZCXUA67FDYfSKLebbD45609C9682AZtIftsheC3Ebnz8/Z7WPP/1M6o6fyf84ieG2YdXCrjKXVymx/uUh/OJla96b/+ZMfn/xnnOZHEerPcq4CuWx5T4z2nJuBqyxA/OIYd+gSnR8x28uAp4GAKWHWkYYXwkjNvK8bN962QS3RkMw3WfqwFFjEI8+0ISMGLgppbw9ngsCPZtbC/f5xHHLZQSX5SIfIrrwKO3+9K2rIVWmJc9OtShGZnj106WgT246YP0i+2VFqzb410YbAs9tQEDHlAG3b8KAHll5JUL3EA5/0yh36VSd1Pe7d7cvzuh9lwzaIFnC+6jZo00TT1R7L2Fuo6I5dE8C290r6NlXuQYQRCESnJt6HAUbLW9A571izhKIamur10RFGz+c7Hz/N3RiJB15GFyzY+OIKBOFMfDgeKtEdnTnthVVyn+OfPIaIB++vVM+3pKdBENywnQJfUuW8e4FdfC8W1RZmgrfAchzg/wSpd0pxKYbkGAAnFB32cNowTbDeMBXLy4Rh7pMz2rTTsmg0mvUz1AwOIEPmJTICfeHbQZt8fld1LGMGjv9cPCWKSeVWbG7RHbG6kUwjtwqAi2Jc1GR4AtQgd/Cvg0+hHzicxHHf5kl306wB8XTY3J7m+2EGtTY+xGGbt11p8FDGCogcAg0xgJ0RFZ4n7JE/LPgUBr7pIj6TCQ+vB1mTt1oYp0t8z6JgAAB5obE96zoz8dWGEQHx/3qT48U2InGXz1fCybJwhTXWb8a3A/jykB2nyQR67C/WHFt96Co42+4aFtLBqzFf1Gv6eBjy5kX8qV/4Kqdxx1jjnp0H+lrWRWI5eifCMBsfdI5PTadexAAw4cHR/76Kbh4HXAR26m3fwK4chAsRNSlfQGAlUjPw8h9XLv86vyX8eGU5hmpW/jyXytEfFm1HWD48uIv1H80+6hEKTELkj+/bZJWu2q9feTojeLy4W2VLXTjIv4buOOscc9Og/0tayKxHL0T4RgNj6pF2GWu92BzA5Re8YpRHsJJEGnkN3A3TP69Z04GEmZM3tYRVF+uHBjFr0ba4T2Rk8bDZ+EJAyruIw8WyO5IpXr+b+iNxwv25K8IIRPq//Ru3vvS0Q21+s9bxHQqnu3Z+f/xdtybiYgvDyxEUM0aaCHgDvsGzxJqNVG55NXSOKmRjOf7k7xzrZU+MJDtoZxyR8jGFKZaBoE4M0h+0BZWWbVyMhYQyG3y9wwbUS8vcrNj2LuGekWAQU5lcbomy5NYYvickT9uUmNqmQNSxQkE29HYDV1Fq2YBLWNKTLSU+8Ycxy8/pfJoFKyMmV4VnWTdeMrJz/2w6gmFCIv0dn//B0gWZrDr5EeoPuAqjrrl3nptDeUnFyMfMkqeeoGXtiqMuDexliTERAzK/L4OPS2Sn6cwNNAfwP2XBUlsHwidOzsKyb9kYv2K11Bc/ryJId9vWaYxzUcPsy98uF3ZvaquUH76gKtRvuQH2wWywu8aFC2xiQLqKwgLkcHBifP54uUPMYE8zBkaalzgIJnc/vfD273p/wcDmEOd1MVPFMdkM79Z76zXJqhrj2y+juyD3SumsLtE309OYyRyh40tqmguQHlYuLb05Lf61sXN0XUNjRXYKn2aLNH/C2akWMyQjx34ULwa7FyAvuL/1Nt7k+DDH7DS4Xdm9qk2v8x4j2aMKmc+iuZMtUU+dwx0saA8zLnQhJSbbGwNQ6CkS1dH6RJ+sZJZsy1XgOvXv/+UmloOBei4G9R//MmmkjkZVATEvnyMJweXlYspqzerMAV11QH3L4+qia6Hz5/Gj5A2r5tN5hN2QyxLYm8NHsnQALPpCYOaO0R6r5m4zKnj6R2zuwkIA+u4DkUsUZB1u4fqb8fB3QZQyVmov2yDEQv6sccrhnMhD3h+Kw/HsEJv442Z4ed+MUVqoXK60s8A153a/MjhGzsf58k8edgAXuXQziVxZPprsjPWJeo8YFbvW5IvpCb7cBv+dRT30nDorRJ4UsD0d/W+nzx3NnmPzbuHT+yr5suWtLPJvDmmlfDWUzmQpWPPxERx4eaTMjejL++GMMRieAPjZOl2y9jDdUCGCPqPCeBzijtpNTdAhYHsX9dcRCCTmvw4FR1C25MCQaQKsoiSZvRwFtdZTqVLaa9Iogg+yPeHrH4WVZPMV0s6QRQmqNOahEi3YSYzDhsyyn8gfI4n451Uldngbtp354Xl7twDw8ZQXVmuoZCcLkI510QNrVTPzNdxI21DRAXwaLAaiOtHgeA1EaMefcBUp/XKyGtbTh2UJf36Xo39Ft1QEE9iqIyP+YGwCRmeZnB7IIjbQVS4qdfpts54vwMTAapIPA3UXrDc3ejspUYxahsE7md9cTWJ015YKBFChlewhpRWNA4tqgP64ibumU6YPIFmtThMBpG7UCRo9R0I1YHefa6lt+VoWWr6fBSLUxm+LpZQL4AwRh4KVKTa8una35Fj2J4QQf8KdA1ZR8HEQy2NcVKKhUjwwvtlmzizdzugryrJpcRDfV4rf4yPDLLOrq+lSm2mlTQk9ynHAGNn+O7gNITAFDsOANQv+Jb171QE9+6u2ujbNHnaf4PGYN6ZgJ2aOsQtqgBDvEZNyPX/qNEdv0LpWl9Su74TTdONrq8neETXyLpUbj/tLOthaKAActpSE+YMG8qb+99HBe9X8MC7IvkuAQS7vorUD4/xA4bol3tSq7AMsbh4lM9jcIkn5AovYiXcMFNJnsUVSW2BncTFAvV7zc9wh8RCphn3Shx4AIH/gADP9XQPXpVR0+yHxQkJmQZd1aGToCv+NZObJ1w8+XIoY2YhQZfiqApc5tWT9WVj4lq+rENyOmfEHHDNQd+s99ZjakI8d+EstaHNzUzubVd5y3lzmlK/oONHN6DFEHemJm6Jv8KFyAeklxequQb+heZapN9h5p9KKPKZP3JofXORtyRelpxPz13U6LEr4A6vQFkOeZFWCfk86RVZ7EO4ct5W0GH7y8mgkgC/Rr9GOKblWbydv6aZCYc59pXzck1M0HjXZ/lJC+LpqZB26HqO6GZQ57pLv4nc4+nFm58Y3Th+3w2OD3PpNboieUgGfVbidUQAL1ZamVRms/vHPZsyqivBI58WezWC8ReXA8R+ctFTkZ2qNxQoPpemZK6bd1UateWwhGADv3pll4r/DnHFVs/APAqNv3bqJqiLt7ZDSESlBBm2tJKy852RF5pB+3fGb7MHPiCwSdz736+Pdv5t2xVjBo0evwSYjj4AhsSqTU1P1dumlcFffR9yab8dUHBdDTZKLHklzVj3rOSmqQNCXgB9HTJIvlcGgKaeULk6I1S3x9rB5/Il3DBGv1Dy/+Hixwsyf6bsl7R//5D782BcCPZEOY4CcexXgtI0gL9TH29FGhJXcL9127YHCSmAAAUoOPB09MUJaRIy99tPrXquFFSse8dGbswb43i6fdNhiSvL7uosgwBNqGHOLqPIPcMblc77RMvxVLxpbqPJPFhYvTZ72Qe8uc0uDU+vCceFpPF33fTlL8+VugL6P8t4EnvlDzYUr7dtAbE8ZW8ZKxwYnz9ogKx6Y8efhuPIqnY4shdkaUoL1nhTFBQqtmkJlc+KBues9d/nyGQyabU5VGsY5iDs1bGDoNVs7Hx28Z/y4Xdm9qo8PTMXCv8Uzn0V8mdWLl7iffzGXpnryrnke71SDq5uILHf1mStyWpZBij3kB4Gk4oEX36DnNC1/xwAIdWrVHv0jycSnO5bcJVEPitD+QrqzxmJ1C9B+hQaMOrldkk1OUxA/BxCJcYskmQQLBEkWoPEeTZ7c3lqrGDdcp3kfcpkH8o2bsG9kLDntEJckNVbVXpscc13FSGde7/spBi58Qv9x+Re3c7bLYq/LkloC8Y3Z97wLlvuSP0dqC3wyZc0Nf17vS7KdiPRLld2Qp3a74sosY25UHwzSNKTOL79wVA/KN0vNAAAAA033gGr20g8t2DqWhvv2AR6NR94o1+Ih2fKVHWLEMSVMadzEleX7srUiKT6hELpyPu2VYfScMzVSXJnryrl65gAotaVvc8LeVoWD54SEPCWQkhTsKh+o/m6YeCoehtb44eptlIuIaZB3CkjkMJvwVNV+GAAAAAAAAAAAAAAAAAAAEVYSUa6AAAARXhpZgAASUkqAAgAAAAGABIBAwABAAAAAQAAABoBBQABAAAAVgAAABsBBQABAAAAXgAAACgBAwABAAAAAgAAABMCAwABAAAAAQAAAGmHBAABAAAAZgAAAAAAAABIAAAAAQAAAEgAAAABAAAABgAAkAcABAAAADAyMTABkQcABAAAAAECAwAAoAcABAAAADAxMDABoAMAAQAAAP//AAACoAQAAQAAAAACAAADoAQAAQAAAAACAAAAAAAA;" parent="1" vertex="1">
          <mxGeometry x="639" y="180.25" width="72.5" height="72.5" as="geometry" />
        </mxCell>
        <mxCell id="GJvj-thQ1zYraej0EQVl-15" value="users_db" style="text;strokeColor=none;align=center;fillColor=none;html=1;verticalAlign=middle;whiteSpace=wrap;rounded=0;" parent="1" vertex="1">
          <mxGeometry x="411" y="108" width="60" height="30" as="geometry" />
        </mxCell>
        <mxCell id="GJvj-thQ1zYraej0EQVl-16" value="payment.request&lt;span style=&quot;background-color: initial;&quot;&gt;.queue&lt;/span&gt;" style="text;strokeColor=none;align=center;fillColor=none;html=1;verticalAlign=middle;whiteSpace=wrap;rounded=0;" parent="1" vertex="1">
          <mxGeometry x="645.25" y="148" width="60" height="30" as="geometry" />
        </mxCell>
        <mxCell id="9_uiUGIVb2UT8xTKy1jM-1" value="" style="shape=image;verticalLabelPosition=bottom;labelBackgroundColor=default;verticalAlign=top;aspect=fixed;imageAspect=0;image=data:image/png,UklGRpAuAABXRUJQVlA4WAoAAAAYAAAA/wEA/wEAQUxQSG4VAAABwIBtm/K2sUayzOwwsynMzCoEVHa5KjspuuxytU7B5ars7VJUVrkOMznM4DAztGGjrG/POUn8zzfzzzdzyBFBiY0kR5JEX3V6xO10VVRkxJ8Zf+r8V+e/Ov/V+a/Of3X++9+B4idMiDd5jpw9AAdzncaux0K4ICsGmbkmRSG4KOFgK/MWmXcaLpnzhQmGzV0KtWa/12HQMiaDpSzrb8pSCyvBYsKBxibM6T0GHDnnizFew9cBZ/Z5zVaLACBkbleDLTL7ygElNYFGplpk3gtoOZkfbaB6lQBqtuWYpqZFNYCdWZ1NUlTeGRCQ6qIGxsizEwTlz/woI5Q1DQRmy2jzk+YPgdjMzDY7rtzjIDxV/mSDM3IDSJETeRGGpkMQpEnpFWZWZK4AmVLc1ryeLh8ByVLpTzIqfZaAhDmUa07/jRbfhgFPWRkgZvkAMxKbfxb1eqJN80AY9c1sbUJF5t349xND12K+pWWFiYaj+wJAzB8X1xOc3qOAmANG059eD7XIXF1Un10iKYWVJvjfiMw7BYiZXWtbQfpkQEw42NJMjhJtAsRszxH9dp83kP709EmAmHO+GOtHETliJsfU+K8bBJwuqo/7kHppXxMg5L5hBedVY89FcEHMqj99GGLdAGXIiCNnD+4LWLQBwK0bVvpRqkZxvnLcC1i9Jd3/JMVtEU+nod7AdtFbUr1IbL4S9aVsHe5/o6HWkuci8c88F/rpdPPpT29SVCP3GZJU3FL01rF6S4Ii0ZwugqbTTMHtT++o20+XdwBi9nnt8d5VFdXXaJlTkB8R2Oar2x95Lk2W6q/GfURop6sb2DxKj48Sod4RrBxou4EFxe2014j1uJ3CTmkGlpjDMbX2Qdz/A5KkGlhkBsfU4n3lMr4CSFmKXj1EU4vM3sO4AwPs/YIHxW00VO/FyIVg21/wVvp1sz+9aSCM+yBIATe8F6wz0fW5UXO7SF3wmor6D60YqI08u3D7QVUww0o315lkTUPuB1fM18DzhQlaPTcqHGxlmxmW+tyfHok7N2rVIAXcA2nnOhM36tyo43kRCqiB6OY6kw7YRWYFjDXSzXUmCbif2JnZqnsGAvu8Wjs3ausYJY41nNNVq/RdCog5mR9l67GmenpMrTl2kVkBY411c51JHO7cqHldFTvWfFuOFs2NUm9Rx7NLJ9eZ9Fig5KJubP4ZXVxnUs8fUvUMwGaBMPIxNR2cG7V6MFNMei/Rv3Um7k2K7+10eI/o3TqTjMkE9HbH+yr0rT89tbCShiOeHYKA3J+uZ3OjtinuiLd7I/I6Ew2bG3XWF63Ai2fdWmfSIoBcuifn5rnSn6RTc6OW9VPm8PP52rTOxJGzF3ngO1HFc1g5mGy9FuEufEhQ7/IT7Vln0qSohrbPTLNAWG/WmUThTnRZM0TZzTMas87EsxN5P4zKlx9qyjqTzKlkzvNKKazQkXUmabjHd2d1Uv4+jGJQ+zoT2x/f355D7fNU2Efff2PEeinH+tNSip7XjTTtg0Qf16rnD9mvP52AB/PL+5PTT6mqdSbKOqt5kKDXX88eIH6dSe/F5E9tivOVUb7OpBnydu82hJ2nonqdSWz+GV3oxhm6FkjuT/fsQi4y09diR+46k+7zAXkZOHlJKaxEXmdC6y33bCIP5aVPBuR1JqovuenJDkd3KRC5zsS9kbjZPKL32RC4zqRDMe4z1xb0dl2FkNeZUPfIfcUAordmIh9To6zl5mCuk+yua7qOqQ1dg3z0QpNOXcCqITTVV4vb0n/qipyCfFz+WeRl4ORn+Dogpj/dswd7GThRwV9xTsg1WmoJapH5ozSmCUn7qBows1RthcgM5GXgRMUGK847q42+DWL27KCCdA32xJaiaSDPARuqD+ISaaXG7GPrVUIA6ZeBx2QOcbv7NiatFK18cu+H6VW4suqi8VPL3hLzxSsha6h7RGaM8nZrK57Mz0+vWwG1ZONNDuTruiv/WnrR6/qagtaKK0WrnbzjdtPngIUsbIfZ+fzE/lqauic2U9zZTJWTto36eouN66dHoRm9y0Kb04suxZ3NVjdZj1E8FLZcus5B+jS+Ze3NnpmmutkMxJgreD/MfWGO69iRKCOOfrDc55qputkspChgYjOokqsrF6Ff0RHkWFujul7HAkrcJfhWjHNG1XQHt1eAIxtS1OYubfAmcOZ67ulvfP29k4xIo/Pc51Q5f3LytvXcYUJ8wJ1hfG7i7uZtaD6ce/h9xWcl8OZd89ET+JUn8+gC3E4nG49nACFX8v1b+POU8fgewys8FmAsMDQe6zBM5qk5ncNogmpoOlCa8g9waAkYucV0lGOodlrXH8WbpgNQkmrdZSgmmiCOSwcPiukmqIl1V+EMOK7zX52lEh/dZf0DlRNhwCJzj/ANcMlxmK4Bm4A3U1saLdcbGAMoT99osOpjLep8P8JUtdsGWPk51ky1wtzbMSPGRDXB3UX2a4R5il0KuHnHPP0dsHOTaboB0J1sZZaSD+GDaWbpMxCR60xS+yohtrkMUgDE5E5z1KRSkA3m6GUQlUHGqFSYIlPUFYQ54TJE+eLAAEM0Q6CXzJDjT4EmmaFWINABM+QWCRKN0N1CZRuhZ4UaaYQKhPIYobeEusn4f7jKCD0t1DAjdL9QPYzQSKFSjVBTkQ4x8rW07joAhS4eOyHQLPr1te5Rpf6u/UmgF1UiJddi0mX3snVTACUZqjBeoH5MgZHd8UZWDQ7j+EoVWoeFOe6iH6xuac3Ao4CUCU6mhswVxs80AJT93XuFu5aMGfdrDaBlyyvXu3kytGd6y9QoO/CKqzpQRxWp2Tv37y/ckuWQ+8z5YUGWMuooJienvnJlEpM2TwoyijwKSmhRXjNJxR0WYjkjj5oSXvqUnOvK7xDyejiAPspKZdAt40XILAE+Z/RRWTY9GC3fzLlT6Pakaj2A/XkxNh88UzWQaT6AvbmyVf3eQ/YI038AmwZLdvwogOotZgQgHKjPZErUdEQTHYYA4Ngdcn37Hs3HTmYMAH6V6vo/4mOkgsPzjJkE2CvXw//bz2E8bB7FDANU5Ut1FZC9lH/cZHNmHAC+kurZtPPBk1wO3sSYiYA5yXLtHcu3/otjviRmKGCDZK8GaY9vsKTk/jjGjAXsSmeSpefLi6ov3V01/an/esdMBhxoI2EzQo/bCj74R/CLd1+8odN/Nb+ZDtjRhEkdEwIb6pk+WJpg+uBnh+mDx41f9RDqRXe96eX3vwj+48OCO3rFkwyONKNcx+dmlV/692DJX/oQDKaTLX78MmudWU+mkQu8NEvIs35w5qy/EbVONCKY4w6+Y96nHnbSCr6hV6s5wJtl2bSC0dQa+wfwp+xeWm100soXRuqUjaAU3EapCLyFub/EUGq7i07OLwEv06IIBfcqjY3Pyn3nJNSeSCo9Bbh5l1BwHZH6oW9Lv55Q02hU/wBgO9WOTuH2JPon4Geeg0zwOoUGh4XckdPpCIF/s2MNiHA4jkwwnD5Xg5g8Rqd36LNCkEMxkjo28dk7R3lyX5lUhub0Dy/dM3bM3S9+dxLJmZ9eus8z6s5nJx7Ds5k8fcTV5GUUmtjvEiWtuKtKUEx2X6IIGjn8V9w309k/gDbTuh11PhO3KUVCUzqyWuLZym3F4FrLJ4t5x7sOYrWk01QkjxIn8qQwNS1lE37Zwr1sUjGnf0Rb+CB+ivxmOpAetf5G3b8ZxCVXMqEbmZU4P+ZicWhPHvZmn5tCKIMphUrPtZgUpXQbCBSUzFPMWpzFHP7JLMZvWYBZzDOAkYYi3WV5TZJKzBHouFy+ZlaTvN2yxVFWueZatMr6bdJ3GC6nzVEQmEYyOdcYfe1gmGNPXaca5OpRk/MIniFNmj1WJYut7juWWfQT48iXlsxmHClE8C1pegl1n0RCDRhHbrSoP4+ulozh0RDhH1lOmhFCPSmRhYxHUqUlR/lan3ZbaZfme0qyGGEeJWmuEeovEslnXJlpyd8Zl4+t1BsZl+f5VTgoc5NQb0rEzafAkof43GbBq3yGAX8SKXO1UD6JdML/3F3Ppz/2boeWGDdYlLlMqGckUg//pXEAnywLbuCThKA1ZToLdYdEUvh4rG2p5yz2YncPxyPIpkyqUCMkkol9GQFwNfa99IN8mmB8WHSl7tgUT1hwBesFS8ZhL/4q4LxMweg8IM0sgY4xPBX8HuTzM/6e9jcs+JHPwwhakaZQoMmIziB0nPBNwDpjyU4+G63MTInmMh1BKmkuF+gJmV7byuPxPzDZPFpjFzYSKhA6bJykiT0nTidEpcCfR3j8bnX8AY+3rR2W5/E4ygN20rDvhClliBZgnO5IsG6A5ZXRba1rXob8mDrxGIJNxLlamOcwoWzhe80yl/Xu4x9wHzsDLHSJvO6aRJyI3YJUNMI0AUM4x6oPwXqexr6LeN9yUbMGw4fEYc8I8neG6TacAyHdrRnP1atwlcWr1CrkNtkeZ3Eaz6kTf0TMir628jW3nL2OYfeFh/KtyK3k+cpW6LQyae00oBhKHfaoEB8yVAlIB5vDbybVpt0U4M2XTWptIfo7b6Gkba09rW+HAUcaeSJWizh2jN05vx+QcvyJ5EuWDz7FGIZy/o3Gl9KggP9FpOqTVpf81ZMnACm7GXlY7yp81zJkvyG+nM1+fFi71AaZo19bC0ipWfbiZen10jq4n1scApSsfW1UZoPUdsOemI34sf6KQOwFdJ8KeGVTenIp5CxGVhKDv8hA7TIoxBLX4O7la8jQOQ6p3E5GItZgI6K9QvZyfq1y7xOJNV6FZlNLJsLdKuemEkvA+gdmpTIhksvU7YiLTMzxTDWC0CsRTFC+V7d3GZ0Y67KEfyGvwP1jo9WtO6mY806+h5BHHohk4rgOqdpiRivGom5fYf3+6yHB+yffUfbmEftQ4EmUu5jgtKtWs8PR+oh9qWZPMY2UVaPk1ZOJOokFVexZppW6htXrQJxeYl+r191MMzU+qVorInQTe0SxQj2YdopYpdonDvqJ9Qqp1OZYHcVeU6jqPkxLueartOSgp1ijw6pU7NBV7HJFlp+3pzBtxV5Roj8zmcZyfKFAVW6ms1jEj8pTcyvTWyxmvuKExzHdxVLWqO37Q0x/sRSV/TJ0D9NhLPZXZSm/gekxFlGkqkazwUyXMYevRkXWt2X6jLERh9Xj63im1VizBYpxbhxjmo25Xq9RiaUdmH5jrO9qdfzZp1xMy7GIR0+rwW+tGNMeBUzWNP02bH+rRzBpU0AJmNuVyZpuP9bYW+mtTiarzGlACqgJNGSypuPXIftaeaO8v0rzVwMxAE7mRzFZk/7+UVuq+Lo/kzau3OMA9ADYMppJm0jPjxV2e8BYMi6VyZsR6wFoAjAzi8mbtPu+O2obZVPHN2MSp10QgC5Q5U9iEsfR5fFi+evRh6e8PDha7kUOvnIgDcChXCeTO8l97nz9p5KtJ8okc+pY6fwf3h7vbswkjyNnHwB1AFYOZNqSXiUAFIJwsKWeaFJUA0QCOO+L0Q9ReacB6ASwz6sbPDsBaAUwp4tOyJwCQIP6S3FPZ3+UpgvSPqpG3duSypQWR84e3CN6eS4d4PQeA8Qc9DqY6hLnK8Md0DGKfsPXoRY8CxOZCtM8gNsMUNyWdi0CuJ+iNkyV6bsEMFPpT6JbnK8cEK0ZotbXUtz6/6FcJ80cOXsBMX/kRTC1Jt6H+yB4xQCK9VwEiKnypzD1pn0Q9zl+sAXFRWZEMzsyNWfEOtzmbVpL0ZF5qB3T28YSeUsNO3Lo5C4FxJz1RTOVJ7WwEjAzuzONMiYDYmoCjdT/UZ6EW4ouqk+fFNzfiUv70vBVdiPg3l+5aOP0ojZH7vc6yLjKOoVbir6CMsPWAmLOFyYwOlLPH5K/FE1PQb64FaMlWdOQS9GJQtDyQG7VIJo6a5Cfr9LzYUd9IH8iL4KszjrMLO9Pix4LcYvMyXpQbA0HGhN92TUzm7aHLQuRS9HRNN122eBsJiWNadtJKEW7N6E24uVHUdhskX8WMDOrk+qlWym7os5mIOz+m8xSdEphhaY04vdZAsgtN+ouMh8BbTmI40BuTFszRM36LgUAjTmIF+8rR265Va9mF7642ukgLnWNaWWqfQoTm38Wt+tSi85cwAGllqI9u1FL7Nxd1xrxGB6W9VOl7gtkOnVBYhsOchcWOUXm4raM/qQXA3IXJilF5s1XMj2IeyPQ0YXt3ojdYqcLicw9DjScwugQJLDFVuI5uyECHswn4B61m9WZ6UaypoLiG3Oc3iN2e55KfWPa6sHqeZJiu34KDWhMK26tmCKz3fqpCGtMCym5MT82/4zNi2fkNGiq92COZ5cai+dE1exhXjcFXC9Pt93DMxob0xTaq5XmDxHy8Fxtl3G8+2zsy4VbL1s9hOlUei8GzGwdY1cjN9jtKBG9jWmqO6vRPmi7o0QUN6Yp7RMb76uwydwo6odyYpeilfVVcetYpm8ZvhZwz2qr6aroZL4URWbiG9PUM6uhaSCs4LlRZB7dOe+LtcPDkTPIZTEdTHoQuRQt/8NR7LlRmhj3BsDM3K5S74eZaruvgTrRmKaEUnSavxr1KFErRnUk/pzb/vi+Kxd1iO7KQUw/kzkF7D2+Y8R63EUKEUxL49mBW4rOkncZOM5ubV1NZN5p5E+/TUvgxe2Yzqa+P2TDfTaOnL3Ic6N0Nz0uPtRpnxXnvUpsNzdKLxvTwsGWdhqVWBNowKiLkvt8z/tiBF/o2G2Rsp42pu3zirzRQX7v9Dq9S0D+rwgZU7C3ZulU5LkbkPuKIBW5yNyC6XjifeUSrzh3eo/ZbW6UDjembb4SdyAWMXOjiFvkI+OQnxYB7BUpeh+n9wjykC+kZeB2mxul141pB3OdUl3Oll7BzCAdgiDPRWLPRdjzsI0hIzcA7k0iV5EZeW6UScSVewy5SGS5yGy3fRg635i2PUf0MvBtOcxEkjlF6IrzjMnYc6MMJe5SEHXdkFJYqU1HiRQ49VfIfYPTe1Sb5kYpcuo3ft1g6FrsuVHGkx7zAXcUUPNAGHlulAnFcRNq6bCsDLNg8a0UT5eNozENe9KtSaUp1oZru82NMo/GNOy5USYS4U8QkVfBm0hEdxBgjzUkKdRvuMYea2p0GbrGEtutgjeOxjTsGTa6FSXug7Lb3CjzaEzDXgVvkBm5/kJ2mxtlHI1p2AMLzDOp/mrcgSVGmozJiHOjjDXuTXaZG2VyjWmbRzHTTT1/iPd0ugGn+3yOVuQGzJDj2WX5KII5JyrvjJyr4E2rMa32uVHGnV6LZFsFb2SNaXsutLw/M/XEv3oeYP9tDmbwafTuhHhm/KnzX53/6vxX5786/9X5738FYlZQOCA6GAAAkJUAnQEqAAIAAj5tNphIpD+ioSSx2TPwDYljbvx2XDK+ZA0ojh30Ocj/w38Df0O+RzAP0A/gE+JEA/AD9AP4BNf+WK+JA3/Xv5//cf9//ff/////T4rZ1D+wfsR/ZP3N9CLDPzf+k/nD+o/uD8ae/3w3/Xeer4P+ef9D/FfmX7lP5X7B/4N/m/9F+f//t+wD+N/xX/Mf07/Z/tJ9f/QB/E/QB/Mf65+9HvD/1P/h/x73Af1f1AP7z/0v/j/4fcf/+XsAf5b/2+wB/Kv7N/3vZX/3f7m//f5EP3G/cP/7fIr/Qf8z///33+AD/5eoB/0f/////jK/gHqv9o/4N+Bv7J/cLlx+BfIAae2yCtB9g1AJUE+tc//mqe+N+wNQ/uWU1d/cspq7+5ZTV39yymrv7llNXf3LKau/uWU1d/cspq7+5ZTV39yymrv7llNXf3LKatRJkC+SFsHiQyugGb+5ZTV39yymrv7lbAqawstWiQvbnaW9k+3LqHEICaYe3cE0w9u4Bho7UpZRaJOmbLPkB116/1v3LKau/uWU1aEL3AWDvJfntoxZkb/Qc/PJ1++sVuzJf6GHt3BNMK22SKAvCKEH5pD7L0+pJSOxaKo1Eg0B7FNLap4iLMqGQUdI9u4Jph4/91nGjVX7td05VizPDf3LJQ6UnX/mrZrvyZSuEQy9KkLEICaYVtsmaDPonqcuhuuEdwTTDy0VTFj5IraAbuDiu8XOspq79JMdrrWF6eicS73xEf8Yl7jmMdx6t4KoAXdUp+1d/XjfthDSQ//7et+5ZStV01X5Wu7IdlgCsmy0B4CZ9nS1xYJphcH72P4i3JenAER75uCaWX/zX3QDHJ5waqcsuzdIawYhnaMW48ZEDvnZTV29Di7CXuCaWUCKJpB3fKUAdGhxzcllwHDOxbzXwobdIptllFWDWRJRgELgmfQw9u4JQuCzPobtO05/1TVr7Iu9ScUxbEUC9rrUyv9yyMnfetfs5uU53mpavz5u4JphPj6x6GjsJBETTD2ifpeAWs+rwA2EBVZavQziAJsHFBMrDtZnpJxA9BtaCpl3hbe1E3cElJuu8yyeEpOafYWnyCTnA1TNR90jGZ5ztGkqr9u4Czg//ucmjkMoxXyn8aHKqWM9kf+ww3KUgYawYapiDvWa8UkatqvT43b0dx3g5ZjNnDrLElLjsBymrv0k7Pk1SsBsw1ksrCoUcZY/oYeGutSpsAqYL/ymdgOU1d+ZfUtenK0FKtavHkvJMI1DFIpFIpCeTIMmpzcNXKxwHAxPv7llJ6l4nJKjZSRahEtY9eMZxfCUIQFmfQw/NcwJXYl2aR4WU70TTD27baTwhlwEy0k0q1gxFnvWeFfD+ZTVqJNs/MeL7ZhdSeOlkrx3AmmHt3BKHW7Son7LKg6RlpkiIe2P3xWqH56Qw4uddljzIICaYe3cEoqMw5/0nt0eVFJ5hbC3THxTEHgJph7dwTTC5yaAh0YfqXdDaxAiZr+d487pGZ9DD27gmmHt3BNLV/9VytWBuCLjp5DNTgmmHt3BNMPbuCaYe3SW5EEZuYB4CaYe3cE0w9u4Jph7dwTTD27gmmHt3BNMPbuCaYe3cE0w8IAA/cb4AAAAAAAAAAADMFjHIfbvN4K0R51c0vAk1bj6mDTxfJsW/J9h9IouF0P+A8v9GpT3WV/3I/K3rdw40jfJoHMnX25ptvcn3dObaeFvqjtURaaAViC5L3sAfp3OUtqmhKw3TZLGfxNjcnub7YKInrt0j2in5s84xupwcoABl5xtPIcYyRPfBkl/aCayjwsxJ8Fk++6ju6ZOusdyvSE47H8aE3n//sJt1d2zbf0iEGHTy+jZmX13SrUPrZZfUOXYEI1Kf84Zsr2V+kO7MNCG7QlwUYKrxCp+/CmDLM46Ed5y/O3QVPjoKDMsbmqqeay19HuNRjQ1B+a1N8PwljfvDqZW20QTMMS7Z/+RqkW+BIK9tLQAvWFRmK4APM6M+qGw+G8eTMp3HhDggoqWfHPMirBQe+7bxiS/yQU+RYGgYlV/trTY5FXilsPMrTZm6MZp1uTB80+mf629LIMC04ft8KwY2E90AjrR5lUrCioWu+C8rpTlqpQH4Wv+lW9euJh3j1qhD7cvm9Ykx0WhBGItLlgwgP9vJ8dHlT7+E/hj3UuZX3zUftgxJ80e5oBxfP+dCIFNEwTU8dn3nP1XXGN2A/Pbyzn/jy7LJn/dVmZTVyRDWB9VGzSs2axC2qp8eBWJm6o/Q16K0sV0X/KE/9gdNfvdHiwBEAP5jRP/9/od5t2xVhYf4nJAGKv4MkXMCTGedxB23Ro7UqMYtZNfXq2fnfREwWEZXeGVVIA7zLzOY4ti1cQBgAZ5KABm++/FQzSzYa5IlQ50ZXUuB2MsfavS3uf7H6YnqeBICLVz1Y+AG5WzH1NS5AfS8/lbyXOfvOhiLBYtKvcpOzYrWkUWzGw379groLIxYOW9BNyLboLO83M1VY6Dx4v4MrV+G4TSUwoWCb7GeIIRM0RrF/kyQ8ObVRk6s9R2NCnXtBMdp322DeSVC9w/CfQkjI8gqO5yAemrG/TLU4Ic/PpZ7oWhOoCWpEXUTVEXAorbaIJy8aHBQAKRudgSHjcFJiwfnnipbf9jm+olzIzrgd3hRlGrsGefOiQvDIQOfHlwVE0q35uxtv7m3Gyu9aQjksS71eS2sJ8UGsDTfwEvHn7QvD/VVWZAPf9v+3dPrFQXxjxwdnzY8FasKemX4lxQfi36dlc0dO//CUWbw58WvUPe5TpTpuzEh4E4UiwOijco3U9SR0NEuQGHa/cB7ZZmY4H4P1bz7okUhF46R8iLjH2jJPavu/1pXtaNaJMmMLyzEfjtVKio1k1VnguoJOgVrHp+vBwYBG8aj6+yBYVr5g8NW6IpRdQpzYE2j3MYSG9ucS675QHile40Ccs5SJbbJaWyKkPN6YAbtltfPVLkYDySMAOlkigFlj6li+Sm5rXpWiQk8+OHid9gToxvtzs+z+IScAm612y+kTA/mZMMJaoBq+5fwplQnlqs7vSRbmsMoEEIeT4bNvUW7pHsdo7XFg9NPERTOwVyJSASvKZqu65E5VuUh5TgCXU5tpCT/5hwJCyvZSr9+rIXVgACAi5wvKqKLc7Vr1KtM1adH/L3WRiC9iyxJUizuzQqXvs1a7kiaeJrrpWEIzXbrPRGP72GDI7dhYKRwSg40iL9n1ebJEBf/ayotCWCZLfphh4KsOwmLVig9J/TSJlnd9x62OrqQ7UyFH0N+/ToroKATaxsNcK9Jg4UfE05mTBpge4a5aRQdoo6/2gzAuvsXJN9PTZsEWIiKQLyBZrU4TAaRtM9ZSsg8MsJG4EvJc7QPkJPYUhftL6n9yPj3SMWO1hm74sGwNplPOayPtR/8aRG8OEleKADD2h1cMI6TU3OfcNl9Z3TItKtwaVVAoAVtq/YFjULDBZOCpW/g0GojBk9r6bhyExNX9/ifuIEjgtYu+62CyC3Vq+aNJavUDDkTEleXs0js8Ep+MaQiaDWaIbvtu/h71QAMK+TdcdGFJPVKZi41PCAJbdowjbsPXPLtVBGz0YQUrAWUnFsUtIxSocXAXIJIgG4BkhsEjV4DDIKZilgl6YXWJvELTRAOGNdkp30INZRSghhsyS9Sk0pUXtbkP51xMFY2FCc8KkFyGcZaI8JKZsK3w2kqGJoLBNXXYUGcyws0cHL//d66EiGITU5sEE5fob37wVMu+n/BzKm2qp57t1tlrhTzEByJMGwI9ppl6wrUSdtvC8m4taI+UASXeJe0ww3REMeFVVGMoDkdOHKIFd1OoTsrPlqVHCbkB89fqFnnAKOeZc4XMQVGxyebHtgOQPWGJKmNo2XkkUyaT58MlOIbMvLYByU1W/Tylyhq9KCRkqi0sd7s1n1tvNP2WbzT/1Eyxwwih/OGo+YYJcZ5zEYl9EPLBWXQOTlUDcCs0JtQH86AKhA4G/G0UM9FT544OPv8xgGRMAqBtB4yK8daszwYIT917XNKXK5J+Ewu5QbHEvoz9taa+Ym/m7UjMAopN0YwKSuLh+tx7epNAhRCnwycY8iC6kOqdgRY/6ZNOgcGjHcsf+paO/0sNpbo4z/heVi1x5b2Wj/ewB6CUJELg/uZKzGwnUZCXUA67FDYfSKLebbD45609C9682AZtIftsheC3Ebnz8/Z7WPP/1M6o6fyf84ieG2YdXCrjKXVymx/uUh/OJla96b/+ZMfn/xnnOZHEerPcq4CuWx5T4z2nJuBqyxA/OIYd+gSnR8x28uAp4GAKWHWkYYXwkjNvK8bN962QS3RkMw3WfqwFFjEI8+0ISMGLgppbw9ngsCPZtbC/f5xHHLZQSX5SIfIrrwKO3+9K2rIVWmJc9OtShGZnj106WgT246YP0i+2VFqzb410YbAs9tQEDHlAG3b8KAHll5JUL3EA5/0yh36VSd1Pe7d7cvzuh9lwzaIFnC+6jZo00TT1R7L2Fuo6I5dE8C290r6NlXuQYQRCESnJt6HAUbLW9A571izhKIamur10RFGz+c7Hz/N3RiJB15GFyzY+OIKBOFMfDgeKtEdnTnthVVyn+OfPIaIB++vVM+3pKdBENywnQJfUuW8e4FdfC8W1RZmgrfAchzg/wSpd0pxKYbkGAAnFB32cNowTbDeMBXLy4Rh7pMz2rTTsmg0mvUz1AwOIEPmJTICfeHbQZt8fld1LGMGjv9cPCWKSeVWbG7RHbG6kUwjtwqAi2Jc1GR4AtQgd/Cvg0+hHzicxHHf5kl306wB8XTY3J7m+2EGtTY+xGGbt11p8FDGCogcAg0xgJ0RFZ4n7JE/LPgUBr7pIj6TCQ+vB1mTt1oYp0t8z6JgAAB5obE96zoz8dWGEQHx/3qT48U2InGXz1fCybJwhTXWb8a3A/jykB2nyQR67C/WHFt96Co42+4aFtLBqzFf1Gv6eBjy5kX8qV/4Kqdxx1jjnp0H+lrWRWI5eifCMBsfdI5PTadexAAw4cHR/76Kbh4HXAR26m3fwK4chAsRNSlfQGAlUjPw8h9XLv86vyX8eGU5hmpW/jyXytEfFm1HWD48uIv1H80+6hEKTELkj+/bZJWu2q9feTojeLy4W2VLXTjIv4buOOscc9Og/0tayKxHL0T4RgNj6pF2GWu92BzA5Re8YpRHsJJEGnkN3A3TP69Z04GEmZM3tYRVF+uHBjFr0ba4T2Rk8bDZ+EJAyruIw8WyO5IpXr+b+iNxwv25K8IIRPq//Ru3vvS0Q21+s9bxHQqnu3Z+f/xdtybiYgvDyxEUM0aaCHgDvsGzxJqNVG55NXSOKmRjOf7k7xzrZU+MJDtoZxyR8jGFKZaBoE4M0h+0BZWWbVyMhYQyG3y9wwbUS8vcrNj2LuGekWAQU5lcbomy5NYYvickT9uUmNqmQNSxQkE29HYDV1Fq2YBLWNKTLSU+8Ycxy8/pfJoFKyMmV4VnWTdeMrJz/2w6gmFCIv0dn//B0gWZrDr5EeoPuAqjrrl3nptDeUnFyMfMkqeeoGXtiqMuDexliTERAzK/L4OPS2Sn6cwNNAfwP2XBUlsHwidOzsKyb9kYv2K11Bc/ryJId9vWaYxzUcPsy98uF3ZvaquUH76gKtRvuQH2wWywu8aFC2xiQLqKwgLkcHBifP54uUPMYE8zBkaalzgIJnc/vfD273p/wcDmEOd1MVPFMdkM79Z76zXJqhrj2y+juyD3SumsLtE309OYyRyh40tqmguQHlYuLb05Lf61sXN0XUNjRXYKn2aLNH/C2akWMyQjx34ULwa7FyAvuL/1Nt7k+DDH7DS4Xdm9qk2v8x4j2aMKmc+iuZMtUU+dwx0saA8zLnQhJSbbGwNQ6CkS1dH6RJ+sZJZsy1XgOvXv/+UmloOBei4G9R//MmmkjkZVATEvnyMJweXlYspqzerMAV11QH3L4+qia6Hz5/Gj5A2r5tN5hN2QyxLYm8NHsnQALPpCYOaO0R6r5m4zKnj6R2zuwkIA+u4DkUsUZB1u4fqb8fB3QZQyVmov2yDEQv6sccrhnMhD3h+Kw/HsEJv442Z4ed+MUVqoXK60s8A153a/MjhGzsf58k8edgAXuXQziVxZPprsjPWJeo8YFbvW5IvpCb7cBv+dRT30nDorRJ4UsD0d/W+nzx3NnmPzbuHT+yr5suWtLPJvDmmlfDWUzmQpWPPxERx4eaTMjejL++GMMRieAPjZOl2y9jDdUCGCPqPCeBzijtpNTdAhYHsX9dcRCCTmvw4FR1C25MCQaQKsoiSZvRwFtdZTqVLaa9Iogg+yPeHrH4WVZPMV0s6QRQmqNOahEi3YSYzDhsyyn8gfI4n451Uldngbtp354Xl7twDw8ZQXVmuoZCcLkI510QNrVTPzNdxI21DRAXwaLAaiOtHgeA1EaMefcBUp/XKyGtbTh2UJf36Xo39Ft1QEE9iqIyP+YGwCRmeZnB7IIjbQVS4qdfpts54vwMTAapIPA3UXrDc3ejspUYxahsE7md9cTWJ015YKBFChlewhpRWNA4tqgP64ibumU6YPIFmtThMBpG7UCRo9R0I1YHefa6lt+VoWWr6fBSLUxm+LpZQL4AwRh4KVKTa8una35Fj2J4QQf8KdA1ZR8HEQy2NcVKKhUjwwvtlmzizdzugryrJpcRDfV4rf4yPDLLOrq+lSm2mlTQk9ynHAGNn+O7gNITAFDsOANQv+Jb171QE9+6u2ujbNHnaf4PGYN6ZgJ2aOsQtqgBDvEZNyPX/qNEdv0LpWl9Su74TTdONrq8neETXyLpUbj/tLOthaKAActpSE+YMG8qb+99HBe9X8MC7IvkuAQS7vorUD4/xA4bol3tSq7AMsbh4lM9jcIkn5AovYiXcMFNJnsUVSW2BncTFAvV7zc9wh8RCphn3Shx4AIH/gADP9XQPXpVR0+yHxQkJmQZd1aGToCv+NZObJ1w8+XIoY2YhQZfiqApc5tWT9WVj4lq+rENyOmfEHHDNQd+s99ZjakI8d+EstaHNzUzubVd5y3lzmlK/oONHN6DFEHemJm6Jv8KFyAeklxequQb+heZapN9h5p9KKPKZP3JofXORtyRelpxPz13U6LEr4A6vQFkOeZFWCfk86RVZ7EO4ct5W0GH7y8mgkgC/Rr9GOKblWbydv6aZCYc59pXzck1M0HjXZ/lJC+LpqZB26HqO6GZQ57pLv4nc4+nFm58Y3Th+3w2OD3PpNboieUgGfVbidUQAL1ZamVRms/vHPZsyqivBI58WezWC8ReXA8R+ctFTkZ2qNxQoPpemZK6bd1UateWwhGADv3pll4r/DnHFVs/APAqNv3bqJqiLt7ZDSESlBBm2tJKy852RF5pB+3fGb7MHPiCwSdz736+Pdv5t2xVjBo0evwSYjj4AhsSqTU1P1dumlcFffR9yab8dUHBdDTZKLHklzVj3rOSmqQNCXgB9HTJIvlcGgKaeULk6I1S3x9rB5/Il3DBGv1Dy/+Hixwsyf6bsl7R//5D782BcCPZEOY4CcexXgtI0gL9TH29FGhJXcL9127YHCSmAAAUoOPB09MUJaRIy99tPrXquFFSse8dGbswb43i6fdNhiSvL7uosgwBNqGHOLqPIPcMblc77RMvxVLxpbqPJPFhYvTZ72Qe8uc0uDU+vCceFpPF33fTlL8+VugL6P8t4EnvlDzYUr7dtAbE8ZW8ZKxwYnz9ogKx6Y8efhuPIqnY4shdkaUoL1nhTFBQqtmkJlc+KBues9d/nyGQyabU5VGsY5iDs1bGDoNVs7Hx28Z/y4Xdm9qo8PTMXCv8Uzn0V8mdWLl7iffzGXpnryrnke71SDq5uILHf1mStyWpZBij3kB4Gk4oEX36DnNC1/xwAIdWrVHv0jycSnO5bcJVEPitD+QrqzxmJ1C9B+hQaMOrldkk1OUxA/BxCJcYskmQQLBEkWoPEeTZ7c3lqrGDdcp3kfcpkH8o2bsG9kLDntEJckNVbVXpscc13FSGde7/spBi58Qv9x+Re3c7bLYq/LkloC8Y3Z97wLlvuSP0dqC3wyZc0Nf17vS7KdiPRLld2Qp3a74sosY25UHwzSNKTOL79wVA/KN0vNAAAAA033gGr20g8t2DqWhvv2AR6NR94o1+Ih2fKVHWLEMSVMadzEleX7srUiKT6hELpyPu2VYfScMzVSXJnryrl65gAotaVvc8LeVoWD54SEPCWQkhTsKh+o/m6YeCoehtb44eptlIuIaZB3CkjkMJvwVNV+GAAAAAAAAAAAAAAAAAAAEVYSUa6AAAARXhpZgAASUkqAAgAAAAGABIBAwABAAAAAQAAABoBBQABAAAAVgAAABsBBQABAAAAXgAAACgBAwABAAAAAgAAABMCAwABAAAAAQAAAGmHBAABAAAAZgAAAAAAAABIAAAAAQAAAEgAAAABAAAABgAAkAcABAAAADAyMTABkQcABAAAAAECAwAAoAcABAAAADAxMDABoAMAAQAAAP//AAACoAQAAQAAAAACAAADoAQAAQAAAAACAAAAAAAA;" parent="1" vertex="1">
          <mxGeometry x="639" y="341" width="72.5" height="72.5" as="geometry" />
        </mxCell>
        <mxCell id="9_uiUGIVb2UT8xTKy1jM-2" value="&lt;span style=&quot;background-color: initial;&quot;&gt;payment.made&lt;/span&gt;&lt;span style=&quot;background-color: initial;&quot;&gt;.queue&lt;/span&gt;" style="text;strokeColor=none;align=center;fillColor=none;html=1;verticalAlign=middle;whiteSpace=wrap;rounded=0;" parent="1" vertex="1">
          <mxGeometry x="645.25" y="309" width="60" height="30" as="geometry" />
        </mxCell>
        <mxCell id="9_uiUGIVb2UT8xTKy1jM-3" value="payments&lt;span style=&quot;background-color: initial;&quot;&gt;-service&lt;/span&gt;" style="rounded=0;whiteSpace=wrap;html=1;" parent="1" vertex="1">
          <mxGeometry x="911" y="250" width="120" height="60" as="geometry" />
        </mxCell>
        <mxCell id="9_uiUGIVb2UT8xTKy1jM-4" value="" style="endArrow=classic;html=1;rounded=0;" parent="1" edge="1">
          <mxGeometry width="50" height="50" relative="1" as="geometry">
            <mxPoint x="963.05" y="249.5" as="sourcePoint" />
            <mxPoint x="1013.05" y="199.5" as="targetPoint" />
          </mxGeometry>
        </mxCell>
        <mxCell id="9_uiUGIVb2UT8xTKy1jM-5" value="" style="shape=datastore;whiteSpace=wrap;html=1;" parent="1" vertex="1">
          <mxGeometry x="1016.05" y="143.5" width="60" height="60" as="geometry" />
        </mxCell>
        <mxCell id="9_uiUGIVb2UT8xTKy1jM-7" value="payments_db" style="text;strokeColor=none;align=center;fillColor=none;html=1;verticalAlign=middle;whiteSpace=wrap;rounded=0;" parent="1" vertex="1">
          <mxGeometry x="1020" y="108" width="60" height="30" as="geometry" />
        </mxCell>
        <mxCell id="9_uiUGIVb2UT8xTKy1jM-8" value="" style="shape=image;verticalLabelPosition=bottom;labelBackgroundColor=default;verticalAlign=top;aspect=fixed;imageAspect=0;image=data:image/png,UklGRs4uAABXRUJQVlA4WAoAAAAYAAAAuwIAuwIAQUxQSPcTAAAN0lHbtg0T+/+z09scEQrbtkHaMf4hKcLjc8qkekwq6wokwCyhyPwXh/4fDzmXLGVnmBPmCFmubcWxY2yuwS/td+aTEWX45sIUtkiHdJFRIVGKCEeIJEnKSkBD01MPb91dfXvXtm1Ns23bjraE2unu7u7u7u5uQ3NIhUZIqF06INcAnO5WF5zS65cynbm8B5D12i7bAkn2ECIRAQltI0HS3AgKiur8d6b75k1f2/ZFbQTtuqJ1ObgIA5F6DybunqwfgLu7u/supFgg1zV7begmMPN9718vMjB4REhCG0mQpI0wJBRV3rv79czUzbv9o+HivNXY7Y/8F9fXXz/4brkcNLfdX34k/nxdP7/zZULzityZLzHKf2YRp8U/wqwoTwuCbu3OAS3h9NvsAOHSgKaB5hVZN5B2Gs3VYgaa7DCvyJrbxflacuBMZbq1O4s0v3AGeThf95J6K+FUzyH9XutBk283gGYnzt1+CFefcusY6YnccNKGgGaRJjVC2kVzNUMCWqFZ12Yjuu1W59J0q0a56gbQhl40yWNASzwFdKumI10rzqDZAGkBZyrUXZocyq19HWhNxcGkjAHtJQfM1K5A2jmrbWpbQtOs+A8JEyY/hzWBKQt1Kk7yKNLcSZNA2gbzOq5CnaoGUyU3jnWXpiMJt2scwWR7AIStjROumQBqMLu1UCDNBszVolGgFZrKxjjUTphyPpPtfk5bx1qEOaGOIU15pkKNZyrhTmhIpzaaKroPtdOxZPhMtmeX1LJYO1mK5TGkJYEpI5CmnqWqDLX0CMt9J7BO1Yflfj8lfRxqxlKZdGljTLZbkUtKDDUHU89BWnYwg2SsGcxai7H2ZilrI61YhGkcaspSWYW6NpiKckC3dSlMQw1mUAVsKcCcGMVaxU1tKbKswXazJNDudscydRjrVDlQwjqoqTwouzLWlmdZayNYr7aEJRvr+o8BBSXG2oHStjwMNpRvxvNgB+UHZV00ke0BEAV1hHBpMdZdlooq2JywXG0Ea3ayTHXAFmmmku1+zlIINkVZF5UAawmmGGzviovmasNYU5SfJ28paayl4Eh+ngy2piiv5YIMttVJ1nlFYO0lO0nqCNj6gXICbElI2sS760FehxuqRLe24A5CKR+CXeskabs7DDYnJP05lWq/xMEza7LdipwoDthKqLepWibKVLAZSoUM2AbKbj4UYNc6aZ51h2q/f8Qza7Ldz5nIDth01tvUkkjalCW6rbdDtOWOkgM2FQdSD+2gFUBKemDXDeW/zllVJLR1B1IWbTfJo+jXFbh1kLwZtCVByUGbXyC/xQsF2qaAnIC71r3X29TsSNLQphtIiYy3AXLfiWm0ZZK2Mg7d2sSbgbQWSnB7gwxS0VYs1ttUU5D1ugw3kvVmJgV3t+IGFQUpxFviqOHKEtw4TogVDW4D5LPrsg43FUfyqxCyneANuFMbStMS3XJ7JqL9/pHGspqCWz84pmbhpgsjTrLSPrI9AMJVUnjjeEVvTkd0W3cnJbTlHWR3Cm66BY6pcopw4Z1qLbBMpdovcVhR8K6No9BMJduzS9Y8uLuDYy2SGbxr5WhJpduJxo823AbHmklXouAtcdTzCFcHcCSDZMAFjkFmKtUeuyN+MExU+z/hfRtw544xVQacx1ivTwZMtvs5OwnetWIk/BnAPRi5Wbylp2OUA7zGiF0bb9lh1JcBrzeMekkAuICxRjzVKGp8Lwf7qHZTnPjOiAB3YTQb0W1tO3SLfcBTR6LY5c7UEN7uTxh3+0Hc+sC4moJ4jdG3s4DTiNFcCnCng7h9lwNcCoYxFe9uW/JQTJ0A3Kt7iqkJ5CbFVJlw9XOAS55itz8bAV4vikcWfWtEiAdRvKpdc4JsD4BYSjzAzUAxaDpgqj0xSnyj0W238dU84NQo+hpyW6TYnTVR7UdkfC8jbn2iaHoQcPqZYldGnH1QDDICxMV6mzo0gkwl22N3nBzm6m3qeH1QFHqEOzEDudNRTCVcX5pBVHt2ifjKRLW76MU3BuggBmXoVuO7xAPc8gvihAy52Rn6Ym4I8loY+vxnkNsp1osmov3H2o0vzS7ZbkX+RvHIVuOb6QHA5QJRBHmd7YIYNEe4PusP0a0vfMxBnPgqR7f469ADXDGIX4U4mQHEKURfaJBLEH0270EuYkylW5/7hOvLHN3iL2XEJxrF1X4ygLg7GMPVdMydD0Kf9D3MHQz9IkBcEoY+/TnmplDcxZ1ufaFCTp/OsFYGIGeB4Wox5jaGPu4MYi4y9EvIg3IL9TbVBkOfzw5CziLGIKo9AEJ8pjLkyqy3qUMZTnyUDEJuXQy5hCuk3PrTOdBNhrQu4cruY6o9p6/bWwA9VYwg0INa6gSJD3+NuTsghHvN0ALo/IFQrou5KQiPzsgx5jxB+co83db5+vIx0HWEqcjlzUWZo1MQ1o7QcQxNVmXOFhB2p2RuzQhVX1/wypyCkNRFZgi7r4udiHA1oVsHQ685XpmzLoSmgUvfpcxRgt18Z8krdAJCq3WZsxhakzoT4YQjcxrD7qvzQt+B8FDkhjtDmaPyEJxYoNBX/UGwu+KV+U8ShNaPyZyboIa7JnY8QctCJxGUf3lR6Dt0EqxfmaPQ50cIrlYROoqQI3VrdghJ3apbB9gVuzWPUHG79gZ41b3UlDolAkztLVHo2ETYBS4vrwl9dTC0IXTRUITWpc4iqCf21UUw9YVVqZMDQC+ueoTO6g7ghNhRgl5a90r93ZayA7RZFzp3fwimApf2qlfsHPw8t0ai9u6S/Atyxy+A3+LJnSkA602xW6cHaFvsPADrtjmj9qPIuec35E7kVz+7SaL26wxUa3KnANReFzs2AdZbXrFzAbQjdQrBbm1b7LPyk3tW7tjk55kdj9RXAap25Y4inBA7iZ/9v8t3ih1+3cY/weg3T+aEfncJQP77m5effqor87tLCCLPX3vmiazAd0BkdrzyeEbYnywCibwQfc2ty5oTJPKiIevecjB0QKOvPC7nwxZJ/1kce97NyfmjyDSR5649/eQeRi+AyMf/pWCvP/t4FqHs93wmt9HxVwQs1f3k1w3cx9vKhejrj2cAym1/NutipC9cqW5AHSx99bE92d5dwlMh6YtluUqtBbbIs9eeF6vHBj7V+L/8z15/8dE6Jj/PWU34D+EKjTPjbz6aRuSXyGjEDwPyXPQdgXY0QThxKDkfefeRjDw/z0kZWTbe2ZHlYWW9OSPPjbmtnCy/RAbCoEPMaeflR5qSvLuEYdCh9tprO3Ux7sCNPDP6ziMy9JSFMvUQNxjvylDKr7vfDrZYIJKWHgCD7iGPpNG3JSh1yGuSPHvJ3RGflF9q/24eWU7deEV6I7+gwN3kEfb6a7LzAEw94mdDp8felpyHX2rh045C+h7qxka78I4jk6IWsht7ZzuLQNHRSd/Y2oOcqEhy0nlju45ayO61t7fSqIU8NfphLYU0a3FBnjE+FlVR7jvRJItFPtpOY81aZGPsg80szKxFmNOX39loguy0okzYfbubwRhF2qvvb6VQC3lq5KPtPraswaK+1PtM5BNkdf+fUJHfR3+2+fFWGlfWwjNQpfneQXMRb7j6znoTU6eZcwkk5L7bTaMWMnzlg60UoCiZS71PxT7ZSqHLWtzST7dSeLKWUA1TCiVK7H8BOT364XoWR9ZSgzx59f21DJBEJZf+zdZ6GrWQ/SufbiRRC9mNfb7ZgZC1RHMq8mUrhaX3TpSYp9leSyPoVbySHUeclQxqIcNXPl3OQOe0Ek+g3FtLoRayf9lZT6IW8kT0q40OYij8AnTpSvv1FGC4g7SIGqYUMCLLyMnRL1bS2Fm1AClYVi0l/rKzmkItZPCSu55EDdYg/breQS3kqeFv1lIowZIa+Xo1jResRPrVUhq1kNUr7cU0NNgNWhik7+rXK0lkELC4b2PZGf929RY0XoC2uISN79dcYOywvJyI9FeTuMACa3y3kkItZH3su4UUaiEDDbOohXy48f1yErWQgdEfVlzUQtYjP666OCB8nBabE8M/dpIw4BhpuY38sJzCBFYp/X4+hVpI/xUANOeGLBryocaPSx3lz27gOC07nZGfll3lWy0cMjz884qLhB3WK/1pOYlayLDRcpKohQyN/djuqF1kA/E1WhpvrmOKbCG92s9LrsqtNhH/6C/OrsKttpFg5LclV++nWcBiw78vutrGVmo0FlzUQgZGf591FW21nTw83nKSarbaUB4c+6PvohbSH/t9cVfBN0zaFGR/uLek3FYTJ7y0rYSGeouuciFpYzV6c4ptzrE3SP/oX9OuXk+reuwuD3VrMx2t0i+4w56kf867qIX0xcoLCvXk3cLYl7S86Cj0vRMmttkFV6NW22y0NqvKMeeGPXYaX+uf6V29nmaDnlZ8xkUtZHukN+egFtJn9OYrOnzHWsiGIQNDvbajRZE9N+E6qIXsGJVyRc9WC9o7F0tOJTR5mu16op2yg1rIdszcgFrIhw3HTSjwHWv2fdigM+eoUGTb0ltlR2OcpAziN5LTcY1ZpZCHYqmpisJOE0MeiKWmHVXRD3pISbQzW1HVXWcFZ9uXRm7NJfRkDVEa8Q+5jpIW8455mjw6nOolUAvpM9LtuPas9v6GoL3JnoKsYvkXecDITu1qx2qK5NJoZrqinpdCBJOHImaVZJXJYYPZXkU1Iul0qNuO60okjVf2co1/9HObumAOa7LRVsrbfmTU4fxUQiFWD6XUZm46rp2XQkQjHeqW44qxyscz0J1OaMJ6gpRVh6qNf/RglRbkQ5H9yb/1YJVX7q8fn2grxConT8VbS6jBKrKRU3F1ICppvh3HP1VueXhgfyqGP1VyHWJuB/tU2eXB+qCo/UsQJLXDOimjDvxqEqwew06E9UQMPelt6AwYMeIPoKWYo94PnDrazM/EybEfRE6NajEfkaRFFemJqjD/HcffHzZ2oP49WZ7N7gJNoE0bdchRDDVzYsBTQYZKug9ykEzHD9JGFd3uAYh0w6hhwzsh2b7r6DVwybbvxdou1WIe649GdarFfMT7ab0OMLl63h+JarC+OyHicUyvAEu+G94bz8WAdgXdI6IanCRd19fqgJL0YtCHlJQPc+2gDyoZS81mFcgggY99vQwlaW945ygRwCcd8FDsPTqqosfvodz7dketw0fydY8SO9gFyT6OmbMD4mpC98RBBTrSH985JiqDR/Yb3gr1ALHVzB1KaCKqoP2erIVR2aFazKPv9BQftlQdHNatgbWaMhqKAD6if1n6+KgEV5AmNrzp6SWgVtPH+OYJWgUmGhn7J8g+RLTStxPZB5Dg3wSfyFWofk/WhjQ+QS1BFKSWDZ5ehKarnb5xklGkWsxjb/TUCjAUNJ4s16Chnw2yQ7WY7bd7MxVAgvTUN09VipDQ0uLrp+oFMCirp+gwlHtZP6munqaUQaizFQ811kwNhbPONJaRN0/NODBMaGx8+7TpMgS01jfOlAtUi3nkVVvPUy3mODjdLlh8qu762hly2fJTNbf42plezcJT9dc3zvCqME2o5LKTKFOiWszx62eqecuHVOleNkA9Jn7FvC1V1yE12eBMpWThFCg9y6tSLebhN86eqljqUzxtjs45mYIFr6ZIT1/btkg67Stn65Z3d7vmql6bzVvgaorteZkS1WIOXj5/skq1mIdfPz8pWRr9tpenWszilfO1LWvanWGi4XY7umdxT/F0e9hLney2xXWV67kgU7SorpIXL5yoWoqM36PppF+7KCxZzoSmx9cuzGxbzoSqF31ti2oxi5fONzYtiZ6lumcRlN6wV7QMKl+85FBsMa+461r66qUThbZP9fUyW1SL2XnxEq1LtZjFCxdnu1SLeeT5jrbVluVMEQL6wqXThTaeCoDFKw6W23pX+4e9dJWfb8OA0G5ms+1OIKHPX55db6ce9mAhwrvE3mir4NDL1G4bBYheMVWgWszOC8HBEtVill4OJrapFrP00hVyQrWYHe8ye72twoPUCNsccPRSbbOtgUevnMq3PdDYcK1boFrM0gvXTXapFrPkXa2EVIs5/exV2TWqxTz8zJV2r+2ASgN1o80AS6+byLchQNlw0/481WJOPe+GG1SLOfXc9d1VqsUsPXON3fJ3rosamJ3w6la/89UHSeD0GnW9td1HQqc3TGy3cPcgYLPh1v0te+91HyB6knr2lsn1Fq33TfDTZ67X3JbkKbCKHU8ruofEUJ++xnapFvOwf62y3pJgNN40sUW1mCX/9tijWswp3016LQVOvUldoVrM0lN9Y5lqMafd6+wO1WJ2nryx22sJsOpt4UaT897twVWkJ+86sNHcah5kZeine3qlmbsNYivRk7dkl5p+AlmLT9xk9KkWc/rxm6PlpgWx3qKsNj1oee48tE61mFOP33swpFrMQ/FdmZWmhjBpE8OYtEmBzOPqy0307gTeGt8irzbVA2i4Ld7trzVhF2jS+3y3Gbqoy2D/HnmpKV62hN14m73UIFrM0uO32EuHGfh6a3aJajFLj905s3IYAbD3H+pQLeahRx8+2KFazIOPPBj2G4cHCMe7ox8F0WKW7DsMX+w1KPZOrb/Hr/2AsXv4WDpXRSPMqUcfnFg+DF0cHhbbYXJYwFB6v+JTLebgsTv1HxtEi1l69Hbb3wPAbC/r/9Op0Ow9sr+HqXiUPvLQlL8nXVQe9pDd6VMt5sH4QfWHxt5D4rvZdFcQLeYovttwBdFilh66R/P/AUBtMOMKosUcPfj4pEu1mAfvf3LabxwEWvvAo1MrqIV56J7f/+Yg8DpGvyMbvNOD21SPE7nZa4D2JzCv+PwvmP1JXW1eu6u/oXaVAQBWUDgg7hkAADDYAJ0BKrwCvAI+bTaXSSk/oqEiM9h78A2JZW7hbP60/mf4AfoB/APr0mSCDk/kqeGjWKHflH1j/Jfrn/Pv///8/laNz8UPzb+zngXqV6p9zv6r/7v7H3vVGedl4N+W/63+hf2v9ivYz9hX8I9QD+CfwT/Yfzz+8fsh3LvMB+wPrPf0D9QPgD/qPUC/rP+I//v/v7Qb/1eoB+7vqrf6n94Pgc/bb9rPgG/VP/m/679//kA/f////B9/AP3///fwEfwD/8e2PkA/QD7zYA9T70A/QDtkS0/f98ACqISZgeWZ9pRRTC8aW5geWZ9puxruxTPtN2Nd2KZ9pNuZUYqmChKaeluYHlmfabsa7sUz7TdjXdimfabsa7sUy0VQLR8tMkN//u0pYJUx5hEoACeMRrasXNYKPZrp8h18DUBod2tWlv69I1CH+onZ7Mabc3DnTN4EZ2r0/o0ymNFNkRg301eqChSTiJgM82rT4Tl0E4hskaMuiWJeHP2h4h7R2cRWgflGLRDUwEUIz4aMzg9noohr9snHhnbXEZ0umtPdMSECmSVASwaMY55dsThV1wcq9PMqBJQCfyyov9VkQfJqnbpNntAYY0c7HPSQaqDMYt7AyasullO161EYcZXc0HuSGQZ4B3sF6Gkxxlwgk+22RA0PBEdmRAwmsQ0D0aUdaqlv48PLAmn0aFSLbIQ56om80vlUoXea7ayEbi4JT6bBEqa6fdLa+RFkJnSqLPU3t1JwqOEkLr4oVA0/RnXKuQR3RCVPrrNzTr3KZQDqBe5RaS2Khg+r/v5B1w0v8Z118fL1jsUf2QgJVFnqb25pSqyJx4uIKBGi/EdniA1efUkow6LHL3KZQDqA9EkABZAmqmNPgcKOfP7K0ZfDelFjl7lMoC8wNG6TXlhIe5lgneXElJSUFhCDAWwscvcplAOoDzWIHx4VgXy0xAawT6GLUxVm5elQ2wsv9dGAoeaxA+DO88JPp188Bj2jOWYOeyQsD4jLHL0oCVRZ6myA6j8pB7/1+EdRAe8Xn9K+yQrTAscvSgJUN1TCTAUHsqWppXLhI52NuuRK7JVgLYWOXpQEyzwGGp4DFTzabKMhHZ9klFQZWDFod6UWOXpQEqIQEaC6hp9PaiiOZGNdALEB2MYB5cGyEBKhthY5emBoeAXMwgC0bU0rlwkdN0q1/3plWpJTVdASobYWOXpQ56oeCMpivQ1IPkr7BEqa/gVKABycAjNZCAlQ2wscvSgOqn3b1bg3QB1cZ2ktK5d3QNp0D8X+JD/UaiQ/IzXa5q3CJ2FRO9cgaOMXNWl+PE6Aejz2kWVcL/fMU0ALzSLVXK9mTXS4HM1Ef2EDzVprp8h6EaOgtNdUYdlBjU9PrDK8a8Z7I9cA5PLVJH3yzTXT5D0I0caDWoj1cx4oWnwKSeYhRpkOBWbTu2e5eOTy2CNZcgA71yBo4xc2mONi1hnsuV2g802o/k1WBdRsbzUz+SzDQ6w9CNHGLmrX9/ruzAB9Ke/g6a83tT32rD2PIZBpg/IEafkgBthi5q010+RXKOBip9N9cSKZnKzxTvhLEFIifWIPD3CJ2FE10+Q9CNJDWmygAHLw6xGK+0DFwlaELnIUNHwyO2S4jruMyvEKc0cYuatOySBio5OcOckEgbUXdqoerI+TO/RpgDTEv8VpoUvGlnyHoRo6C010+RrjTN6M18KYfW67WQ0yiSO92TCaABS+ArOBJzeagO9cga+71zaOQHvNvAWpOJYw0fydfSwbMKu8QEHfd1ngqEg1l9f0D0I0dBab4Ei8BSLMnVHhx5ViCywiH6fmo6YTMOBmF7+89Y5lRVUcxmMPQjX3euPPWDs2tS2lvb9Bf7e3t7et2MmK8J4u2eVvqtqoXyHoSOjvbMAOQh/qLREju+rsLKTYZltQHvscZLZuwiqn0VNnBc/oEafkfORC5q13B5swBpQqKN1jxZcQvxZHdWON29WYaP5O/WQzRSlJFe23OR5jD005+2AfTkB0QO/lLinfCWMOWpDuSx1FN8VI1pfl2JGDwqtOyMQALQnLQH5w4yc+a8CV1MJH816Cwoo2a8DFwljoJfoMP6MZNnjvYLpQBvAHf4jR1wd8JYxXOVEbtX9ZoNKYuLS3bIr225yPMa5EAzHo2+HoRo8MPLcPm2362gJVFUcZWM0xKVoXmfPQVBWRPv7WJQEtkb2Bo4xcnjLyh7AYRE0y9W3G1PhLGGe+a80Vlpq/9usQ9pm8Ad/iNHGLmtYR3ff/7e7VpmHZ6AxuqWIyRumMp2X1kwE56W+AQnSgZOlAxkDSBhblTCZhwIHshncec3wA/fqTHy7T1Rc9YSGEWcIJ2qJvuoSi5wi34/CvdTv3xuVzeNqEe9q+SdBS//dDRv8zHlrRfqo96I0KE/amr3gE56JcUSjHcmsM8GVpJZLf89DRz5lWkj2eZ5ZLf90++SUULzSi9w4W155JI7fWpG9DsWSkSag1TnhCyiQj/QJIuXJs4Y/kN6XmoAk24yBijLIol8hdn9CrkcyWd4hjgmKJ6q+X5eWKh/h6+FFYyUNvp449CFDv/0lgxqF593zM2+ApfI9eDh1W64YMxDG+BFA5Z+x5Cu1Hpn48f50aeMo9qv+APy3KrD+FtcZIG0FiGafBoh2DdQg07VYHKCziwpoq9N4b4cftKB0S3fDq83xW4DN5Gka0CeopbbS//lMvkHjj/n/yhmwN7uA+OVMKJHIUofvidg/HOGr9KU+vuZfgfP1LM7Zepc/y1GkJ149c1PMTRpZQoHES4+8D3pCmiLd65s+PxVycdixZextISEx33KOIgbaarL7AD/FE9B9vCzHkM+c3PqQJPSini1w7s8b/aQmWLBYXbk4pBXagD/TZzT10lwalbI411YI16S/nEc8zm8dfndUj04lHrqhKquA/p+tyiC5V4R73Sh4aJrWrqmH/UYdZc3LqjbNEmV0s7oMkOwecNyCUldqCk+P+bwBaiEbFlBNR2b5uWIJSQJKBpu8v0tGSGnRRMKfpYIUHedKTSdSowmlpAVS6RvYYz1Le0l/ORsR5F6r3UellEu/3Znl5WRrgEwwIbH9nh9bMKukjKI2+oPsCKkUfEtlih4ang4L/bep/fnMTuxr19juqs7Xsc24wxDDWws4jcOV/4fPuI3By4mLE7/UFN57XCCecD4CwVMtHYV+pDSIZIRrs7oQdYXbWnQJYiXpAVSxeCjPO+dEAmkv5yNiPIvVe6j0sol3iA8dZzdZJbVMqwfLeGJ+o5bmO8HrGOAQl2KvaxMgUmorLBNFgFIO32ES2RWb8JKRU5cI6AlOmfmwg4LTdOZWNQJVwr3I7anBE1tYN4ZvNjrH5dabfDt9fN6uhEBB8Ce4ACqWLwUZ53zogE0l/ORsR5F6r3UellEu/3Znl5WRrgEwwIbS/vrxVVF3Y6XEod7jTaH8TlBVsx2bPgl9F/rTAc9OwrDozuy9ogtcr/sL3NBXR9+0ovANr2GDWvjNTcqGx3ugA5aSmwhsMhMkRuiBfVZwmADM4MtVrJiDIIcYiCIbKNekv5yNiPIvVe6j0sol5fe9joYcsoOsEk6c/aQSNqhsWllzHgFcAEaQSigbGObqr56GiwxTQVoqcaZq0Wk6e1/hUkNk0aWdrrM7oCL8lNN1APp/hFsWLdNMeD+VQfQE3Tq01nOrB3YVPz/FXAlafPatuqfZsGjqsNQ3qMCapk0fWGynFpBZOgL8c+vCyGOo/mC12Kwh6jp/GQnX6juYGaf0wekbJqi6910GzC2zRGD5YaQAUrUK69jyWHpcw4T8LKTQOgAHwt2BdLxmQM1PvwyK53OpKMWDYeWQT56+Ad0CRaJNJKC2aR5EeJeZxDf6ghulg6qTcgA2qa5iq/CoiR3emModGECu1RM9RQcae3RLbAoM/gfey4u7wqTPYHacbLvY5DowsXyfH+A9YTVVXDYKrDp59hVpkAajEZg5lIGwF7zrpSpPB38/+X0KtQi3qD6/8zghFNp3iqol5fe9joYcQiA/zsnPOACJloOg0z87I158iNA7nBQRbqva4qhuz0Vsg1HWRfvlSKu381PIS1VA3wWnMqZCv6qpECs4RricHFAx5r66gzKeYNeAxI+YeMD+nlecZ472I9VYvCWbBopXH3TbktuuYpk8zq6pvz8QuOABGuYMC8LvfK54XQWoqJgaVHI9M/WcF4gK0EQQCTD5BGKE4mTbRN4QvGeNYH3993LFqsdaUFamDs8EoAopwGBOGx9zDFlTXBF1pVOXsHxAaV6ws7oEirOI+lH3k5l57UkdZ4KoWGUWU2cRI9zgAUNJgMw1RHZ51yvZxx4ZApawx7UXuWxegeAfjXfX54QvGgDkMv8HzAYO6OWQpTWc0yXr6D2npiQXasqKN7HdmVQkjOMSIrmX7sIoH5c11FX+2qzUl2lC9XnUzxnb17A73x5Ebbczm6yR3vP+5v2PBKsACnYAAaQMCFxcQJdjpQAZ82TjNQema+c1ciy23qTIgWi602Mz5tZsT4gdAP8E+Vm3xxJHC9vCft3KGSZI4/cIUeZ6SiALY3230o/bWw9M0+V78yqgdVowecUWl3jO3r1hwowKqrHDrE8QHjp1if7szHakXwAAArprAMMjyIY0BYy0EyGj/CxZ6wIsG1lbZC1ofesntNcbYRny6T5C5xOL0DVX5TRPSmgkppAFUfbGGyh37/pi2BdkT7sISSvDYVxIkvAka9uN7R+CwvVyZMjCw2Jqxa7mSoMnR1ieIDx06xPEBbIyXal8AAABQSgE3qTcBo77gWC3vVdnhziygrwDy/eK0WUT7AIepFaFe65ixi6kJM4+v2xdRoahlyf71+Q+xDVt1+fMuQgJEV7SUvaX8SyPvZAwTgP6eUV55qJ7DIinOy3frY/ymUYpxLHTrE8QHgTaXbZgAAAF5oYKGXAAplspAhLROl/SLUaTbmL7ch9FtTknHfdsQf8QhkH02VEHfX7YsK6RhAsKyBOtjDgZ7PH4z5C1JdTD1Lq6hZawXLDTwUuGp1exn343tzttz5NR7fSZM2PjKfGwATU9lC0wJZdUf3AAAAAI1zElQM69N2gdVjhKjqHMnNSL3DxKNsF1cqeGzR8kb2/P58wihV8j2RVC1OvmjFo5A9yUMg4r80LCJD1ACAYGMnEMXqBPmeh4Y4is7jTYz77CGY8XJ8c+dTPXsUtUIbSAtZ6ENpAWrX0LsgEAAAAJU2iSoGc9PK/1QIeZVwutt3R37yRYdrf5CSu7CXB3xzmnfnxjSb6ugt8svDXefqaCNqNzr0FcqhUN787cUmOCFEVps75b07Q98xrhx+9qskwx73FQrOSIh0JUI31cxTSoBLhRR/biFkAAAAdAuertM8ByYZ7AKyASD8DuMXwoDHuYK9NlqzeWJtb47I3MWMW9+qmXSL45decJ7Oy5U9h9EhccpFOymZ4BG++u/dZF+hxiG0GIfFmXB+iWxVz2VuXM/59025HDUKe07rH6mAAAAAzndIrjh6qgK3j+W/jF8JLPcRRzEjY5yN+JvDPi/bPDXJd2+sii7V4VtlwaWx91dxk+nPqdA1DFF84XdLRAkrhrcIlX3SMy1jFhYuiy39qlLoe2tIaC1ywK7S1VcFI8o26ySqGGItpNWzkAAAAANqySPyTDnr0/LvKxxi+EtH3EUiquqU3IWpw/zWZrfDW8stY0ZHjoNkUuQtnjW3ATDioIPyUBboHXrGdFg6fKDcbe06VeX2HQc6AtcvuhMyCHqv2IgFd33DGLgAAAAAABnP3Fmu9HEnJQLHYHGL4UDhQhhNCJXwxB9a2uQ1TI11f/3/uSByprIPVft1BK6cJwjf9yuSmPOd4XTgl/4MCTc688hKAk0nk97nCoKbsrfcdd0FbiZv6EWk/zFvtd+ijx272oZNOEW8Yf1XfwwajGyFWP/s2A1AAAAAAB2W58I1w4n2kNU3w11X6LSwIhAl/1o5zCNC+v//f7rvCgV3WfpHt5uIeXt+Kbb4Vq8Th7+RvVBeI+7rn8M5elc6Fq1WDGItwzecMgMjo3UjYP7cLcM6HY8JUAH0v8UCDfPhr6jaaGbEautWBxq61fumm0ACs/Vw66PhtfcZFRHhFKI+OLOT0JdMKQAAAABSH0dLXOZfv+GFYhi/pcaOiKtX6ttV4U/mijSRTZtUvklVVNfG3S6XseQ5EYfgVm12Zk4VExa83Wrj4LReF7tcXitBhduTCftBhCklTrMUp/6Jd7YxV8qcjnymUxDFyCO4hcGPkJHkOkiU2WP/APvU0znw2ssfwpMYMFoP6OnlcwClPzBRN5GoAAAAEmhCwSjhgOJhmGSuYObc228OJ0XXa5Kwi/55oF+zOQHdABAmkT72KbLXM7QYQpJUsxe2MPdAjURaXGELLL22TFGWh53Ad/4VpiME+n2y3G+cPLP6OOLOaDR34FoE2KJH5biYwELL4jAAAAA82ekSaNz9peUwDJfDuJ/WBTElPSmdeF7oitcJAPNYzQV+m5dIbpSY8JQetjPx3LdPt9rmbFE8ckelOnRcQSLXKWg5R8Ox1FQ5Nc01N+gyM8qjoHxiZwpSajmwOgAAAFPl5AiN35rxLHScEsgIahrPm4lZE3CtxQC1bKWLDcIty/+FmPKF1F8z8dxotuLJJz11GouC28JadDZfmwevBw6rdwna7FnqQkiqccJ3bP1F+Q7cnqEJxUexwIuUlWLmAAAAd9yzV7SitM5ojdnUTqiOmcgEpLbSiiN5JLo9HTOQPdwjUQ4MUZXUng5QBNIn3ilXcOsKEKulE3yvDU0ak/BCL4YoT8JuuaanAACiE+SwNL0vABwj4mnAAADHgQeLMk5A6wpvO9r53YDJ1Qa6L3fXyBxCXAzSCLeFmI7XxWJn4u/n09KzckDkqi9CCLQnzMcGW7sQeeP4P50HQ1UL/G2S3dqHFgo6fGRIb+v43MQ4qaj2OBFykqxcwAAAFbPa4e+fe+YtuC+8onVEYefI9cWGlFEyBFZ6dr9JwAOIi6dOQdtM0RZIhY6q+TtLAqtzala0s6lvowZbvWPNQixTUXfwo+Nl0i7ZsR5SZXZhktNtRm+8E5XBT+N9cI5gAABjrxh3aJX04Pw+JjruP43tkPqgHFpc3DKV3g5UkyqpTvxRmmq6lkh7g6BvDxujvx+OxdLzUKZBqD+dYP4qnuobwojlpccDc+1P+lg6/FWWawAMN0JkLQ0qjRzCHOnlEwAAAMT7ZjR2JDtMy1RtY0cEnf1FRYGrrx9/3wvaD84dxVvv4GQIwG9XSb86BxCW/0Upv+V4bGpm2my/ykAMfIFe4vVZ6NcvAUG+71rn9ig6J1+Ksp4+O9UZtr7DF3MsSc6cXQYnUAAVrTzuupdljvhoKh0xcGajAwvYKpuYdfmxOrofqoB2Rn45UB3P+SDj96D0Bl1oUYoWmZDVXz5W01nGUCMjPTEgSNJc/C3u1vPyPp6CpkO3/GRIf7GKVJmjJyuCsXBxWcLMAAACVfi69PAJ3GhOcFRxeMYvs/3/JGJuJOPGdDjiqJgFf4Y3wSDj96EMAqU335urWV0RXS9iE13PyeY1xmcol+0R+RqYw1LURE4BALuUsr9ES2hpajA/6Py66EeNw2KAB9CiHhNCiy8bpZ8EAwGF7BVNzGnhvixF7zZlwKhDC02987eR4I0svowZbviWX0YMt32dufW2XitWUwd471gJhLJMs73sYn3Cu2tNfPZt/xkSH7UzAu5/koEgFKkjbkfUwAAAxEYR9Db5M6bVkamJ4WjOsMYj1J51wnALUNXaoHSkv28qdiuO37eVOxXHofrgZ/kILUwkff5P/XfmnhUg2vOhM03VScrKZS0Aizu23CDVB0tdJHsuBOjTDALj6MS8CTiIZAvGMX2f7/kjvtxDMrFaKQg+xWXnzc88XKlN9+bt+3lTsVx6TvKy0VJRpGGRqkrRuFvaaV83gm5PAiPI7xLhO4fGRIftTY0N0ARpel4QWALczPAAGleBJxf54NGKqs4/eXypc5f2ZwmKLTb3zt5HgjSy+jBlu+JZfRgy3fZ6P4Dufmgt87PxfFxGZqL/aWVtQI6f0ZTp5VsQ+H87t1+1ktSH7s1HPIcNoHyBDRrTFbmXxC06oyXXj7/wiDLkqF0GtC3cq+L8OfIyqbfRgy3fN84mBmbvsWskFNS812WdjB9LJGGmbXWHE7fCzFE3A5QtRjySpLI+opvihRK2VeLYuaA/LshyNJxzABBZ2xZHEoYWCILOO2TPMVSn24hmVis5wEe0Vl583PPFypTffm7ft5U7Ff4kN1egAanq/KwSxV6vQIVTA7WNNnfCSVBtwvjIkP2psaG6AI0vS8y4wgCjdUPNTZyj4LcqkU6fArINTJuGLFYheq6uldcgAiztDPNPja+wMhqr6hWeziYGZxrlJVEACg3ZEeAsyuDp92k1ipqzWnT4sRv8rcRCi6ZVgiLKyWolpL5aF5D5i2SoxW5l8QvYgv1JCsGJbmzZ3KxGXJULoNenyYra6JL5GS2D2pWtXqyXi8oxX+IvUSpgAA4CEryF1/GplyWt/0denAAX0ekOs80V4yJD/Y3S6vF6Tl4RLyQzdXadIFztiyOLZyffdbvtlsnENwxYrEL1XV0rrkAEWdoZ5p8bX2BeVVfUKz2b4gzONcpbWLtYAA5uzPAf9yEFj7+5rvSroZ/lM4U7oVtM5cJtLE30VNYq5iFrehCYrrGjIjpF6s4QR7MS8axZ2r2djWFL0n18kgf6PS8RRb8fbka/ndl3h4gCVMamYKbMBuvoCO3+Zjy6Sd5UgJd/AAASjV4C0qqpVNH68vMIQt4ZPB5JW95bv4zXcepTVwgNyx+ylJHYNhYbyvmo6RdaV364SAARVhJRroAAABFeGlmAABJSSoACAAAAAYAEgEDAAEAAAABAAAAGgEFAAEAAABWAAAAGwEFAAEAAABeAAAAKAEDAAEAAAACAAAAEwIDAAEAAAABAAAAaYcEAAEAAABmAAAAAAAAAEgAAAABAAAASAAAAAEAAAAGAACQBwAEAAAAMDIxMAGRBwAEAAAAAQIDAACgBwAEAAAAMDEwMAGgAwABAAAA//8AAAKgBAABAAAAvAIAAAOgBAABAAAAvAIAAAAAAAA=;" parent="1" vertex="1">
          <mxGeometry x="1038" y="328" width="33" height="33" as="geometry" />
        </mxCell>
        <mxCell id="9_uiUGIVb2UT8xTKy1jM-9" value="" style="shape=image;verticalLabelPosition=bottom;labelBackgroundColor=default;verticalAlign=top;aspect=fixed;imageAspect=0;image=data:image/png,UklGRuxnAABXRUJQVlA4WAoAAAAYAAAAWwMA6AAAQUxQSFA/AAAB/yckSPD/eGtEpO7hDf8/11ba/3u9Z9ba9CoiIhZEsWBDsRfU2JVoNPbeY0mPPcWaGBNr7L0kxt57V9TYQFCxA9JBEKSz15p5v27svWeVvbk+n8O5E9H/CUDZDTYfCkE71QhH/7sjpJ1KjMO4BUy7lV/zCrRTFcR3c17/dioGG80iL4O0SwH+woQz+0HaoQi2WEolr0bU/kTQ7UMqPSeuC9PexFj8l56k41WI25nYSK6kkqTn99sjaldi0O0Gp3WY8IEOkHYkgr7P0ynrpzyqPYlgyFg6ZUPPaatB2olIhF1n0CsDPe+ASLsQiXHAHHpm1DNg24UYOWEuPTMqFx6AqD0IzljmPTN7zt0HUbsPwWmJOuboOGc4TPsOiXBqSs9cPWduBduuI8YRi+iZs3LyprDtOCz2m0PP3D2/HQLbbkOw0ww6Fug4Zl3YdhqC9SbRsdCU7/aHbZdh0PsjOhac8sXuMO0wjHR4mp6Fez7QGdLuQgxuoGcp7zQi7S0MfkOvpVBeCtvOwmL4IvUsh3OnI2pXIej3FR1L6nXJfrDtKSCP0rO0njM2g2k/EeFCltrzw76Q9hIRRiyglonKB9pNGAwYQ8dye/4ZUbsIMbiBKUuuXHwQovYQBgfQa9no+Pk6sO0fBKtNoGf5Uz7YCdLuAbiDns2Y8nftHwQHqLIplYu2gbRvEHT6lE1C5ejOaN8Y41Iqm1X5D0TtGSy2nU7fRHN/gqj9gsA+xITN6/h2N5h2CxaH02kT0fH89guCPh/SsZk9f9wctp0CcBJTNnfK+ztA2in0nEBtMnqOaKcguIDNr/ykE9ojCvpOoTYdyT/CtEOI8U+2QuWMQTDtDgw2mEjfAuh5O+J2BzH+zpStYeZ2sO0MLDb6hq4lMOFNMNK+wOAcJmyNnou2hW1XYLD6F/QtgilvspD2BIIjmbBlem7RvgCd3qZvJQ8I2hXuQGVL3ag9geCRVnMXTLsBwerzWovy+9Ug7QUs/sSW+zfE7QTEYBR9a3EcsxJM+4AIP11AbS2qPB1x+4AYN9KxxaZ8viukPYDBgFGtR73ujag9QIzD6bXVMOGVgKz4J4KbmLDlek5aC2bFP4OBX9O1HqY8BNIeYC+mbMGeL1TQDlCubE2krgdZ0U/Q+1tqa+LF7QGG0bMlK79BO8A/UlsTuXQPmBX+3m1ZypsRrejXbxFbteeYTpAV+gyO9C1LuWB/RCv0WdzG1p3yGsQr9BmMpm9hr/eEWYHPYMPp1JbluWBXRCvwRTiu2sKY8Pcr9FVwHT1bd8pHu0BW2BOL55i2MM+Z68OssGew5id0LYwJ91uBL8Juc+lbWcq/Y8X9GKfRaSvzHNUNsqJehL+zyhY/aMU9xA8waW3Kw1c4kFpTX+oWJGKMEWkOaSS1JlAC8xAxRkRaxKrv07W6m7ECoEhsTKNiTa2NGlqDwCiyUj7ASp1mtJFpBZvMom9149r+BJ0veO6eu2645m8XnXfW6acfd8TBI/bZefgOw4cP32nfn+538FHH/uKMs87506WXXvmvf91199133/3AYw3/fce/rvrjSfsMXW/17gJA4tiULP7nw7f846KzzzzpqINGjNhjp+HDd95h+52HD99lnxEjRux/+JFHHnnUqaeddtrpvz/nnHPOvejSSy+97KLfn3bMz7bdYI0eAiCKTdP9hE5bG7loDUib38F0bOpk/PNXnbLXkI6ARLZEBmezSdPvXrz2xJ36CSSWJjuCVbb69CCYNj70/JrOe+/qp/WTNNA19tmdc2maKkn6iU9d8tN+gBgpiWDVyXTe1aaBSZrVZU7TNPWkcukHNx7eF2Ka63wmLY9nwbbtCc6isrnVp0nVkVzw2X9+2gkCKUWMy6lsTlWXVJVcNvbKdWAgzRPdyrT13YqobQ8dvqPX5qqrPk1JLvvq8sEArBQm6PoOE9WmqKsuUfq5d68FMU3T7UW6Vuf5ahufxa9JMk1S54tQ79I0SZIkTVPnnNccSKp3nmT1rqExrCkqwgFLqPTVJHU+P1VfVzUHkuqUnP+rzjDSJH2/pG99n0Kkbe+3o7+enZKkVhOfkyYps/pqNXGaqVaVyiX3bC8SF2Sx42ufTV3CWk3SfJKqY31Nq9XEaSaSquSLgxE1yeoLqa1v4powbXkAug0efuivr37qsyVUdbmoJ+eMeePZh//7wENPPfnCO2MnzPWsdc5rplrvuejaQTBSCIB4ta32P/Xiu17+agnpNA+Si2dMmzZ11nzHus5rJlITTvwJTHOsS8dWr5wzHLZtz6Bul0HbH3PHLOapXHTziC0GrtytEkVxl849+g0csuVuh/zmuldmKmtVM1FT5ZcnxTDFGEHd3uttd8zTntk9r9t3j+0223TTTTffZvjeh5194+vzSFI1C5ly7v6Qpth+ubDkUERte2KMjSsWACpr/HkBNRP1AhjkaHoM2Oy0R7+nkt5nIX1C//gqMFIExNioEgsAdDp4fqaUj3eFINT2XHPXy7+g0msWOv64K6QZDlku6JmI2/YaioksDHafSZ9BOQomssYYqWuMMTaKDGpN513vnFylpj4L6R2/2h7GFFFfjImM4CC6ME15NDpFtmEUCQBIh12fmE/vstBxxrowTfBb+pZH5YUrCNSKxDjVU8PI+2CRq4igtuPRz8+nTzNRldVfWGMKq2vQ+WGmYUz2QYRwEQGArR9fqj4LPV8UI+X72/Ig5Y2orDAAiMFY+iy3weRTX4ygsttdVXrNQird3zuJKQUinMRqhmV7ZaorBpXjJ9NlUfI3iMt38/Lhv4hXIIDFdcx8XTGARBay6wv0mok+5W3dICXZ06uGLd4jH8BUsMk4agY6ftgfpnQPUpcHz8DICgQGR/hMlxcFIDLofNRkep+FmvDejpAyWGw1iz7Ec+FueUEiDBpHzcCEv0VUupeWB45vdMGKBIJh1UwXlgASCVZ/mOqyUB1vBqQUm3yXZf4uuQEGG3xPzZDytT4wZfto+fDuSjArFAxemuncMgAigt/OZZqFSl5cko0nZpm7E2xuEBxKl0E9t4ct2zfLh1H9VzAYuCTTH8oBiGD3cXRZqExPRVSKCVnm7FBMh3uZhjHlOSj9tOXDJwNXMFgt22/LAsQY9D7TLPScuzuiEmw0PsusbYuAxY5LqWGOT3aClOx7Lgcdv1wfdgUCYOXFmX5THkToN5IuC1N+OhCmuCHj6cKmb1WIwD7IJEz5bZ/S/bg88Jy42QoG3RdlOrNEMOj7Ll0WJrwtghS24TdZpg4rBDFOodcgKtcu3ZLlw7StVzDotDDTGWWCoN9Y+ix0PBJF5zFpaDEWm06kD/PcunTpcmKbFQyibL8oFQQbT6HPopy6Sgm+zjJx02LE4HW6LHuUTpcPU7dawUAWZDqlXDDYP6VmIHkrTFEbfBXm+O3GxaCCe7IdUrqly4cpW65ggGwnlkwsLqHLovxxG5hCDNbP9PWGBcW4kBk9j0HZ5y0fJg9b0eH4ksGg8ytMM9DzCURFfZnly/ULinBSQs3wc0jJZiwfJm2xosF8aoZjIOVChB3nUDMoF4xAVMx6mb5Yr7DDlmbasXQTqMuD74auaPBjpqNLhwhXMXPC/8BIIYM/z/L54IIsRizKoBxYunHLh682WNFgXqajygf0npzJc8GOsIWsOy7LuHVhCto/g/KrlUo3cnngOHZNmBUL5rYAwS+pGZjwIkghgz/P8tk6BUU4clmY410xyv7o8uG9lVc0mNMCgJ4TqBk8vxgAU6ZPi/uVD0t4BEzZbqJfHrzeGbLiCX7NNANT7gspYr0vsnwyqKAY19Ez0HP8uuW7aHmQ8nmR/0cRY0T+zzO7FRgMnkGfwfEOgzKNXbugCM8wDanyChgp2y+XD4/BNoeJJBcxUV0jxYmJ6htpDSLWRvWtFWk2sVZyEBtZAJDIGmkFYqyNaq010jLEGBvVt9Y0zZxWIMA1TDIo5/SCFLD+l5kGFmOw5md0AZ5TtoRF2Q+gWx7ciQpKLyLIUwQZpQhBVmkuEeQrTSOCPEVQ26H/gF4xaqW5RJCjSG5SEhFBrtIKjmwGRBhB1TCSu5RqzFrFRDg0oQZdjhil33h54Pm3sokxAAQ73rwdTIgY1G5yynWPv/Liw9efupUFYHIyBgAGHnLFf1949en7LztuQwAw0izGoG7/vU6/7L4nXnrthcfvvfL0fdYWADBGSmcMAMGql7y0PkyAGECw4S/vG/X5txO+GvfmTcf1A2CkScQIagf97ILbH331tecfuuGCQwcb1BrJRUohRlC7yh6nX3bv4y+99uJj/776jH0HGgAQ03RHNIVBv3fpMl1RzFdZPl6zEDG4lQkbe47tCSnf6ouorU7JXyMukYksAHTZ8Pyxy3gL4oBIYLoOv3H8MmVdX51w+cYGkeRgLFDZ5ILRSxzr+6UTrh4aQ0xTWAtI18EnPzBxUaJsrOmS8fccu2YMGFsmY2MB0HHVI56b7/gPVBpIJDCDzxu9VNnYL3x5RGcR0wwmEqDDmsfePX5JysZu6czX/rx5dwvYSLKIRYdNo6KsBdBl3RP+PX5hogxMlo7/9wlrxYC1JZub6fCmQIzrmGZQflCAxQaZRq9RiMXQWfSNPBcOh0H5+3xG3/qWHIKoHGKiigFQWWfPyz4i6flogI1gBp81jp6kqldVUrnkpiEiJouJBP0PelFVSdJ7VZJUPr9zJLZ8Jhb03Oa8j6isq6peVVmrXPjYYf0Ba8phbCUCYPtv86vnFlKZ8GFYqWMjdN3x7mUkqb4+Sc9R+xqxpTOxoMP6Jz1TZV1V71WV9b+8cvdVBBLHRqSesXGErrePqRRjIkG3rf7wHhuqeu9VWatc/PiRqwORWf5EOKxKzfJDb0gBX2cZVYiIuZ4pG3r1x0PQhF2eoWt9c3aGLUyMsbEBYNf4ya/vn0olVZV3NJAI0dZXfk+qKgNVPaedDJEwa7Hqr8eQDRqqKnnrQNiSSSRY9xcvVqlU1ZpgVSU59qy1YE1RYmwcA4LeWx993ccJSVWmfKyeROiw+0MJVZXhquRtA2FLZg16HnT7bCpVlRlVlcpRf9m1FwSwcV0B4t3e4LzORUgkGHTSc0uptTXBWsvPzhuMyCx3DAaOpw8jl+4JU56PVi/CYH96NtSUZ6M55RqmrW/yujBFCeoOPviShz9eQDJNPWv/gahGBOvdOJs+VWZOlTd0gASIoMtZYz1Tz+zO8YsdEZVKDNa//GuqSz3zdonymz90ghQiqLvKHmffNXIGSZd6JZnyP4gBiGDz++cxdcrs3nHsNrBlEoOVTnvN0adeqXVDSGrqyPlv/OOITbujfoeNT3lkLlVXLUAM1rx4HOkTz5zVpcpv/7gSTIl+zHRYc8BiJF0W/hY2vw0zfTigAMGQKdQGnsv+GBlpCpzEaqvz/BQiRaHzpof95YH3Ji4mySTxbHhejQi6XTKFPvXM0zv+pztMPRHBQaM8U8dcNeEPB8CUxxj0u26y0qUk1Ws99T6IdCn1fztBpABg0Ig/3P7Gl/NI0lWdsm7C21GBCDr8aQZ9qsxVq5y9G2xpRBAfNzqhr3p6ZaBqI5KuSnLZlE/fffHx/97/xGsfT/b0KXW13ETQ+6qJKdNUSfVaT71qAEmX0I/aFZDSzGsREa6nZlDehqiAbzKtlpcYgyFjqayrykUnIxI056502vJeRoRCDTZ+bNbClLUuccpAdxKsWMHen1OdZ85a5YOdITVWMPhpT58yd6dL94UpiRh0OGMa1TmS3pGkOqck6VMNIZ3n4vONSE6CHhdNnL9MSVIT55WNHa9GxRpsN4qaeubuOHdn2JIYgyFvKn2qVE9dNmPkg/c/MnLaYk86DSA1TRmeKrmoa05iEJ8yjXROSe9J0jvHWk01hHSO1b9GYsryY6ZDm8TihJQa5vg64vJ8MABWJEzEmMhCcMBUOtb61POrnRAJmnTINPoWR14HW4jBkCn0JL33qgxVVg9HZDHgNlX1ytw14ZUQASJ0/tUP9F5ZoOe8YZBSGIv1XqWqJ6mJcs7o+88/5Yjjf3Xp45/M8tREQ6je84FesLkIujzGlKQ6r8pwz4vRCZVzF1M9i/Sctj6kFMbYExdQvZLeccr121YAQLDeL1/7kakPIVW9d857753zSio/jPORGGu+QKonyVT5w5gHzj/1yGN/deljY2Z5aqIhVFU+2Re2JPNbhMFWC7J4joaR0ryzMqyxcaVxHFvUdt3sPqonSU0dF97QAyJo1r5vMW15ZxRksR+XVJ0yu3LZgYix1ydUJenTpFqtJqnTLFTHYyHGYMsX6JV11XvvNQcqP+oCKYFYOWA6VUnSe06+ersIDeMtz3t2Ib0PIZnypX4weVjswGWqzFOVZ8Ou8xi9smDlyK4oo0GPa1N6Jen90rvXRqjZ5fFl9EHZPS9FrmJl7+/olSQ15bTrdjJoaLY4+9nF9D6EVMd3BsAuTwRdv8/2dX+Y3IZ8G+Y5YVtYZO206kZ7/+bplA2VS17aCxA0reAWJq2uuitMIYLetydU9Xks3Q/dzl9GR6pXNlanGaicNQgWJ8+iU5L0XllXvWai8grExQk6/3kxHWvV866hgImsMcbayADRno9RNYyOI1dDngabLlWXE/1p2ONTetaqqvfeq2oOVF4OW5yg9xNMlCSVP54ZIzINxEboeMpCahGOW0LyQOWPc+lYq5r+dwsDE1ljjLWRBTru/l+qDyIdR60BKcUCZj2kSWDwbbYpm8DmNz6MynGPPXTfbTdc9Y9/XHHxhRde9Perr7/7mf9NSEh1DRY/9PNusILmjfFrpq1uYU8ULOi600VjSFI1jOSLhz2tdKpULh153a9+vveBJ577yHQqNYzKZ7HqXSlTqiprp73/6usfzmStZvCcthVsUYLKv5h61jrOPD5CxSLQVgw6HPw1vQbR8ZUukGwQHDWPnlTNgb89eDETUpXhqpk8p28OW5Sg4+NMlCSVy05FxSI4sthtJjU3TXhHnIcAtzJ1rPX88eROiK2gsalYxAeMpQtjynd6QJYjgpezfb9jARuNpw/K3VdTZV3l17tCAIg0TYTd5tK3NOUoFC4G6L7lzXNI9VnU0aWerL549IBuBnU79tnnDU8fRvWjxtF5ek/1k246aO2Ve3Tt2qPv4KOfWEz1YUx4D4wUI4juYOpZ6zltR8QWGSUyWOkBqg9iyoesSDbA9D/1jWUknWYguWAxHb0n1f/wxk3nnXnq7y5/dJInvc/AlHcgKgq4lV5Z/xpEgowSYZd59BlUU+e8c87x00EwyCxG7qR61irnDEdkkVEiQe+7qRpEx2djLFduz6Kcvx+i/CZkcmmaJEm1Wq0maZom1SRJnVOGVud+e9tunQCxpkkM+o2ia3E3FgexAsFKf5xA77PQJ6pTrx+MWjHWCgCDA76jD6OSqurIOQ/tYREoWPumH+k1yHPOdrCFiJh7qMpa5ewdYAXZjQEuo2qQOl6IKAcRAGv8aWxCdZmoSue5+NMrdugIQV27xU1TVV0Gz6lbwRZj8QtSWav8uhME2SOcQK9hgcueXgcGmcXKLfTKWuWPO0ME2cUY/FmpQVRegagJDm6ey5lRufjnZSqnctIlG3eEiaQpEOFhpi3uOEhhAEQA9L58Bn0YnefMa9eGAURQX0SAtV6lC6MqfcpZN64PABIIYIexdEFMeAmkEIPL2djzCIggVwEuptcQes7fHTYbIICg0+GvJvQ5pFz0xMExggVrX7eALowJ/1iQwdBZVDY4HIIcReTfTEOUr17wyOtjJ3zxv7tGQJBdDC6kV9Z1PAGCfMXgPGZULtwPUfl+3jxnZ1t6eAEbN4OqUrn03j06IjJNEeNsUlvbkHLUWsE2n9MFqeMT20IMMlus/A5dGOnp7tsUxhqES4xVX6QP8vxsAEwBEY5OqPUcbzLIXcT8ky6Iju/1g8mh1hpER4ymz0S+sW8FxkqQFRzwGX1YytdXghQgFg/Tsa7y2975IML2s+gDHP+Oihmw8aDOgMnD4GCnyrop767kVnsxXRAdP+oPU5S0kFOyJccUMTGbhudTq95xyYO7wJhmMNh8VktTju9VHkgnHJNSAzxnnV5BbJBjjCHf0ocpvznQwhpkj9D7bfoQOu5WhMXQqXSs6zltbZjcYEynh+mCWOVZyF1ii95P0GX6y0qwEbJKjEEf0AWp59awBUQ4OKXWS3kR8o5xX1DKl7rGFgDiCDkK1plGz7qeU7aARe4i8Z1Mg5jwouLMwtZxTLZlRxWwSQ65qmomkonnvJtXh2kCGIymb2GOt0YosUHfT+kaKX/YB5FFvhWcQdUQx1cGwljkGmGd76hhf0X+gi6PM2H9Kv8IgwItVhtHH6ScvwYkJ0A6YMdZ9CHKZcdAYkGOFWzwDX0IE/4Ckp+g8iAT1k+4J0xOFnsspDZy/GwQrLFWkK88Qsf6Ka9BjAINVvuQaZDnD5vALjcOy7b44DKls0a/NXLkyJFvjxrz5cTZzteQdE4zURPlV3vASPksrmErT3gkpERi8XaI57/RwSBnMXiNPkA9D0QHQc4Gh4Qp3+1cxDFMWd9z0iawRSDCwUupIfS8FgWK6fg2XUjKP8Ma5Bvh4KXUEMf7K5DcLHZKVOt5zhmSGww+DfH8cTgi5C04gsr6nlM3gy0CEfZfTA1hyn8ZlO3g5jkw28L9i/guzHPmPqjYulEUVyrd19nxhL89Nf4HT2ris5DeMTlHYEonGJ60MGV1M5hyvRWgTI9HhNwjHJdSg/ZHhPyjF+gDyHRVSF7oPYHaIOF9MFIIDO5n1jl9irB4JchzwqawyNvi8TDlV70KAP7ChPUdX+8Dye9aBqrjYYjz6/R50POIUGyE2+mDlIsGQpYXh2b7ca/SOL7bFwbZ401+8dAXS6mpZiFVeW0nSNkA8y21ZTm+3gdSrjeDluwNkx/Q4ZsQVnl6EYLhdEHcJTfBOWys5MmIUfTgxVn4F9iypHw+EslNMMwzWLlmfoKe79I3SPmfDvkJfhbCKk/LL8I5DHWnwxZksO4MagiVf0TBsiDTIc1zVBbP73eAzW3TSVneWzWTiDECYLVjH1pI7zORyjsqkNLh7y2syotgUOYoy56FGPyLoQn/Cili5Y/ogs7MS9DtO2oDz28GwxSGq+mDPD82IoWkAQnvQ4wC7WhqiOeuRQymZ8OEtyA/oL8LuxA2J4Meo+gaKH8YACkIFlcy6+RK2Q5tnuOzTdoApjz9MtU1UQx03PKGhJqNKa+FSMkEm9O3KmWyL6KSvRG2RyGCvTPcIpDcYPBHJgHKG/KyOM2zseNIWClKsEGiGqKctydsAS8HpbwFlSLwe/qwk5G74Kd0If+AKaAyhdoo4VUQySfGiUoN+BSC4vsvyuJ2gywnfp3tq1UK2Gxylv+tkg8AExuYYS/S+0ya8LewpevxEX2Lcny3H0wTLd69EKDXwpCU/+1QRIT9mWrIU/m9Qd9IeTNiFFe5h2kIHa9EpTTXFyIYRheivCw/4E/0jaq8DAb52zdDqrwMBrmK4AEmDLi9FLiHGsZbYAtBC/lztjGRSPMBEgmiPyxmmoXeL9kZtlwAfse0RaW8ETFaVzySGvJU1yIstphBH/JBThbDpofQnYaoMFiMoNOQlK93huT3UqkGzKMG3VXEPSEJr4ZIfvIgfcj5sPlYbD6NvhH5izIItqcP8vwSIkVIC7k62xuI0QoAMRb7TKLLQseRvSDlMth0IbUlKRcfgqhsr4ftVpD5N33Is92LMBg4li5kUk4xzqbXBsrF+8IWZzBwLF2I56QtYFtD71H0QU8U8QQ15DZBAbgp7NeI8zqBCUP3LEefcfQhytmbwxSBFvJfapjyTkQtAoDBlt9Qs9DxdJRcEN3DpCV5juko0sLw17AXehSz8ptMQ77PRwzuZ8KAuZvAFCcW/2ISosojEOcV4cUMNxbU4w26oLcKkDdCUt7foZCrQhKemJPA3pJh/TIAuJRpWHoiolId1iwGb2Uhz4PNb+iUsiHCNlOpWcgpPUqGCEfRaysir0KEcsd4rVS/owt5qWcRgo5Phs0R5Gmwxii6kBm9IcUhxjFUDWCVFyFqDZ2fyPBRAWZkiOMbKxdyRYDSj0CU06qj6UN8T5TRYk+mGkDHG1Ap1eHNMz5T9UCY8rzbtzBE+DlVM/EMmHIZ9H2PrgUpF24B01w/KeqUEMdXexUjDzAJmdsxF4ttv6cPmWpRRouh39GHJLzLQHJ7oVSV+5gGfVKAvBriOX19mAKuC/CcPBQ2F4P1F1ND5nUthcH6k+lDUj6JaDkg6DU7g3LeGpD8Np9aPonwT6ZZlB+VDTH+TK+t6EMISvdqiQSHhr3euxCDezJ0yiXCgfQaMglSBhH7Bl1Iyhd65oUIz5cIMNdn+KIAPBGijjvAFnB3gOMH/WBy2p4pGyundSmFoOuTTEMcR3aGtD6DLRdk+hKCVgKDNcbSZZq7DUy5DNacQN96yOObbtei9mEa8tZKhVjcGvZDx5x+ySpDJsCUARXcGeb4yVowJbmpIPw1w9dF3EbfiAmPheRnX6Y2SPkQrOQiODHDt51LgQiXsxo2bhBMmY5oEosjkkz3tRrEOJs5nouoXIhwK7XlKKf3RuljvFKq3cLe7lMEIlzHalCHPAS4iknQFyWJcQ6pAZ7ThxTwXLn+xKQsFwY53hUj/8rERqr8PWLkfAVd0OedyhHjdKYa4DllGGwR86kZjmySCP9g5uNajqD71/QZHB9HXDLBegvYch0vRtPtUtSuYW+tVEiMazLE+UR3Mg36tiQWBy7OMG9obnGmm4s6P8M3RRxOF6CctTIkt9VSNvScOhQ2J7mdPujrkkQYsZhhs3Ys11FNEuNFugy6ejHTsryzchlgcROzOr7XGVIuCO6kthjVdFOYFrdTqa7KYPPp9ECGSSUx2HRWkHLpVrC5PVsmwR/KItgkiJ4/z02wP0Neg0XO9oEMk7uUw2Lod/RBc3dD1PIMeo2jD1K+0xH5N41gp2VZPL9eD7Z0G6atJuVdMaR0Fbxcqu3D3izqyrA5Jp/uT2eYDCmFYJVJYZ7bt4rfZPi2iH6TqQHK13IzuCWA1UPyi5/NMLMkBmuMpQtQLtpvORBht7nUIMc/oJAtpjcFEM+kZvl+Z0QlA8zNdC1F1e2JCC3NYJuwN3oXUsE/Mkg+K71OFzS9C6QUgq/pm+MWdCjmjPJU/s00gEx2heQj9htqPeVY5F8ZSQ0gl3YrS/e3lz8VnEcfpN5vAtOC8GQW5fx9ymcwdKlqK0n5sBFphpeCFhU2LOz1ov6eAfn0eTPD7LXLAYuPwzTZpoBnymRwallgcAyTEOXrEMnD4rBljTxHQHLr8E4GrlYOMXieadD8vVqfCB5jytCUT3eDtKJLsy09qHwCXMVqC1EuOwQRWt3QUl1ehl4vZZi/LUxJRlIDPBduUcDTGW4t6kRWgyYUMmQSfRB/hzgHsXiGjnUd7zDIv/IqfdgwSCkiPB7kOXvnYhYw6zFNYTF0En1QwlNgUcSwGc1yTLZlB5cPFptNomsdji/DSsvbJOy1XgX9tQzdn2YatPRA2JK8lGHaEJhSJLytqGNLA4trWQ2g5/c7Ic4W46Cl1DqO41aH5Bc/m2X/ciDGwxkmbwFbgF2Y6dimiHAyU4Y6fr4OTKn+t0o5BLvTZ1k4ogkQ46902iqUS/aDRVO8UKqNw14t6rKw2ZBcOj0YRPJsRCV5Kshx3Nq5VfBUM00sZptp9AF0/HpTxJIhwuof0bHWcc4OsMjfPpjlnJJUcD+ToC8HFxJnOx6mfIJuT2ZIeSViFLLVrCzv9SvLNlk8f9i9GQz6jaNvHa/AoDleLtVGdCW6hElxuJ5JiOddiEvyWFDK1/vkFuOZFoUIV4fR8/MdYWIJkAo6P8SUtSkXHYgYRV5LF6K8pyQdcB/TAMf/9YIpoGO2k5rBYGtVDfGcPBS2mG1mZ3m/f1k2yfbdZrDlg8WJKVvntpCmiPFK2M5Fbcw05OWeBV1UHAz+wmqI4+uISvJshv/EkNyebaZJhQh6jaWGUPnDL7vCWCMCiLEGAx6kZ63jj/vDotBzs4wqSQUPBKV8FlYK6Lwo06nNALmGjqHKmxGjmG1/yPLhamXZPNsn/WGaAAavUluD532C5ozxatjwojZrnu/ziXBamOfnA2DK8UpQlX+FRc4Rns9wR+uAwfCl1BA6Jq8c2wWCWkGfX46hJ0lVfrkLDIoUHMU0bPZKkDLEeCTI8XZUUGC3bGc0gWDgQmqIcvZASEHbz8vy0epl2SmL4+swkos0kpwEwxxbonLhBpDmiPB6qYaFpHypqMtYDZmZ1/70GqBcMAJROUaGaMqTEeckEV7McBcqZZpcDCyOofch9CmXfHn78Vv2795rwyNu/8IxJane8cVBsCjUYNswcukImBJIhMdDlPw94iJ6ZvtlU1xNZdiFMChoh/lZRq9Rlv2yeN6OGNlFUCs1gMkFwGVMW0GVf4SgWd4s1TZhL/Yo6K9hM/Kx2HIafQAd/4RKOT6hb+Q59yeI8rJ4KcPdrQQGv0jpQqhOSV22aMHCJY5UR2qqXPSXCiyKGjyPGsQrEJVB8GLY/D1gi+id7TflE6y/gMGen3VGwRY7Lcjy8VrlAM6kBinT0xBlM4KOw69+69vpU0Y9+us1BVbyEPQdTdd8jh+tDtMcYjGyRIIdw14o6u8lMOj/Pl1IyscspDhB5VtqI8cP+8Hk9wpd0L0tBQaHzmXiA0h6ZUMlmTrq69vBCAoW9P0fXYjn27BSnEGv/9GFTOwOKWLlxZl+X74Ij1Az7AspbOfFWcYOLMtVmWYOgslk0fG4z2e+csmpPzv8d7d/PvOmdWAkB1jsr6rNpvRHIkbTvB22c1E7hz3fvaB/hE3NRyzuYxLiOWML2DL0nxyS8j5EyMvgtQz3IS7T1MJgsdVL1FRDgjVNqf87QSAoXCA3MAmbsQ1sGQZ+GvYiIuQvGLAk01mli3HY0rAqr0YJdllCDRu3blneyPQ2DLIaDBk5+8KBqB/t9dKskyGSgxhcT9dsno/ASrMYvBO0eJeidg97rpgYV4ZNyQcVnE2vAUx4YhkMhs0OUPrTERfwRob/lImcURwsev5mIlU1i9aSyXPH9YQxKGGEE8LoeQEqxVkMm0LfiDwDppB1l2b6Y9kM1hhDx8CUH/SHQWG7LsvyzUawpejyQwby1GwWu81+bi1IHRNbRMcuvAJ5wKDvGLrmUs7aEAbN87+w3YraK+zZoq4Jm5yTxa4/0IekfKobpLAIRywNmrgWTG5i3gxKeX+5ZpUAkWDQuTPoG3ivNSSV31y2XQ8gEpTRYof59CEpX+kKKSzCgQk1YOkASCEbL8t0eckEHe5lykDPWTsiQtER9nAa5Dlp81IY7JUw49yeyGqx+ZxrIvTcZqftd9huaHdIbLHt3Ethc0CE/RZRm+w3sGgaid4P272ofUsU4bqw73ISiUbThdBxa5jCYlxMZcCjiJBfNDLDA4jK9EMZYCxM7yNG1vGetVpdNPWZczfvLkBkUE5Bj5eYhqjq/ogKi/EbJmyofAqFCoZVM11XMoOzmGqA0v0CEUqwL32GGduUwuJOhjtejKwGK3/ysBEM/colzvnk6U1gLYYvOxJRDrC4gr6ZPJ9FEwu6jApasmdRP6MLeaZbQdeHTcwJEa6lZrjVoAQP0jVidR+Y/NDlfxkeRCQlml8KwAjQYRyVqn7KGw/ddPFpe68jqDWC0sa4MIwJ77CQgsTgXyGeIyDF7JBkur1cFvt6VQY6/hMGZdifLsPc4WUQ9PqGPkQ5a3VIpgsn9EUFw6Yk99/3wEtfccqGsBHO+a4f8o1eom8e5cx1Ic1j0Gts2N5FHRn2XPdCLG5iEjI+L4NtFlJDyGRIYQZ9RwV9jAINen2Y4RHYMi2QcsBa7DKbSi69agAM6ooISm2xw0z6EFW/PUxBBqu8Q9fAc2yvonbPonwMtkQWu8xmsOOdKGWEnzPNsGg3RMXFOJfhCX8DQbhg4JzjEVtsPv3bCgQd7uSNiA16jvtTPoL1Z9E3i3oeA0EzrTqOPmDpvsUAp4S90KMIsbgl7Ju8IHg3g/JhSEER9phH30B5KKSIVcZkeAKmTAujcggqp88lyWUHwURRZK0RlF4snqcLoeODMQq22KpKbZDwBAiKNNgvzTSmTBF2mkkfkvK/HSDlOIwJQ5V+RAkM+o+mC0n5Uq9MwHmjKxCLzad911miCjbl8xEkxu++WykXGByhXpsk5a1Gmmutr8J+WtRvwl7qWdBtYV8XcGgGculesMXE+CNT1vd8vysKNFjjswzPQEpVKYGIwfpPJVR6XgZj0LQWR1WpIfTcF1KM4HQmrO/4v1VhCjrEZ5o+AFISsdh2Gh0ba8qHu0JQjqNZDWLCkxAXJRZ/ZcpAz2nbIEJW++41qKBmYgeIYG2+1g3GYtMfdspHLC5lqk2RcvSqMGiqwd8GLfs5bDHnhzi+0qsQgzvDvswN6PIlNchzdHeYIgz6vhXguB9MIet8SR/0QoQyLepanDHo9Kcf6TzpuAEMmtjgkwzKr3pAihD0GElfTz2PRIyCfslM6WmIymEF+86kY2PneV9nMSilxW+y3SyQgiLstpQaoHSnIELmnjNGwNaZUAEEO/IxWBGDDy7MB8bEDzFtBuUPw2HRzBabTApKjizqMvqQV4u6J+yL/ATHMgmi59WIpACLEXRaL+HdEaQAiyHjM7zSqaATMixeuSgTobLHGFKVpOfakGYSHJGByptgpZBt6Vnf8WGIFGPxtyx0fBFWSiAW9g+eysZO/T8hglIKcAWTMM/vN4ApJsJ64+nZWJVXwCCrYOOZQ2DqfNct6ti9/5P8C2KggmcezAkGK4+ibwZ/EgyabNjUoPS4oq4Je713IYJ7wz4voseLTINU9XhE+Qm6P0/Huo5fbwiLQjafFOT4RjeYQs5gErRkDUghxmK9O6tUZa3jCJhmAszr9BnSMxAVADxPrec5bQgMirqHmkHpj0SH4myMde4mlY0dp50AEZSlw31Mw5jyXEghEdb/mMrG6nkzchT8ZFJfCCy2mJI888yTzy7gsytBgBh3PJUXDLaczfJ7XgqDZtt5dgDpTi3qlrC3VioE5sGwz/KDxd6pagg9v/8JbAEH0bGucsnBiFHMNtMzvN27EMFvMyxdryBUfjuRqbK+8p0OsM0k2IGqIfT8YW/Y3AxGKBu742BRcIR36DPQcdy6iKUYseh8wkSmDEz58dYwKKugzxt0GZSzVofkJxG2+4zKxpryxiin7/rUm8ypk+fx29/1g6DOE7nB4DB6LZnjfyto9ghHVKkB/syC7KNhb/cpwqDXK0xDxhYgBlcxDaLn1J0gko+g/3fUeuRlsCg0wr4LqEEfrFrQeRmWDS1EsN7L9Kky9P5+kHrSuEwALmYaRMfvfwKRfAT9P6fWUeVVsCjYYMDkbHT8Ym8AIpKLiADA3s8tYcqGqvT/7ocYpbVYfxE1A5UPASK5CASVX/zAlI0900srIrlsMmNDGFhsPm3qkJUP/XFKNxgAqOCZu/KDwdlMtVQp3+sH02wVnE0fwssRF9JhLDXks9Vgilh7LF3INIjkBYOe79MF0XPmfjAmD4MOz1BZq8oHDKSYGCdSQzy/GgJbAOQqpkHVHWHyE8Fb9I7BXsdfONjWCRZrrTEiJTDo9TKTIHrOOQAwkoNF5RF61mrKhzuiYDEVXEBlds+Ftw2CAGKtMSIigIiIMdYAgNnlhUV0jg29ctYRMQxKKsYKfknHzMrrRATWGiO1gIgx1gDAVi+k9GyonguPRyTItde0vWHrjO8APMzTIQDE4sPfFyCCvzPREjlOG4YITW4jPMyEjT1fQAfJz6LfMgaq5zBUJC+pYHdVbUS6Y1GxkhMstpxBH0TPZWdbRFEWE6P7k3Ss1ZTPdIKgUOmAK5gwaOHuiPMTdH+ZLoiXII4kN/QaT8+MnuTE52++8NdH77vNemsNWKV3t46ChqYSWyPFwGKLyXRBVPrzO8JaySAxujzAlLVa5Qu9YfIzxsaxGPz0e/oc6JWLH9x3tc5oKNaKoK7tPeS8r6jqlfWdY/roAIhB8WKMjWIBsPMC5un5xo49DOqLsVZQa1fa80mlejZMPUdtDivI17x0NSp1Jna0OCD5Lq6xGDptkwIgqNxBVx7P+fsiQlObqGJwSJUaoFywDzrEkclBbBRb/JPBno/2gqlERrKZKEanh5gy0PO7jWCi2EouMBixkD6I6vnMMAMbm0ZiY8FGb9KxVhM+2wsG+YuJKhE2mEAfwoSXw1QiI9nE2IrFJgk1RPndBhBUIit5wOIDahaqMtDNGz/q5Qeu++NpB+22zfr9OqA2jk0hsNh7Pn0QVfnS1hGi2DQSGxts+BxT1mrCZ/vDIncrAFDZ6LKFVOaqpHLW4+f8dOv1+nXvIKiNe6228c5HXTuGJFVZ3ydMRx0dQQTFW0GtXX2nK6rMV5UfXHTIDuv3790BdW2PtbY6+KpvqKSyvks479puEEHevx1tIXUqMHiHJ8MCMc75oFsREHR9mr40TA6HRfMaGxkAPU+bQs9Qz28OjCEwkTUhJooEgt7nLKOGUPnsLhUAJrISYiMDwUb30jHYc8IfNjMArLWSDYLjq6pBpOfMq7eEwEa2NjJAn99OpGetd7ynNwxytxFqd36DjsHKhb/rAABRFEmA2EgAYOu3qAxWTr78J50BSGQlj0uYq6p6751zysClE0Y+dM05R23XBwIrRcDgiIQaRDp+f912AExkayMjWPnM8VTWqvLffWBQYJe1t9v/N/+ZTlXm7r1SueTbd5556J5brrrq5lv/++L7M5SkejZWp/zqD31hUUaB7TNo2E9/c9voKjUneiWZTnzv5YfvuPlfV151873PjVlE0isbakr36m4GgrwFA78/DnEDiyP4PowY9PnyDyjWoN971HKo8lRYNHe08Yk3vq+qDFf++PwF+w+KkLnH9qdc936iynDH+S9cecRgZLabnPbviVRm9Zz8+Pl7rGaQr8Exc+jDmHpOf/iMwQa1gs7bX/QBvSNJVVb/2MUYFNlp02OufH42PTMq3dtXHjesMzKbtXY769GZVGZVznnz2qM27YA8BWvMzyVQ1XuXpklSTVl/xof/OaMPBFIADA6bRx9G5zjz0V+ub1G/su2f3nN0rFXyks5ikLcI/vLep9OrpCbKIr2rJsqMvpp6ZV1VpefEPw+GsSijYPeXPxg3eSlJl+RG+qTqmTFJPeurKjnu5N6IBPkLLv52ZVTqQcznehRig4u+7lMQLNYaTV8GTXkWDJpWYEdc9ezn0xJSPbN6Ty6c8umTf98d0qDjqTe89c3slHTKrI7k0qkf3/+X1SF1BKv8+pFPZ6TUlJmdI/287z5+8HerQbJJjD2m03sNoU+UydRPH7/morMuvvGpL+d4OkdSlZz2U1iDvA1Wu/aDL6cnpDpm9komM7/6+MUHdoatY7DW9W+PmzTPUx0z+0TJ6vQv3r2hOyQLgIvoighV71xarSrJdOIVq0GkAFjsNpneB1ETZTrtsyeuuejsi298/PM5ns6RVKecfijEIPcIh1epZFL1LN47l6ZJUq0mSZo6r6yv3pHKr09bwyAyKKMgHk0lmSROWaw6l6ZJUq1WkyR1nvXVe3p+fXI/GIsiDfp88pAIhk2fVIMT+VxksNeSQxAVBIs1RzMtTlP+CSLNY7HNDHqSzimza6okle8hqiPYl0qS3jFHTR3JhKfD1IlwYkolnWeO6lIllUsOhs0GiTD4VarzIaRLlaHqlNRUmTw4ACLIPcapSiV96pmjOkeSVV6NuE6EU1klqalnjuqdI5WLfgKTSdD1TaZahobqXark97+IYApAhLWfp6Y+hPSpMtQ7JTVV+kfWgjHIXdDpWS5z3rNpXZoomf7w7H4xYCzKGeHk1KfOK5tSfeKp1S9P7gIYg2Ithn5/nUG3LYcKAMQ7DOuKnRdcggiFW6z3CZOi1PkLYQTNG+FgVe+9MmdV9Y6fNgDOofdelTmrqq/ybEidGOfQO8/81Tsu3C8XQIA/zKZLNYRU77WOeiXpE89lb+4HEUH+FVzCxKsyd1Xvl/EGRHUM/sxl3qsyd/WOi38KmwkG637JqpanVr16/qc7TAEQwe9n0CcaQtJ7raNeldTEcem7P4MRFBhht2VUNql3aZKS1EnPnNkPAghKKgYvMWVTqk+rnnRTHv1ZDIigcIs9ZjzfH4I4jqI4FnQ4bemVMFIcLIZ8SleUPw9W0MQxDqMqa1VVfaCqKusq3w24iMpgrQ2orfJkmAZnU5XUuj5YVZUkld8PhckFAgy760f61IeEq0+VC5/9eQxBoRVczZRFV3kN4hoR/I0JC1Yu3gsmGyw2+pipL1Wt4/OrQAqACLa4Yw596oPCXaJc+NyRBoJCLX7NZVq/RKreuTRVkjrzjZtP3wACEZTXYrvpTDW4DKrepYknya/u/9UGAghKKRjy9vcXDDSo22W/N2f/AiW12OB9ahFK/gEiaOYI+1fpVVWZq9Z6PgLb4Hf0GshwrV/lvrANzlT1qsxbVT0ndIDkA1hUdrlrHqm1GVRVqZx17R4xjEVRf2eqRSe8AJUaGPyJy7Rgz3kb5QKD1e9UqpaMjs9VUGyEePitC6hUVc2gteTMG/bqAmNRqCC6kylDtZSsq1zyyRNXHLV1TwDWCsoc41R6ZUYtnHXdN4+e/7P1DBBZQUktOpw+bsYzfzx+xCG/ufXTH+5cH1bKAYvVX6PT3NTzn4CgqS2GTqInyeqC6RO+Gfvx2PffGvn2qDEffzFh8rylyrrnwdQR7EXPxn5ZMm/27Nk/LK1Wq1XPup6TNoCpE+HgxVTqktkTJkz8asyYMWM/HDly5Dujx4z9duL0RUpS+RQscrcWHTf81Rgq66r6WtZf8tSRAyuQWFBwjPOoymKVyeGI60Q4lVUWrJwmglytdNj/M5aOjjfBFAIboeP6Z46isq6qr1WSVC5+7phBFZhIUNiF076dMH7KnNmzf0yqVcdS6syxL/77n6fsvNHqXQEgji1KHuGnn3z88RcTJ9SOnz57ztKqZ+FLvn3lzgsOGLpWJwCmYlBiK+i11/Vvff7N1x899bsNIkQorUWfZ5loTimrR8EImj3aeretNh08oE/vXj26de3SpUvnTp06de7SpWu37r16r9Rv0JBhO+7WF4077zd8562HbrrO2muu3Gel3r171vauXalPn9UHbrz5drtvZlBf0GO7Ldbt37tXz27dunXt0qVLl86dOnXq1KVLl27devTq3XfQRtvusjYkP0gkkI7rnfLQ1AVLlYHV+V/cduAqMWCsoHCLPacu/GHOD5O+GT36nddfeeqJ+++7/fob777vvnvvf/Kltz76dNL3c2ZX3+sP02DXOT/+MGfOjAmfffT6Cw/fd9+/b7/+hjvuu+++e5949o33xn4zbc4Pc5fcAJMPjKDrQe85baC+VlW1GOWSQ2ALAaxAOq170gNTFyz1DEwWfHnXwf1iQCJBCeNu3bp169GzZ8+evXv37t2nT5++aw1ae51NNh86dLNtdx4+fPgu+44YMWK/g4466qijDxmxx/Cthw5aqUeXDhHqSmQFzWg7d+nStVv97j179uq9Up8+A9ZeZ7OhW++8874jDjz6yFNP/9V5Z19y+d/++sdzf33CoXtstlqvbh0Mam1kBeU2FkCl+0q9OgMwFiW26HUvU5+HJpyyByz+LytGAMCuveeZV9/z+IvvvPfaU7ec9bM1UCsG5TSrrdI9RpFx91VXhaBh3H/VHh1QoOnUe/WOyF0EEZ6jJ+mqibKuqqtWkyR1Pic6vtcFUgxgUCtr73n61fc++tLb77/+1G1nHzgQtWIELV2MEREsX40xgmY0Bg0Nyi3o8FdPn4Pjm0Nh0Qolax3JGCTFh0nWOhJeVK2IILuIoOSSP/KV/FGwlQ6HTaNSUyXd/Fnz5i9Z5tk4TVKvOajnSYiLAiAiyCwigvJKU6LppRnR5CKCJhSDMz01i3retTIM/m8sYqMoimutNYJyiwiKFZEgEUGxIgVY9Lp1MZXec8KtZ/5st+13+cne+/3s4GN/9aer73pq9HySVK+ZmPDBCFJcrRgTRVEcx3EUWSv4f2MR/GwafZgq/ySwaDsUwU5jmHh6TvnlOhYZbbc1Nt3lxCvfXUolNYPnnC1hy/H/12Kx/ttMQ5SLj4I1aDMUi+iPi+jUKx9fCyJxHNmobhxHgrrSdc2jX1pGeg1iwkP/vw+w6H03A5WLDkIsaDOUGGs8T+/puOgsiDGCcBExxgpqN7tvEVPNcBn+/18sHqE2IG9GhLZDMdj9c3ql49QDIYLcRQDBLu+rC0p5f0fI//dBsGGV9ZUzVkEbogC/nktPeo7fCRYFS4RVHqSGOD7XrQ0AwP+oDf6ONkRBxxupjvSctStiFB9J12eoQe/0bhs4i77BYEibgUXfp+g9qayegBhltBgwmRryRq+2AMEm9TxHdWs7sFj7fSbKmocQSSlgcSzTkKe7tg30/oJK0vF2i7ZCwVrv07HugvVhUE6DNb+gb5DytqgtAIjvpSOZ8my0HXZ/g561yqcgKKkIrmLSIOH5ELQBCs5kQjLhATBtBAa30rHhMShvhBODDoJtC7DYlSnJlNvCtg1YjFhEbbQ+pET7UbWO5+xhbQMGm86lp6obCtMmIBYv0LFxn1LtupC+TspnukHaBlb7iI6eP2zYRmCxzTT6RknvUg2f3yDhHxGjLVDQ9Qmm9JywdhtBjNPptRFXLdU+KbXGc9pWsG0EuJUJHcet0WbwDyYM3LpEMY5mwlrHRxFJmwAsLmGVjmNWaxsQi9tClL8ukcFf6ynn7wGLtsEYv6rzQb+2AUS4Ieyl8gj6vk1X73FYtBkcSa+O7/RtI6jgshBy4YaQkhjsRMe6CzaAtBVE2Gsx1fHtldsIYpxM1UbKOxGXBJWH6qU8F22HFjt8T+/4Tt82Aottp9GHLPgpolII9qKSpOPzXSFtCFtMrnm3rUAM3qRrRMevNkBUAsHKX9fxHL8BDNoQNviKzvG9VdoIEOPPDHZ8fwCsFGWl8jQ9Sc8F+8Ki7dBgrbE1o/u3FQgGTKcG0PGjDWFsIVJBlwfoSHomJyFGm0Lf92rGrdFWAIOrwqic+lNIZPKzBoOeZ0rSk7+BRdtCr7fpPMev3WYArDyNGkLPxf9aC8ZKPsYAJ3xOT1I1OQOCNoYeb9VMXbcNAUfSaQh9yu/+NgC1Eg5AYA94hepIen5/GAzaGrq9xtRzzgZtCfYWJhpC78iZ9+/dGdnNWud8VKU60nl+tTUitDl0f5PLqrpw4zYEg5VfZjWIdErlvGfPH7H+gFV69+jerWfvfmtsdvSVox1Jp9RU+fAqsGhrFFRuWOLVLd2sDQEGg95lVYOoqqy76NtRb7728tujvlvGuqqkSzn5N4Cg7VHQcccLnpjOHWHbDmCw1lP0GlSr3jvHxuq8V5JUx6UPbgQRtEUKgI6b/2UwTBsCDHpcQ1XNUFe9d84575W1qiQ/PLAzIkHbpEQx2h6t4OAp9Oo1U7h6T+W3J/SEtWjDFGvaGmAEfa/9kfSJz0tdotTk45O7AkbQtiltDhARbHb7ZCqTJHWaQV1SVdKNf3CfCICgPaYRrHv2kzOYc/LxXScPBMSgvaaJgM7DjvrbE6N+CFvwxQv/+uUeqwsQG/z/OlZQOCC0JwAAUMkAnQEqXAPpAD5tNJZIpCKiISOSKqiADYlnbvwQL/4fQlcT75VaroBzVn9L/UbuP23+v/Ifoq93fkvKVoT6qtDXoV8wD9RekB/YvQB+0nrE+hn0AP5F/ufWy9Qf+5/+H2B/2t9N39yfgb/cr9zPgC/kf98//fsAf/b1AP/P6gHqH+ef0H+s/kJ+vv0C8H/vv5d/vD3EPtP2x/dHn0yAe8fPt/Q95vAFxX63jSP+N6Avtt9e8ADUX8W+wB/L/N3/ieD79X/2XsAfyH+2/+L/O+7L/Z//D/fecH9C/1vsCfzP+1f+T12fXL+3H/4/5PwM/rh/3vz/JdRmXf1EWNVG/Pnzda1fFk98rUpEvT3ytSkS9PfK1KRL098rUpEvDIH1cilZHQHPx1WCv98c+uRqVhV8WT3ytSkS9PfK1KRL098rUpEvT3ytSjRblpvuwrhXztYWty2iQipIl6e+VqUiXp75WpSJenvlalIl6e+VqUiVRLhscKb4BAL5zpkJFOn6OAzTBV8WT3ytSkS9PfK1KRL098rUpEvT3ytK71oB4RcRIaMGQWhr+8VFxykS9PfK1KRL098rUpEvT3ytSkS9PfK0RNqE2DWwFhfEmpFI6VMLJ75WpSJenvlalIlgWDELX5b2hp+sk8LNOWbcJfX8d8ROV1u3u7P7bHMZJg8IltLBoag/g+8f1QDoqfSeuBOuki+MpVEdChgcBW66t7vkRUvAfDnKRL098rUpEvT3ytSkSuohnLrHZ2VxhmM1rKnsBNdTafdAqlBQ7Ask2IsWYHKzQXiBrXD1M9P45ApI1Jky4aBDtWKakkftBSCk6dfwCvDa9GD5zbt5vuTZflDOAaJ6C6Oqd/JoH9sYnc8oB6bqaapNMQYlFE51ZrrxYlxPcQFQKvFlhiDUWbDrOVjIZp5/50arh/uSGa70s2ZHwP3wzsA6BGmceILcauMu1bajcR/qNR506mXVhxZTZJyWAYypbagEBi2vlFwYEz1Ui+na3tpLBby3nd3BG6OC8+4HDX5HhGTo+BDid4lLzT+vTp1s6xhiqdAeuxSu9QgPF8qYgkUyUMcdB6hyRc2UMdnmgBtf5d7ufhfeqZE7T947PkDrFcl1u+IjlhIH5VSCYj8bUq3Q/Hk2CYrscRc2oxHG9d6AEb/s0WkTtCEpe88WOmA7YCeA+vrQqKaZi8l+5kDfW0SbqqndAZhTfUQg59D+J/tX5TP5P4G00R+icYs/rSl5CfVzPIwptw2oQjuNCTzc0HG3z95Lqi6Af3HBW8ZCA8EHtupu5QPiVZop8jpG87c1c6b4JZhDjDb8Fi1XYDAXixHGNdK3HMBW9u/BmRANVnRBJ6qOtpP7bBA8yVMlOBIdiTTgAOlGwwWVZFHNhlyU62HnobKIp748bSiXhmafknAQSz8Ct0v2YkyeQpDqagMDBgR+WepwVTRYHRQPlg9xBdGRix6gzaVZTtWQh6Zpd6MhMjd8GyAHCX9VGs08qwyNRXc+w9J/wJycaafWlu1U1KYSWfXIfHDT0GxBCFYEnOI/Bc0AxDvucAg8x0GVRcUNVu9IB85K4ggBUsk0UZPTxFY8OBps3en3J1uoEwbJM5YoOAnMguwSbLupcJmatbX9BsDN+P8e6lUwL5Uw7vkNknV4ccCM8w3rAp6M0ZHhEbos+SNA6F0RuSG4BkFlL0bQ0v+bRsz1K8ZetBYmTgp7/ya7y9xD1X1/cq265mDrSZwpVbBpKDRXkii/+15jYCtx6ekE7sGJ7AmA0fjAFLn3BlBThAPWfFO9HosQ8Xcrz/RweKA6EvAEur3HyEECK1NhiBGQ/Szp1Ag58NFoJlKeZxqKug9HyqMRQU2kP1fy+LOeh0nq8dcjnfU7G248UDpt5S62dPQiS3zPrix1gYM3/Vhr1DPV3ImHD+dnLAkhAH7EPGfdk89QGfNVH1rVdBQW74cnaw6IWeA30BBHu+fbj+y/ZzPrn5vGxiN7sH2SOTZW8foGMJnz0vXDxN95mQCfK+WBO5g4155ryOTlf8AtrpjuKXIsURse3xZPfK1KRL098jJ7y0tCHhRB/tw1jSbMOKTodbHfCZ7ckdKmcIWUCb5KqI5P9lPGF2UGoTBjpUwsnvlalIl6ewCSa2T6PNvXOfddtrVFk98rUpEvT3ytSIAA/vlbTu8uG922V1lE+8pJITE4o5q6lWF1uciulzc0mzBwT4hUAU9GrrxeihWK3wuBjw8VJq1dM9a8D6dz3JQ7nKh/Ol9ktDaGqhEeWo5Jilc/7JRigT1BbA67KM6To2hpJP4ditdUrhHpFdHJ4KTJrvNwb1qZ/HLQcqfqU+4lfOtwiB3qhxpCeWEakLql1I5NPw7gAAAAAA8cAVdEwqGp8IUF2cBaDXCCyhy7VqPGALkbgtDmIh54rsOhn7aJvT1Z2qWR0hm1sbTH2x0qkO4yNfIfIT7zH37KpAvr3+6QQnn+jUL1/xVBpJZpWPi/G8wylWbhOExaw8GFyu0wkNAZi6plOhXGFtQAMPBcyHMbxd7KMbNDNxkNcmSr1RenSQuYE4AAAAAMrD5XfW4KOVg4sEFIGnc9GunhQXEiKD3uqoBHi1ouDVFLY6CKssXvY9TGPmMwSCKb4TIT09bUWcH/ddmIXMrbe9J1qlDY9tDloaXcRnxU5FvzRBUv2W3IspsF7potU+TrTY43BFwZuiyQ60b0gug6+kAAAAABWIi5cWJAxMyb735/iS+PP62JWEx0+GDAFb3vzmFN3abqCgszWUTl3y1Ip80fNgYr+goLOOWwVxOq1/Owd6gNozazoyBFDJRvDxdvKWIWx9Cml7LV10VBXNJY2h6gvEQNssdXN1E3L6o4JnY17/IYJ7Z0FU7UIsgwf+0EtuXGrVR3VTrxdKgAAAAAYTkYArwVpXA6UOE4wPAZrPQOghXPd9YxXw3KsVd/X5WcctgpzT9uLo/Qy2Sjvh+ULZpxdoR5QdBDZqYEegibnRALp9kLNto1F6+eBnlY3aEm/8YKVqfUnhiOMQaBFRxnjyfhAG8rjhMEuzxhoxRd0JSwAAAAAfvvChetgum0f/DJaRua90jugHXgOsZf9AgMJQkRd8ELxSerT67hehopNvD9tSw8s3SjkRum10pd6GsCoDyTTnmmLAfwBmxpsR9RjqNKEUeZ5u4DLhqiVd7EDgAAABrfnHZgP3GYl/OHYM7BdI62rdGnfrVf8Nn+dyGIz/hmfSfDoko3NJAu0Ux+LImfwl4wysZvtZhqTdQkNpEru91tSp5Sp6dbLtMajPcwytW+3sBgB8GSGt8SwoLfiftTO2Rh2udkZXoApn4gEom/srzhomJdxYM9UFKS8SvTD5mYnOny0G+1n+8UlXxe37Yi4KMY4UMx1r3ndE1YLzdsvGuG07NKVNtuEpCzcUfwRRoE0jjmn/pqd3asiAx4C/COqT6eOgh7Chhxa/5meczhrM+kYHu80ozH9HjzjRSkN7uqKs5kCj4eI2xnLye+a4XKQdZkuD5PlHSFBD/iHVCYaVzGDvaw11HxA8VsaSUHQLbAKSBmpTlELAQ64VGmP5TnDSlXTCAI6vzrphddlaf4AGIV9iMNv3Ny0/MSM1BQgylr0eP5i9Qg1qsUeXaHpXtq5FNIVvg9GXulrr/VkR8CxXjHBCmkbrRembTXfYapOmnd6AxYXPkwY+ag1Ii6JZqImLqC3FISC2tWjPyXOJjG+EOfFPK9GYu7E2Sqx834+1+oJYstb80l52P6UKmAAAC2KVje7pmI3MZQO6Ex8l5vou0VnPrH7cFgumzAbN8XSx/ZEqdnHVL3yak+dItjLV/ePtXt4VHZPkkrCUixq9dqUVHeygoDrbNdfBPcCI76PQaf3Jpovdp3yUXF+4jN5bR0j9mJGOZ+qi6drExyOHdhF0orrETLs3VFSJkmT+obBXJoBX51+MIAnny+fnSdvruou1XAJ9p44WmfNz4zN6zolo0mo/Ksid6+Ehk90yvU85V4ZGj4Z/B/CxWJy6ctp8pvMt2s5rmx9XALpAAhcbdohdEpPEvYD0q+wWMEG/yx4O5Wc4waYABk2DZiRt0OB46q/84g/diChsZWApRFJB57GpZ9/UJ48XGga2zwH+TpmL8ajPUUMWcs6fp7c1sZEhqgAD8HwjpX/YMD27V5Onj2bsIf7vpwDhgPhlrTk1XmloCpTtsFVon3BYbTHKWGVyVCM2oLd0Ryd7PZWBbhGhQNULmTo9L5LGj1BpWtL75jU5sD64/CcvZ+/lRiT8gXYwnTqdUVWCsCM8Q/1YuAH+uWAEoh9uxbEGq1FSq4qiU2qV5oQdkgN9HmHPjh5tGQMCSgTueQCSGHNBdwG+SyG5HOHYR5/Z7Im1FjzxqDrXBUwONQtnysQzcw+9hxuaG4BGdp04GyyM3G9SjYCweKWMWWu8h9Pm7YszpXhCUPEipAHS0CcAAfGnWL0dPZmIirneQWbsx7VXfCWYKg5VW52mg0c2kRlFJaABTZvB23JEzqAl8uGE1HWhiyq6slghs5Fa1eKpGwocJGvrUdQLvtVg6J8noSYgfLfPI9DgYi5twR+cC6vdG3K1XHSSFdC2BTxUevtP3jRjrrSiPYZoL2LfZj5WYDjyQAAURwz1ujDxwvPdl9oGpN7r+Fi+DVwMrlfdlVss499AABmsBf2SFwhgXSx+GsAJpR1eitM1yX5Z5KdB02rwtnXC0RYdkSAnErJFPVKpyZwBEc9aGfhttI7Y9HLqmOv/VYV47iIqqrUk7CwST5TOJPxhLCqorKTdNJKWoO7q+iZtMxbrPZbheW2CVJ1y3YWpKwHD+/NhZ/9wrDjm097uXaYUVoKfbcEnx4VzuGJ00puwz2AOhjHyMANJ6PvksumtR1Kr6pe9ljCHbmumcpruxVdULoL/0S2pP3n8GGmvoHEqJQpEXVzBA9YTx3SOMDeKVayMGmgfqvTiopBux0CDycKMdsNImJ/rk+l659EvNyQyssXqC2R1N/paqfW9RcdOcn67brxCiK6tnA8RgmVeepqf9bVQ9jFVpRsLcZ50WELR9WDKkWM5md/QWGsDB1+BPqPfELdlEZg3EwRWqOHsU9Lr5zqhdrkYD5nY6i6ReQw+hTvWOJzhj7QLGEW5XKJJOuwbQ3P04VeSBMyEpaS7Kf4ev7nZjkf/eizO2PKyLIE6BiwZ9uZs/E/9HQi/Cup0hm+S10ehswDJE4S71yPAHekYYkRPDMayfteq/u2FM25qCkkOpSmoCcKQ72N5nHqa+DjGH7ikXV1d3EAs+JUvW9YNNlbzPiGxB5+ypLPISAV4bflOkRGXqjdX3VDgCtnpN30PlKUKhumwNnKW0qEgY7SYs+N1cRdj/1MXQlQ2drESKq7x9OFp+gWp69pjn27RX9bKgQS+ag4sJDDRRLS/1nAXFm70vBadKuFrswBwXsSKgMZNBbjxobg5Hlw+YDW+yFlo3unE/LOuSujyQtvfJsQgLwGCN2XFozfWvrp4ftHP3s3dj800AfPL4108oebH+Um2SwtvRG50OU7fxEd/V36jC4+yQMwC/JCFXulaFMMh2TuPVn8jeLpdoTjeih4ww0a1qXJIXcvfn/ULzXBOGpiPF4pX8sPEVwXUT2O6BgxZbSdilv3fR3hbktmhCt9XyGYt5xbHZ4M1a3Qz6EpzAq0+lJnn9zqio4S6E4ttMDJpkl8kJMKjIKLcDl037Hzh9b/dGOVxWPH6/PrcwazEGoZWRMVzYLUbhMgDYqeY3S7RNkheEMPpyOajKlBf+8S3yC2khoSyaaVmW9A4h9xnS0kfZkj3CEqrpoNoTjO5RuGRtZObUvNZkP6Ek2nltjtuY/+BXrykoC5FkLMfV/8OnaGWsctDkQmmQjFxsYFtkJd+qcRapjGMxb2uZrhuCI5J9fK8VbJTWYgZU+l8IG+A1MegaE0xPJlWnpmM9Y+CG9IopIk8KBetil53LyToDZyEw6yrCLre52k+mGI37CIvwxG+X7lAd1NDprpkGql5w5YRlqUTVtfpqqtMBSdKADZ2aq23xOlFxSTITmZe6M3LU+Hj4UFeresDH5+Z+Mp0bxHL6knIL/36Sd14YU11C9j/oAA+wlzumzuGtGLLqVAMH5APs3CYHSVk8vQxvlfY63YFM+w3QqH+HFNPpqT2GddNFuUNLCINOZy06JDitMjTQON9QmCYzolALEM5NN/+Xs51tvz/Wv3nvLO0T6RRtB1UCX/sGvL9YeQ+gFFDrBJXwt7Z08Ch71Yh+Fd6TGs2vXuiufmtz5C1cN8Tz9nvSZie9sOJ4a8O1BI3h9y2gZxv2XAVE9OCtqVC+U2obYtT1JKdEjf74M0K/+5mglo11BhinmHH9Jfznljh+rAKohh1IoV6iRKjF1lvrr7ogTPfo3SwBh3DIqdbK+ZX0SrA3SgfuipdJCuw+BGXoVXlbVShgMcn4CZRZ1rLL1F8KwpdZDE/YoqOc3qpHzl68p0TpntPP5a2q4NgcM/tiSc88KIyDOL7M8AknKD7xNj+Q+cnd17uYst7Bbr0/+tQ7p1V9dvChTRI1huWW10SfKtMe3Q4OBQN02JzZDuSI8IurI891h2aKjHK4s3rlXUR3R7wZPPihLDZvAAbHdOf0si6SxJx/vTUHe8PXF+meCoh5AV7Ee4qZW6yeZj85YqXqbGOwvkixx3uh8KA++iqI+vmUWEyChKMZdbNlRLF+eZ2IlC1vJHVPXyWcskit7a62aYU2oTYX27PYDxb9UuQ46YiU2cPjnJT8le8+DjzBhWdEEpw1TLSIyA00CB9S7+31swiEhfD1G/6o2QjSN06lCRiH1fj/kT7iZg6bM0N8whtCl8ZOhC1lmFM5mBlEGvQ6tbcMElsQUH1nKJIm5Q8KbqCjldeR83UDUu4HaymnYifZZQGezyvqdvCVoyYcAbvBBfnpvfjf3p4PYa9UVqXoBUyKlf1o+UNf7KtcQroQxGYqnGqFdlp9jeV6VbE32B0DAwM7Eje8KSlsxDEjs5WoE5FqwbFelql+twO4eZs7POF9MiFV7j9mLcD5j++1I/Lvjcbfo4YJCZP8KxpXwol8OH9cEidvtdpC+kO3krrDDjUAQh7idIRownEaTZY/OVgqBZmRh1q0ukLJ8qJP1411aDY9a3hVvhqZS4hnUPIRqvvz265MEspW6FN/8etxwzwTMHAn5pGpxCMIza+n/aWtJWk2O1JekytVuW1tOs+X8mB5PrXGS0pY93eiokLC5oG1caJzwIOEnb/u52Mk4PE/Bnv7GUmTuMtYyII/bw68U+HrsSgWPUDWXnNOG0MY6immwQO3OMQMRgB/qT67z8cIAl+Ggl0veh9g3TROtQLHRGhYGGJcXzeWOyaib3iG4q/moNXzmkrLca6TUe9JlDbkrhTCBFJ/NEyWOvBM8jq5UqOQ65qAtVUINqA3AbA2eLVyz3+0IgaYK3qVNC0ppT0BC/YAxThwJO+LBeO8uiNGXvlmrlLhP5mP44tIMQWvcNc4OxzjkFtpZiL5zvPP57ruSlDd3qs+tckIPB8LStZ9HwVJxsNrDkL516B78RN1Fu0UhZFJ46MkP/WlQK2qBv3KbiHoCyteCCcmpq938DyvGUH357IliQLwD4I2yssb+AHQ7g/zAEyGMBPc0hA8zJoGWhRZOm2Fp4apJgVugsp4GTiXeDCJ4oP+2cC6PgvCjc86dURvGozBONcNy99k7dbpf7s+YGNuXRp55T1JC0WGh/Uqr3rJw1wbo8d2fro2ppPgzWQyXDbeTdIo7mZ3xbrPrpM8u8a44v6suboiUo8u0YRNaAOFx3uV8oAjnR+S0kt1+4vUlVCb/rV72Laxe2/7bdwO9lPL4sj97Y0dDggNJq/zqihYwRjbV8Jn/ZUYsWjlkWSxwJLKkRrMCtBZ6TTB/NbJ9UpLDzxxQuYqs7iusL6HyWgYGOCH76Na0WJiHl5pLQ73lv35Ik7Zyj6YtPSM1Ca087Bmacl6moElnc+tLA2bzdQiKmYs/q/hvy0G5Ecjkrh8ZwpZRJRQGfBiVJ8GYoWRdPAQkElxEwXKVbCkK43jsJ/iQu5LXO9U6ZTqxIUw0ShPps3RLipOZNDwmVtmMT5BbQiuzH5p7pyU+/+k+BNGLwhNNyJAUIO9NvzAlIxcTj2DN9yZE2GSyDbjFzw4vN90wAFn9tmN3xgkmE2UcSNT7IR1xx4eaQt4RA9n8WN8vtdLZBLwqNhDI//l38ziBHyZeEy9AM6lqAerqkucWkS1v/1BqyHIvDVfIDoO6Mdrteu8/3PZA6dTYq5QbYun+xYzzkOSV2wJkJqIZk4goIv4hsTjDZ5AXVYGh8VM3vW16eTcal4nR5LNl91u7Y3tIir9phTGDi+BJrCsSZLDFkPbJjhQcBKSQMr1HyzYM+QkiXJ6Myb8OWK6lkNGvU3xeosRIiDAr2WmptJPfwE7BGLyXiZHOT9diDX011V5z25mYSRcvDZcNMe77txK8sD9s2N/kHtD9Wvu2VIrwr4b7F1SwqIdjz1MR8fMRb4J6BPJYvKVpwsjjEVWkGL5IM0uP6tVUXN9i3g7cITBw0hKualukCBSgKSXMrMtzbHosSKXnGcfJu4aCWUO4af7GHfjMCGdz68Dpj05nbcebyRVUoYSk+MjeuBBUxtRhd2upBV885+EAKNMgeRd4XdZ7rlFELy7wVL0N0ceM4y0ma7wFoTLfTKag0kyttvjcmjdAQTOzjB0E5BPcWufZZMCFBHf5DyZmBI1gict4bbQ06EA3dz6JVgpROX2zvdzwX+bCYH4/E/oanXtvCe/B3RS4qzEJU39z4nnzxPtnpZBMscIIQ2nTt1Sp80TuR1itoNrd7076q/yAwQX2G2LhDm1jvR+KANI1yAwf4q0OopS3/PZpY4XhrshfoHt+ijRYkEv3hkFLyVh6GXjJcoWJx3XhbM2EXdcNOj957gSNvc9MZwUAsjecibfHnKKoAGOL/BRV8ujmAjKKB5OU/aSbvvWc+WnqEsewzwUPeWYVd3wm9btelVqakS/vs1DA6y8KKI2WJin/aA0iaUIs8nt2EHm/HIznV7pPqu1Xk2Ns1k+qPMg45yFpzRbyV4TDaT5osfTAHCahWFEIUI9O9cb4Heg6ENojP4YcdmllwC3RBjP+HWenQYZT/DDW2507kZOUmUcok0IF6Sqdf/tS4vMK0JPyM1GHpZwAkUMT7Vt/MRftrYGiSGJSy90uU+SC+HdcDrfMqbgQCYmDMw0725sPu8OJBVZfCDPRNLp7cp+lo/owCIGPPWL1ccyRdtdomP9IRjHmzgt8h72ngU2KxmDIfvADxOOhvHFstfWCRQP3RWPX3WQ8spS8uesp+4pKQIJkNgU6IJjtv/zq8pZYbgoYt8pd4PfQVWvtNWIC9777icuKo6jivW4AQGuR1K5p0M8oL9jp02IbleqpDNJZ8RVqvnTd58A7625flTlgAGlUu8xhaiAulCzFS2PHaJE9SIThnWfdw4dykng2k2kYZwPwRmrFtVviGQM3ksaYDV555Fg5Rn4O7kd4W5/oYwfj4C5O72e/+TClI6eRlGiTpHlZAZOdjQetwsCSn3JCbTbZwWQWnrHCqn7X8u/tEdbSPoSxXoHmZKDwaqMhjbP45zk9q5WAoRnp92Lvz7ec0lqNngRWk3iADYV/6ohhRbhLhVEO2mdWEoxSrSZaK0DZKHmRGBRY7I60di2dlaM2P7MifY4X77exJEwef//S8AXQOcZTpOp2iH0rNEiAP9DYR7P4FtFUhD3OPo/ClWgRU0Tcz6FkUI7dWc4X8hc2Agy59nlIzqrPq3jWYmzTEYyVB0GYHCEUztUgWReDiem7dlX0qmo9T4JoMKfmoHEs9Y7vpHbnU3wpoeFr6rJyEBTNw9VRjj0g6PNOi2oH3umF81WyLXfSANJKg/SwHNaW6i+SWgqWEQgtOyeTWhzCo1KE1p91jY4i6CntIG2LQ1IED5pP0L/uNf4MygDkxU7YfoyzXNJFQvDrEqQxB1hU4S6cVprAJL613EPyaNidKFUT96Y2smfsg1aO9hUwJgkUJBm56YRiWWTH5Sq4wTOU8nkVis7h8u1MjsM0yRc4fIVbFzuI7dftMsN/vANwCtygxVndSG7FzzgaBe5DklpGR9KENJcOyUM0GoLQTdllcX9voHGsm04/zCTu3m6e3W+j2S5MDhviXti3OOz7/DfuY/7CBtbB8oSDXomxQcYTvNDWrHFjZ8jAN+nWP0s2bACtChpS8DQaT9q4Qhs2h3aAghYDH0GDBWZ6ilwsAuITADmv3/hJKM9N4Ks3tP+3ALai9ihvbKkNFtwWThISgmrBfUKPOG1tuGeihNztrce74i+Bhh/4zfgq5scyPDvvOoAX09d4NtQQz8Y/XZjm+PIli4MHFZb3ibOnb/Lcm4sLE4i3A5ez9WO4DEfFQipHpTaQVb3EKiVhfbaEQFJQhZrCYAlXyv13+Z+Ve0HrsSnO/tZCIZZC6ANGsv/2UkV4yXqmHjmdMpGqdBQ/vyIKtjgO14QSr0rEf2vGjtbLU6egGHUZIHVqiU/VyKANyb2KM5rDemYx1aXNjjg+APtCdACCzH7U8sSL0oi1zPdO+a5Ga4z8BlhuH/EFtM7wRkPKSKfqhNylcMWjWNIX1fFJ0mxTuq38KLdobl1yDXRRc7QdDK0wocQiMJ2N7odFBm6lawRBiw+EXejJ/cIwL9r2uO9FbwCMtIfJdsIkJvCvM0t+l7rhZuJLAVnxauMwuR/yClNfHOnl+pst+kkmKdOHdV3bQD8mNFZvDQmXejeRiS9z1zXxqnlPdjj2XW6XfVbycxPAi+N9TksK1FTAz51ObvBYBeM97MShFYjbLcbDRahsSdBt07FE9L5vtbdSs8eF4ZWCe8VKVwF2eIXrpTuTRwr+ZjOPwclFOLBIuSpzv8VTsLFGxpXpYcMOkXgERa5ztrKlAiuiJbJyt+oxt3O5ShC2U72FGWhPip3Plpy3j/Pyf8/883r3NNeGryVgLvPlUjkVAm5iQx9eSo/1UcYAY2fLlSuKHuoxQw/ObPHLCOlpZgAJPr5YyUmzN4vkmOezlzQXtrcVRLDP9+w3Vd9/qm/ec0JQPXJ1fkLFCdhZ7sZnxtEcH3jXH8RiHThu+NQAFyUvsgPQPa16TEpDHAtjWMHtl2ak56mfR3fedqppNygShVYPJ9IJzfEvBtF3NeiKKC9zerikSFOeZRfi1BWdsST2/vnmaQDuHNba+/rCMrgfGqagtQcoilHtIQO7q8DfhGkm61BZFN9m2JIwKgtw+KbLK92tLb9+Q6iHC99CaU3eJmB6/LOlUV63zd8xapZFwOYaj3LiVPoVdDl3Cyb4eK18HJvi+0CwPBS9FkX+3IlBKLHGiP7JeZ3BOpX0ZJDd8UPCvhr/BKNHjATYXQFJpoj4Ap7oACrOpwfFtzFd/sOVleGMKx18g8+/Ex9i1Oxs+d+TNwmEFvBMcoyyl0t2ITtVT6xswqCUSsaRkcF5upOLylgt8A9J4NWRlAxSJXWGh/bj/IOJPiFIvXO7hV8N17hp7EmnnqYpQG6AiQAaZXIEH5nD+4RIfia6k8Y2bIgvlTBd4BQudaCuRxT83usaNM2LBkCx/Ie/yh+XfavK87STO+B2PLsC+68Po3gKvko7ZfaXEADfyXH+aMUaqt0AqnXRThsSYWxb6blbk1P43IOJ+T3ClABSzgMZbQhsdtXVcCNImuIPOe87Qsg23kwCncqqi76re3xBfduB2A4hjoNxgwMGj+LgXOSeQ1ZvXTH0XTmI+C/b5KJzQyNOK3jjpxdS36+IeCTA5s54dcsTcJBn5Ntwzhu4P8h9a5eS1yDGdo+KH6AFaaWMdI8B+MHzgAn/2SCanNYCqRWwnPTmTqPRpQoAXXygMztUPOdRqRfHygIrlt79DR5zZUhozJ6iKONz8JXubrLQYavNfNEZoMPLrKUxZp8KdEKx2oNc2n1uf6trRcu9DeLb3ZTVH5/zJj7umifE95G+gr610e7fpTuR8gzFSjrOZvyDfV7KTRSgG113w6mVQXQIhUJmDL7sreUk0uyN4rMVfwiPprC3tjfB2djIU5FTjy327fUE/0U3KErJZXcy3EGuhGKhwOlPWW5P7+6YuBmeVxGlppQI56HdjGg6gwmaK232At8qeDPZNY/CFyzHkBFvihh3HxBqRMOG0OR/zGNZd79hCISGQo0U3Jgl7EmhtQt6zieC9tjABHrLuiNlX31z0zAdOahL/VJ19Koobwhnc4EVB3OLQ4BnkWvp/Eww8r49+u2waFfriwb+orLoi6C+b/zI7111W4A7vc26Kk1CbHDgkjVkY6Qf0BzWiw/rw2MTlqIGXsc0Lkxt5E9WXcm08SWF7rCKdyKIqeq+43iCEeaDjYL4UMTAiM9p7JRkhLY0JljGho1jCQIkIfmqcqMIkdZk6ro5VtprqjgZ2vChNNd54mCo5ls6W7qRlF7iH1+3vDylDfUJ5WHVBKSKfQffjV/KmowHnRaTRCFc583JR7HMC3u67J+dDNWJ2veB4GQ8fvE69I2c3UVwEOCioH6bW8qui5NqQ9nmvG0COFw93Pe+oicVgQKgVWpGPjBZWe9tKVyImZfplEbC2H/xjCcuLsiMGZjrfdP+WFgq31+kem+QH/2txhpgv2BYGmPgx3IglRKdNRgsDkE385HOXIqIXt1R2liDWAeKi+rplVRIdXJyeKWD3qJl6f4//Y34DZee+cVcQrUsxjcEqvnQ/EGWYyeqIqCbJXyGOR48KdF/FrA/E+ec5v11Vle2xbHEBOjMdztZRZluoXHH9eyoA6NYSacOY28xAMY7xLL1Y1gp4VpaIKlj1jbMIjulieUMHRV0kc0ymitlnas+94Fu4C361WCxWPaKHkMT+4DmMesRyM5s/HZ+TcXT1bNj/AuiQAItA8Qsw2vjkDydcyOCifQeObvE+f5Ao3ED2zW6f3ELzUhuK+xqFKb+C0IwWbOnXrG/v2JFWpWVsVihBwtbaHOcWazYPW1zyPnhkycmclCxA6QeF+uCkqjqOW/JJ8kkIXPJtZwjckmFgWekju2m0JBARk/t/mV/JsVSgxHd53rFzIsgHaMAckCs3IUouETnkTRauz5w65S8g5XQxCsi2RM6cEE0foGvNHr56xYo4ttPIuTsrPbwHIs7CqRBo588Zg7rNv9oYF8/MXqry/khjsbhFImn8qM9ESBjz4u9h//qSWT8BqwAAB2chYl/aKRc0uAy5dIG//2bp5o+bSH3iEzdnyjDxqdddt6q/uF4K5Oqo8Wc5rJHyUH4Ua+i4+bMy3IJKN0xIyzt15RiqRng4cRG6OJR9Md1uXdXtMfF0NQfQ11s8YwfNjlgkyzMqQso7MNYYkqUIP6ZFJXCnG0NDa5KxgR6y1VJ05i6l8Dl8AAAAlPAb3QMXjQGef04uLYVt+yC3q3nJKUuMVy37kw0vutSDOoC9AAAI4eCCImlfMf+r1sd5axV6jCGHTb5cdLzLrMIk9dVHsgmsxIILyRUhQQY8n/ITHV/PGqgK4eLqHaAAcpFFyFbUjJRk3PFpJI5Vx3Eg6vhQk7SXK7f/dGAAAAARVhJRroAAABFeGlmAABJSSoACAAAAAYAEgEDAAEAAAABAAAAGgEFAAEAAABWAAAAGwEFAAEAAABeAAAAKAEDAAEAAAACAAAAEwIDAAEAAAABAAAAaYcEAAEAAABmAAAAAAAAAEgAAAABAAAASAAAAAEAAAAGAACQBwAEAAAAMDIxMAGRBwAEAAAAAQIDAACgBwAEAAAAMDEwMAGgAwABAAAA//8AAAKgBAABAAAAXAMAAAOgBAABAAAA6QAAAAAAAAA=;" parent="1" vertex="1">
          <mxGeometry x="887" y="106" width="111.17" height="30.12" as="geometry" />
        </mxCell>
        <mxCell id="9_uiUGIVb2UT8xTKy1jM-10" style="edgeStyle=orthogonalEdgeStyle;rounded=0;orthogonalLoop=1;jettySize=auto;html=1;exitX=0.5;exitY=1;exitDx=0;exitDy=0;" parent="1" source="9_uiUGIVb2UT8xTKy1jM-9" target="9_uiUGIVb2UT8xTKy1jM-9" edge="1">
          <mxGeometry relative="1" as="geometry" />
        </mxCell>
        <mxCell id="9_uiUGIVb2UT8xTKy1jM-15" value="" style="endArrow=classic;html=1;rounded=0;entryX=0;entryY=0.5;entryDx=0;entryDy=0;" parent="1" target="GJvj-thQ1zYraej0EQVl-14" edge="1">
          <mxGeometry width="50" height="50" relative="1" as="geometry">
            <mxPoint x="438" y="275" as="sourcePoint" />
            <mxPoint x="488" y="225" as="targetPoint" />
          </mxGeometry>
        </mxCell>
        <mxCell id="9_uiUGIVb2UT8xTKy1jM-16" value="publish&amp;nbsp;&lt;span style=&quot;background-color: initial;&quot;&gt;payment&lt;/span&gt;" style="text;strokeColor=none;align=center;fillColor=none;html=1;verticalAlign=middle;whiteSpace=wrap;rounded=0;" parent="1" vertex="1">
          <mxGeometry x="514" y="196" width="60" height="30" as="geometry" />
        </mxCell>
        <mxCell id="9_uiUGIVb2UT8xTKy1jM-18" value="client" style="text;strokeColor=none;align=center;fillColor=none;html=1;verticalAlign=middle;whiteSpace=wrap;rounded=0;" parent="1" vertex="1">
          <mxGeometry x="70" y="202" width="60" height="30" as="geometry" />
        </mxCell>
        <mxCell id="9_uiUGIVb2UT8xTKy1jM-19" value="" style="endArrow=classic;html=1;rounded=0;exitX=0;exitY=0.517;exitDx=0;exitDy=0;exitPerimeter=0;entryX=1;entryY=0.5;entryDx=0;entryDy=0;" parent="1" source="9_uiUGIVb2UT8xTKy1jM-3" target="GJvj-thQ1zYraej0EQVl-14" edge="1">
          <mxGeometry width="50" height="50" relative="1" as="geometry">
            <mxPoint x="837" y="314" as="sourcePoint" />
            <mxPoint x="887" y="264" as="targetPoint" />
          </mxGeometry>
        </mxCell>
        <mxCell id="9_uiUGIVb2UT8xTKy1jM-20" value="consume payment" style="text;strokeColor=none;align=center;fillColor=none;html=1;verticalAlign=middle;whiteSpace=wrap;rounded=0;" parent="1" vertex="1">
          <mxGeometry x="801" y="196" width="106" height="30" as="geometry" />
        </mxCell>
        <mxCell id="9_uiUGIVb2UT8xTKy1jM-22" value="" style="endArrow=classic;html=1;rounded=0;exitX=0;exitY=0.5;exitDx=0;exitDy=0;entryX=1;entryY=0.5;entryDx=0;entryDy=0;" parent="1" source="9_uiUGIVb2UT8xTKy1jM-3" target="9_uiUGIVb2UT8xTKy1jM-1" edge="1">
          <mxGeometry width="50" height="50" relative="1" as="geometry">
            <mxPoint x="801" y="341" as="sourcePoint" />
            <mxPoint x="851" y="291" as="targetPoint" />
          </mxGeometry>
        </mxCell>
        <mxCell id="9_uiUGIVb2UT8xTKy1jM-24" value="" style="endArrow=classic;html=1;rounded=0;entryX=0;entryY=0.5;entryDx=0;entryDy=0;exitX=1;exitY=0.5;exitDx=0;exitDy=0;" parent="1" source="GJvj-thQ1zYraej0EQVl-8" target="9_uiUGIVb2UT8xTKy1jM-1" edge="1">
          <mxGeometry width="50" height="50" relative="1" as="geometry">
            <mxPoint x="448" y="285" as="sourcePoint" />
            <mxPoint x="649" y="227" as="targetPoint" />
          </mxGeometry>
        </mxCell>
        <mxCell id="eo3bIRa82Dre6MCx-bFZ-1" value="" style="endArrow=classic;html=1;rounded=0;exitX=0.75;exitY=1;exitDx=0;exitDy=0;" edge="1" parent="1">
          <mxGeometry width="50" height="50" relative="1" as="geometry">
            <mxPoint x="394" y="309" as="sourcePoint" />
            <mxPoint x="394" y="483" as="targetPoint" />
          </mxGeometry>
        </mxCell>
        <mxCell id="eo3bIRa82Dre6MCx-bFZ-2" value="" style="endArrow=classic;html=1;rounded=0;entryX=0.25;entryY=1;entryDx=0;entryDy=0;exitX=0.375;exitY=0.1;exitDx=0;exitDy=0;exitPerimeter=0;" edge="1" parent="1" source="eo3bIRa82Dre6MCx-bFZ-3">
          <mxGeometry width="50" height="50" relative="1" as="geometry">
            <mxPoint x="365" y="478" as="sourcePoint" />
            <mxPoint x="365" y="309" as="targetPoint" />
          </mxGeometry>
        </mxCell>
        <mxCell id="eo3bIRa82Dre6MCx-bFZ-3" value="training-service" style="rounded=0;whiteSpace=wrap;html=1;" vertex="1" parent="1">
          <mxGeometry x="320" y="481" width="120" height="60" as="geometry" />
        </mxCell>
        <mxCell id="eo3bIRa82Dre6MCx-bFZ-4" value="" style="shape=image;verticalLabelPosition=bottom;labelBackgroundColor=default;verticalAlign=top;aspect=fixed;imageAspect=0;image=data:image/png,UklGRpwTAABXRUJQVlA4WAoAAAAYAAAA/wAA/QAAQUxQSFcLAAAB8Mf//+qm/f89zkmapKVCHS2lWAnusA0fL1zmuL6Gu7u+0CnS+XB7bbi7ewXXGq41CPXkPP6gOec0z2cez5e/ImICwG1afINLhJe31uvaZ8jSFSt+O3FJ45YfVqyYMaBnvSoVwosFepskEEqDf8WGrT+Z8PUfR248cWChP7uxf+2CEV2b14nwlsQgvFn/mb8cuP7Cji7+IHrXsoldawcSz7vxqDUnbr7KR1azn8TsX9avPNk8m6+Ie5zhQNZzUxMPDqtgJJeldPufniBPL8+oEGAklO/7E04jb5Wnv3WtbCSSb5elt/ORx6lHx1cgUe2NyXbkte34hFLkKb4owY4cV97E9TSTxq9HPPJ/V3VPukQszkA3qCQNKynTxFhvsx3dY+pvVWWKGNqcykF3mXW8BkHkJlft6D4dl6tK5Kj1CN3roy5GYpQ4ge72YmMPUngtznc79sPVJEp0uY/uN3eVHyGKb7HroThy48+ff5rv4BVmfUEHQ79XqD0vcWUXIwBAmZEHUxx8wpdlyVB8PWq3bWhqBKcB/S85+GT/1UyF9x5oS5kVAqo/2M4nTGpMBGNfu6bceb6gseoFPuWu8KKBz3LU/HNx0Co3v8MlvFSXBoH7NN1qCtrNE3O4lDFQJkGxa1ryvrHoAHUvcgmj/EnyuCvo6fVTPpdOW0kSV1UXGJ7KpacfkOSYjz5dHnLJ3pYkB0Df9g+4hCNNdGqdzKdJFoqcDNDniyfidL2+PlNt4vTqS10CNynihBtDdJDbx6NAPe7moS1kJYoUnqopaTF9+UKs7NsDtHRMRrHCvL0RsgrJ2PURihYqd0dF+kjvGEMar7OheCHmXV70catmzVoNWZ+APKcMIqY/uBf/wIF8J45b/O9goXGiF7hX9Ipu+Hc/c4eJTC9/RD/W61367xBN/9D570uG/SXUYpRYswSULFMpktufXeNDHyzM63NblPGUmPGs0Lz75KjtR2/c5nZyNv8Q3x6d2MCLCWOFL6IO3MtGyroKYl70vJpGl/N4/7uzj5G6roP4NnpsgEtJpga7XuYoKBCo2PZVlV1G8v5gQxaS2KUQ0dbdz1XKTY9HIrsaps8Jc41GuzJRUDBjRSkXMPWKQTq7Hr7+IaDQAiY+UkQGs1eZCin0q1ykNAuofOtbKH5f56DoYNpIz0Lwn5eD4oN32xt0M416hSJkP2zVS+52XxEizJvvo4/8QSySmxXMbq9P8c0oTHjWS5eJmQKlDNCj4nMUKIwpo824BYXqzRRZi9z7lVjhhepawvY5BOvNGKM6w4AXKFi4K0Jd+FZFuFI6y2qkzq9RuJRlfmqCNiDRx5oZwqdWNfVeUa2rzBIOUbMAqd4OmDquJlnMbIHOmjmolt6cLezubAVSPb4BY1vkgoKvku1SdcbiSxXU8RnZ/izN2LOOBc18S7ZvfAoyT2Dk7cwCiu5UqGYbJBXks5ARZYvnOw0uI9VvtoCCg1czgmcqvdPtCdn2l3YSfpyV+LYAYJiSQ7Ws+QYnVR6ykjEUAPx/Rqo/bAtOP8hjRZlnBLAeo5pyyOTEMBaZXRkM0DieapldwKlpNzuHIwHav6baKYuzoOfsXK0PphFI9Dcfg/OWyG5qW/BZSLXfA1R8xZDjEwjeTDPlagPJmV88QzjWXOIoyZQH3QzgvH8GSwt9IhJJlj7NB5wH7HCwtD4oMoti+YuLg8pOScjyjlArUnxZEKgM+DGPqdiwHgTL/jYQVMrtkpDpW+EDyGVPGO0LasO2I9vPys+gln1/RwuoNQyyMYbWKGI9mW8F9ZH3UKher2npDeot25D5Jj+RSclNXVW/iAzqfZdmsdfrBJGy759eXBU0+014iez3vUQgR9q1nXM7BIN23/FPUHhyHsXui5rSrXEp0NM48SnS5enp1UvGjR7YuhnzjetWCQ8wg76e81KQIkpuRvzKvhGBfkUsJg+jBPz2qL47C/k4lS+OF2cWNAR3KIUNu4u8jOLK/XX9SsrgDgM7/mlDgrxd3zEQ3GLAx78nI0c5cqNPcQncYflpJx7lIUFsGysageuSh9mraIlWc0++ylGQr8s48XSUJ+js6R9eqSb7jZo1azNkxs/RKcjjoXy42d8AevpVazNgzvK9Z++xn44878uFG59bQLt3kzHrTiVkI337nuDA/R6eoDl8xoF7GQqSuO9P7KWP8gD1cpF6K17lKEjlPlHM2ZeDRu+Wv6YipduwdyxUg3X+Y6S1dT5rD1tJqnw+P2hHag1kLG++L6gNnnXfjsROr9iLsdO1JDUl1+QguW+HN2HrzWQjqAw/iASPDbMypZyvAior/mGn2I7QiiksZc0zqijxUyZSfGVA2dssPbWCc6+JGUjy+d4hW1naJDszdHmONO9nCFjFUltwXuYs0jy7MxSZxVC6v4qpSPSEJmAcyNAWk7Ow+1S7WAugo42dgbKzWflU21QCoEkiM7Y64LTKDaT6t14AkYeZiS3vRJ6QQbWsMQAQuoaZtSFOQnch1R98DADGOXZW5ns7aXGTbBeqAQB8mcbKQNnJ8ByybTO/0/QGIxmfQMGBPyHVsxbCu6EHGXnY2knlk2R72roA+DGPjZuNnTSIJ9v1gIIGprFxpqaTDzPJtgoKrvuALY+/ItWVj50YTrFlmUy2V0YnMI4t76/J9js4r5DLVNENVMvqqAIuCtnpkmqmCdlkTzWVHgtYdB1Q6/+TeOXOsagyfPxSuG61BPVld4pW9lJvDR4j0gQryQpaww8pQuUYI2mCQWlCFeMF2kOPiNSzNqBnW0Wc8uZ762L6U5wOREq6QPmbguSIbiyBvqY+qWKU9DnoHro8U4RSBpr0g8oH7OLzZrYHFKL83h3hSRkdAIUqN08TG8f9wRYo7O73RUY509kEhW7ped0hLJlbaoMrerWPdghKwvQwcE2PaseEJGttfW/JRQAsC1LtgpGXsruBSQIXNnfak6YIRErc763N4Ophow7liIHjxfmVg6tbgEFj5eG7MtxC+h0+J2Yhvr5zdfe3YzrVLgqsmkq1/Fucwr8NkXy21q5fv1ZkxVJFTcC0ZLSEfbR4Y3SyzlusfIgC+v+3h4Nd2a5soF/mM7aHm+nH+iTL/8WRlSlyz3eO7/nZZz3nnbGJmW1d8xJmAADvMh2O28XLEf+hUQKnkvf4F8IVUx00DnkuWHfaG7R4THgtVLbJRUBz6DqhOhoJ2uX2iTTZyKfM2ZIO4L9KoUjQYT4ltwZdJ72lSLFrfLpcWp8u98XpnFmf5ncp4r+VT6dB3wbXKeK3mk8XffVpHU8Ry2Q+3aqhz2cPKSJ/lM2lJ5/rYlqQQxGod4dLuUs99aiwH0lScjOX8Mr7Ohh6pdMEhmRySfkhWJNkPYJa7Z/INKgfwyVMGV1ES9BK1Hz/PaChZVEml/DZWJO6iEW52naVJQLUvMsnfLWkggpjk61vUXP2VAsVjPPy+YRZV6eXkd6RG0Ul5KH2Wy2AjN7nOIWo2G9uXLr0wH2HgjrmfGemAzR5yKtCVWJrACEtI166H9tAIGXQ1za387MPLaRiP2e7mWMRQE2v7zLdSe7+SKCn5fsX7iNnTy2gqNfwq3Y3kf9bbaCpZ6t9OW4hY3YJoKqx+Iw8NxD7qQ8QVrLuTnFwzZ60uDgQ17vH/hSFW/b7m94HAocN2PWcT/Z7v3ziCzSO6Lj0voM/cfMbB8lAZdmv/JCTfMnY0jXCB4gth488nJyay56S9TJ+W2d/CWheuX/UwWtPFYayHkdvm/9JcQkIL4e832PO+kO33igul//04q7l476o7Q0CKBer9F6H/vNXHrv+yjWyk87++f24Lz6sFeEDImnwDihRpmL1tn3HL4/aEh0dfUeD/WZ0dPSOqKiZA3pWqRxRKsTPLIGbBABWUDggXAcAABAsAJ0BKgAB/gA+bTKVSKQioiEmMQlggA2JTdwYBKiAbv2UPOn+P/K/adOnfmT/e+iA2k8RZTv4x+n/8n+5fjp78P0A9wn8E/w3sAfqz0nPMB+0P7ae9L/u/UJ6AH9C/2HpT+wB6AHlxfsb8En9d/6n7x+0l/9/YA9AD/4db/1L/i34AfqN+FfdwQhDzMpMx4xpi4sRuh0SqqqqLXkvfIrxLsrcaMSIh7AfD+oPRL+XXKLrKqqov8O1c8NKBBHnkqIC2oW1xrbhE0NM/OHJSlzji/n+oHjWqRSBNc4yPYiIpszGLolQuxOyIws/MxHm6NKCLnQREADADmPSiOo57kf2/GpKP3KAjp2tJ8wO+NxO5Rq7eV5KVoOtw20ZoxmBR7ahVm/uYt05x0sknoiRnZIBTKFdU5BkAhgn0QT5dtk6Jh3SQh5C1nFx8RDm+vUd0zoB5yekLMzMwMTbUjvi901+X6ZD8SnZHIAA/tdGgP2A4P//g8jWpSkyXxrxEVSfiQE6fAFg+Mz+V72o4ia+HgG5SfrhbId0gIU6Y5AR2hULFepANPkDCdPrFMUVL8+yrn27vsuGYVSJHxqnyLFoBrFeWUjAR6/LZnA1ZUaPOi5+9EWycqJ+Ireg2LsTl/w3tgAAlxQT3MDTWp+XzFtFLi8vjWB0DPUUKG2xPM8qCLUi+ZlKS2RIH1zZHnUso8TWVpT34FkCYaYwE6JiWGjDCiAJDYAMHvNjTdJ9R/gQXB1K3X3CpIU/AAAEE3ag7EWs+HoDfVfuKeV8r3ccDfG0yvIarA6T1/CROiv3IoV6rJgJS/u+oABH4XbYHxStn9iPr3eMhE4GdnH2fqfP1llIkc941Z4h7onsvI/EitQAovuFRq6l9w1N6tMg9w6z/lnaqvlEIPjLk6YMDWXjdFlJJu9WZ42hU1VpZHU7fhbs+5fOmwba0p8jfwuTzer8TzE0zuYCtIk6F/1uFjCSoJF+zevtCkkWE5HoiL1YYwBHggCn4i3PGP/2Ov0E+gHniJBR+fXZNvbxHYQD8fP6e6tIh9RrpqpF9X+GJ3RS3cpUJ1Psq8E2kVCP1ILZ6se/xJTASzivpsff87khHHYMcE4eNWwciYmfwaOtLUInxVFnDTplY+A2hX7dH44umF7dlSjXbNXpzQVtR/P2xCPCyzEbv8yTrsWv1u2s/m53fgfOqZbtP9CJgN5O0i2j6KJzfjMGZJK4yPw58gOU1kEpB4gHVvMayNhqbA5SFj5thw5MQegwopTvOoet4w/7tuBQWOv+o0xNd6lnpDGaqP4YKdCned0pnsgxmFyYbpJNQc5DBod7lF8L3HJsua3PDAJUO3bsYRvfbi5LDYKZKjifb78/gLGsRv28X+PWD1/ZWWNsZS5dW971JvvjJxCEZRc0q69qUy0qNOvIEwHiKz+fjyT8zq901oepJJncAz7NOGwMFv/2bjpWiS88rZrfsUFJTSilsBmm7Ne3owlQ00T+Z6fi9QEaU6sq+b8v6YP/+85uY4ApcJS9yh7Y4XrQIURx2MbvkX41NzO69NGbjDYM/UbA9TNVX/hUb+Tgpyz4sboas0S5SgwIiLYKXk4/2WUICKLBD1r8337f2oNu8gff06Il2B4G7VagssToeozHrT4ADzzTjDYtD5O9/+yROenCQu2FH3ms/ffGmHmX6kYzzgG0SxGcuWETJ4UhSOCpLS7jiCtwrCHx9ka9KWLyEZnFZu99wDqFIQC+SQa5gGY/sGj47STPpM5ckKLPhdyfAGzyQPognqJ0h6h9nJnkLv52W6DLs4U3tHN/2CSP4vZ7yU/a9pZmyKsViU8mkxEWSzav8XwoKNkyc+vcUt55xLMP+hrtLke6TsjjyXGVI9SHUpTtp42c84t3yEqdJCD2FPFv7Ux3cnz7UJWWTzHKoGOmUev+u2nX64NXSn/dflVS1KL3X5VUrRZbr85ofyqvjW0DU7V5IzvqfTAwJrFwAS+iVjSBhAcb5zlFONyO6B62jhUBTYq9L0T8LpBFg+OaStWEhpspbOr5ReTbqxRMYifUi4kWNq33juvfQgjAbxm/8SJcsfQxM9krAQPlBV1+EbK8X8BZyeUGgqEK0+HImGIJLl//r+OWqc4TtAAzhNQYqTSEa8wdkGN7/2/fxG9eqD9LqjN2wMQ19kCbtLLaN8mPxsAgRJrZccYlmL79NUKNH1NvkAAC01LiLn/WniC1uErKbIKV98KlQ+z+/dKT06a2geAsF1jFXfHsuJu1wtodgWhJOha65pXFyiONNYvneOQHGEUOOJukq+j8tfal+Jdr5z+GBe3YO3hYsE1vCH3lpHr1gDIrF6ZgAB2TbamPbT6fVxgYD5CnaxrxmpXIp+bsvNeYkrMi5/JsobDeMySmbtR7OIhpkEMxFKJfGNGAWnB/XAetRr6mfCaqfRos/557RW462OOVuiqM87Kacp6q4T1WasC6TeTNUt6OiLEWW6Mvlfla4MT+p2//39ECYI+GketRNs3HGWQDVbn1kAAAAEVYSUa6AAAARXhpZgAASUkqAAgAAAAGABIBAwABAAAAAQAAABoBBQABAAAAVgAAABsBBQABAAAAXgAAACgBAwABAAAAAgAAABMCAwABAAAAAQAAAGmHBAABAAAAZgAAAAAAAABIAAAAAQAAAEgAAAABAAAABgAAkAcABAAAADAyMTABkQcABAAAAAECAwAAoAcABAAAADAxMDABoAMAAQAAAP//AAACoAQAAQAAAAABAAADoAQAAQAAAP4AAAAAAAAA;" vertex="1" parent="1">
          <mxGeometry x="263.32" y="536" width="47.37" height="47" as="geometry" />
        </mxCell>
      </root>
    </mxGraphModel>
  </diagram>
</mxfile>
